<?xml version="1.0" encoding="UTF-8" standalone="no"?>
<!DOCTYPE svg PUBLIC "-//W3C//DTD SVG 1.1//EN"
 "http://www.w3.org/Graphics/SVG/1.1/DTD/svg11.dtd">
<!-- Generated by graphviz version 7.1.0 (20230121.1956)
 -->
<!-- Title: dependency&#45;cruiser output Pages: 1 -->
<svg width="361pt" height="410pt"
 viewBox="0.00 0.00 361.00 410.00" xmlns="http://www.w3.org/2000/svg" xmlns:xlink="http://www.w3.org/1999/xlink">
<g id="graph0" class="graph" transform="scale(1 1) rotate(0) translate(4 406)">
<title>dependency&#45;cruiser output</title>
<polygon fill="white" stroke="none" points="-4,4 -4,-406 357,-406 357,4 -4,4"/>
<g id="clust1" class="cluster">
<title>cluster_datasources</title>
<path fill="#ffffff" stroke="black" stroke-width="2" d="M20,-154C20,-154 333,-154 333,-154 339,-154 345,-160 345,-166 345,-166 345,-382 345,-382 345,-388 339,-394 333,-394 333,-394 20,-394 20,-394 14,-394 8,-388 8,-382 8,-382 8,-166 8,-166 8,-160 14,-154 20,-154"/>
<text text-anchor="middle" x="176.5" y="-382.8" font-family="Helvetica,sans-Serif" font-weight="bold" font-size="9.00">datasources</text>
</g>
<g id="clust2" class="cluster">
<title>cluster_datasources/games</title>
<path fill="#ffffff" stroke="black" stroke-width="2" d="M28,-162C28,-162 325,-162 325,-162 331,-162 337,-168 337,-174 337,-174 337,-356 337,-356 337,-362 331,-368 325,-368 325,-368 28,-368 28,-368 22,-368 16,-362 16,-356 16,-356 16,-174 16,-174 16,-168 22,-162 28,-162"/>
<text text-anchor="middle" x="176.5" y="-356.8" font-family="Helvetica,sans-Serif" font-weight="bold" font-size="9.00">games</text>
</g>
<g id="clust3" class="cluster">
<title>cluster_datasources/games/impl</title>
<path fill="#ffffff" stroke="black" stroke-width="2" d="M36,-170C36,-170 189,-170 189,-170 195,-170 201,-176 201,-182 201,-182 201,-330 201,-330 201,-336 195,-342 189,-342 189,-342 36,-342 36,-342 30,-342 24,-336 24,-330 24,-330 24,-182 24,-182 24,-176 30,-170 36,-170"/>
<text text-anchor="middle" x="112.5" y="-330.8" font-family="Helvetica,sans-Serif" font-weight="bold" font-size="9.00">impl</text>
</g>
<g id="clust4" class="cluster">
<title>cluster_node_modules</title>
<path fill="#ffffff" stroke="black" stroke-width="2" d="M238,-8C238,-8 300,-8 300,-8 306,-8 312,-14 312,-20 312,-20 312,-134 312,-134 312,-140 306,-146 300,-146 300,-146 238,-146 238,-146 232,-146 226,-140 226,-134 226,-134 226,-20 226,-20 226,-14 232,-8 238,-8"/>
<text text-anchor="middle" x="269" y="-134.8" font-family="Helvetica,sans-Serif" font-weight="bold" font-size="9.00">node_modules</text>
</g>
<g id="clust5" class="cluster">
<title>cluster_node_modules/@reduxjs</title>
<path fill="#ffffff" stroke="black" stroke-width="2" d="M246,-42C246,-42 292,-42 292,-42 298,-42 304,-48 304,-54 304,-54 304,-82 304,-82 304,-88 298,-94 292,-94 292,-94 246,-94 246,-94 240,-94 234,-88 234,-82 234,-82 234,-54 234,-54 234,-48 240,-42 246,-42"/>
<text text-anchor="middle" x="269" y="-82.8" font-family="Helvetica,sans-Serif" font-weight="bold" font-size="9.00">@reduxjs</text>
</g>
<!-- datasources/games/GameTitlesDataSource.ts -->
<g id="node1" class="node">
<title>datasources/games/GameTitlesDataSource.ts</title>
<g id="a_node1"><a xlink:href="datasources/games/GameTitlesDataSource.ts" xlink:title="GameTitlesDataSource.ts">
<path fill="#ddfeff" stroke="black" d="M323,-256C323,-256 215,-256 215,-256 212,-256 209,-253 209,-250 209,-250 209,-244 209,-244 209,-241 212,-238 215,-238 215,-238 323,-238 323,-238 326,-238 329,-241 329,-244 329,-244 329,-250 329,-250 329,-253 326,-256 323,-256"/>
<text text-anchor="start" x="217" y="-244.8" font-family="Helvetica,sans-Serif" font-size="9.00">GameTitlesDataSource.ts</text>
</a>
</g>
</g>
<!-- datasources/games/GamesDataSource.ts -->
<g id="node2" class="node">
<title>datasources/games/GamesDataSource.ts</title>
<g id="a_node2"><a xlink:href="datasources/games/GamesDataSource.ts" xlink:title="GamesDataSource.ts">
<path fill="#ddfeff" stroke="black" d="M315,-211C315,-211 223,-211 223,-211 220,-211 217,-208 217,-205 217,-205 217,-199 217,-199 217,-196 220,-193 223,-193 223,-193 315,-193 315,-193 318,-193 321,-196 321,-199 321,-199 321,-205 321,-205 321,-208 318,-211 315,-211"/>
<text text-anchor="start" x="225" y="-199.8" font-family="Helvetica,sans-Serif" font-size="9.00">GamesDataSource.ts</text>
</a>
</g>
</g>
<!-- datasources/games/PlayersDataSource.ts -->
<g id="node3" class="node">
<title>datasources/games/PlayersDataSource.ts</title>
<g id="a_node3"><a xlink:href="datasources/games/PlayersDataSource.ts" xlink:title="PlayersDataSource.ts">
<path fill="#ddfeff" stroke="black" d="M315.5,-301C315.5,-301 222.5,-301 222.5,-301 219.5,-301 216.5,-298 216.5,-295 216.5,-295 216.5,-289 216.5,-289 216.5,-286 219.5,-283 222.5,-283 222.5,-283 315.5,-283 315.5,-283 318.5,-283 321.5,-286 321.5,-289 321.5,-289 321.5,-295 321.5,-295 321.5,-298 318.5,-301 315.5,-301"/>
<text text-anchor="start" x="224.5" y="-289.8" font-family="Helvetica,sans-Serif" font-size="9.00">PlayersDataSource.ts</text>
</a>
</g>
</g>
<!-- datasources/games/impl/InMemoryGameTitlesDataSource.ts -->
<g id="node4" class="node">
<title>datasources/games/impl/InMemoryGameTitlesDataSource.ts</title>
<g id="a_node4"><a xlink:href="datasources/games/impl/InMemoryGameTitlesDataSource.ts" xlink:title="InMemoryGameTitlesDataSource.ts">
<path fill="#ddfeff" stroke="black" d="M187,-256C187,-256 38,-256 38,-256 35,-256 32,-253 32,-250 32,-250 32,-244 32,-244 32,-241 35,-238 38,-238 38,-238 187,-238 187,-238 190,-238 193,-241 193,-244 193,-244 193,-250 193,-250 193,-253 190,-256 187,-256"/>
<text text-anchor="start" x="40" y="-244.8" font-family="Helvetica,sans-Serif" font-size="9.00">InMemoryGameTitlesDataSource.ts</text>
</a>
</g>
</g>
<!-- datasources/games/impl/InMemoryGameTitlesDataSource.ts&#45;&gt;datasources/games/GameTitlesDataSource.ts -->
<g id="edge1" class="edge">
<title>datasources/games/impl/InMemoryGameTitlesDataSource.ts&#45;&gt;datasources/games/GameTitlesDataSource.ts</title>
<path fill="none" stroke="#000000" stroke-width="2" stroke-opacity="0.200000" d="M193.47,-247C195.72,-247 197.97,-247 200.21,-247"/>
<polygon fill="#000000" fill-opacity="0.200000" stroke="#000000" stroke-width="2" stroke-opacity="0.200000" points="199.76,-249.1 205.76,-247 199.76,-244.9 199.76,-249.1"/>
</g>
<!-- datasources/games/impl/InMemoryGamesDataSource.ts -->
<g id="node5" class="node">
<title>datasources/games/impl/InMemoryGamesDataSource.ts</title>
<g id="a_node5"><a xlink:href="datasources/games/impl/InMemoryGamesDataSource.ts" xlink:title="InMemoryGamesDataSource.ts">
<path fill="#ddfeff" stroke="black" d="M178.5,-196C178.5,-196 46.5,-196 46.5,-196 43.5,-196 40.5,-193 40.5,-190 40.5,-190 40.5,-184 40.5,-184 40.5,-181 43.5,-178 46.5,-178 46.5,-178 178.5,-178 178.5,-178 181.5,-178 184.5,-181 184.5,-184 184.5,-184 184.5,-190 184.5,-190 184.5,-193 181.5,-196 178.5,-196"/>
<text text-anchor="start" x="48.5" y="-184.8" font-family="Helvetica,sans-Serif" font-size="9.00">InMemoryGamesDataSource.ts</text>
</a>
</g>
</g>
<!-- datasources/games/impl/InMemoryGamesDataSource.ts&#45;&gt;datasources/games/GamesDataSource.ts -->
<g id="edge2" class="edge">
<title>datasources/games/impl/InMemoryGamesDataSource.ts&#45;&gt;datasources/games/GamesDataSource.ts</title>
<path fill="none" stroke="#000000" stroke-width="2" stroke-opacity="0.200000" d="M184.87,-193.93C192.6,-194.68 200.41,-195.44 207.98,-196.17"/>
<polygon fill="#000000" fill-opacity="0.200000" stroke="#000000" stroke-width="2" stroke-opacity="0.200000" points="207.56,-198.24 213.74,-196.73 207.97,-194.06 207.56,-198.24"/>
</g>
<!-- node_modules/react -->
<g id="node6" class="node">
<title>node_modules/react</title>
<g id="a_node6"><a xlink:href="node_modules/react" xlink:title="react">
<polygon fill="#c40b0a" fill-opacity="0.101961" stroke="black" points="296,-34 244,-34 242,-32 242,-16 294,-16 296,-18 296,-34"/>
<polyline fill="none" stroke="black" points="294,-32 242,-32"/>
<polyline fill="none" stroke="black" points="294,-32 294,-16"/>
<polyline fill="none" stroke="black" points="294,-32 296,-34"/>
<text text-anchor="start" x="258.5" y="-22.8" font-family="Helvetica,sans-Serif" font-size="9.00" fill="#c40b0a">react</text>
</a>
</g>
</g>
<!-- datasources/games/impl/InMemoryGamesDataSource.ts&#45;&gt;node_modules/react -->
<g id="edge3" class="edge">
<title>datasources/games/impl/InMemoryGamesDataSource.ts&#45;&gt;node_modules/react</title>
<path fill="none" stroke="#000000" stroke-opacity="0.200000" d="M116.7,-177.6C126.18,-151.19 156.81,-75.89 209,-39 216.39,-33.78 225.46,-30.48 234.26,-28.41"/>
<polygon fill="#000000" fill-opacity="0.200000" stroke="#000000" stroke-opacity="0.200000" points="234.59,-30.49 240.06,-27.24 233.76,-26.37 234.59,-30.49"/>
</g>
<!-- datasources/games/impl/InMermoryPlayersDataSource.ts -->
<g id="node7" class="node">
<title>datasources/games/impl/InMermoryPlayersDataSource.ts</title>
<g id="a_node7"><a xlink:href="datasources/games/impl/InMermoryPlayersDataSource.ts" xlink:title="InMermoryPlayersDataSource.ts">
<path fill="#ddfeff" stroke="black" d="M181,-316C181,-316 44,-316 44,-316 41,-316 38,-313 38,-310 38,-310 38,-304 38,-304 38,-301 41,-298 44,-298 44,-298 181,-298 181,-298 184,-298 187,-301 187,-304 187,-304 187,-310 187,-310 187,-313 184,-316 181,-316"/>
<text text-anchor="start" x="46" y="-304.8" font-family="Helvetica,sans-Serif" font-size="9.00">InMermoryPlayersDataSource.ts</text>
</a>
</g>
</g>
<!-- datasources/games/impl/InMermoryPlayersDataSource.ts&#45;&gt;datasources/games/PlayersDataSource.ts -->
<g id="edge4" class="edge">
<title>datasources/games/impl/InMermoryPlayersDataSource.ts&#45;&gt;datasources/games/PlayersDataSource.ts</title>
<path fill="none" stroke="#000000" stroke-width="2" stroke-opacity="0.200000" d="M187.13,-299.85C193.86,-299.2 200.63,-298.54 207.23,-297.9"/>
<polygon fill="#000000" fill-opacity="0.200000" stroke="#000000" stroke-width="2" stroke-opacity="0.200000" points="207.33,-300 213.1,-297.33 206.92,-295.82 207.33,-300"/>
</g>
<!-- datasources/games/impl/MobxPlayersDataSource.ts -->
<g id="node8" class="node">
<title>datasources/games/impl/MobxPlayersDataSource.ts</title>
<g id="a_node8"><a xlink:href="datasources/games/impl/MobxPlayersDataSource.ts" xlink:title="MobxPlayersDataSource.ts">
<path fill="#ddfeff" stroke="black" d="M170.5,-286C170.5,-286 54.5,-286 54.5,-286 51.5,-286 48.5,-283 48.5,-280 48.5,-280 48.5,-274 48.5,-274 48.5,-271 51.5,-268 54.5,-268 54.5,-268 170.5,-268 170.5,-268 173.5,-268 176.5,-271 176.5,-274 176.5,-274 176.5,-280 176.5,-280 176.5,-283 173.5,-286 170.5,-286"/>
<text text-anchor="start" x="56.5" y="-274.8" font-family="Helvetica,sans-Serif" font-size="9.00">MobxPlayersDataSource.ts</text>
</a>
</g>
</g>
<!-- datasources/games/impl/MobxPlayersDataSource.ts&#45;&gt;datasources/games/PlayersDataSource.ts -->
<g id="edge5" class="edge">
<title>datasources/games/impl/MobxPlayersDataSource.ts&#45;&gt;datasources/games/PlayersDataSource.ts</title>
<path fill="none" stroke="#000000" stroke-width="2" stroke-opacity="0.200000" d="M176.79,-283.14C186.97,-284.13 197.49,-285.15 207.6,-286.14"/>
<polygon fill="#000000" fill-opacity="0.200000" stroke="#000000" stroke-width="2" stroke-opacity="0.200000" points="207.18,-288.2 213.35,-286.69 207.59,-284.02 207.18,-288.2"/>
</g>
<!-- node_modules/mobx -->
<g id="node9" class="node">
<title>node_modules/mobx</title>
<g id="a_node9"><a xlink:href="node_modules/mobx" xlink:title="mobx">
<polygon fill="#c40b0a" fill-opacity="0.101961" stroke="black" points="296,-120 244,-120 242,-118 242,-102 294,-102 296,-104 296,-120"/>
<polyline fill="none" stroke="black" points="294,-118 242,-118"/>
<polyline fill="none" stroke="black" points="294,-118 294,-102"/>
<polyline fill="none" stroke="black" points="294,-118 296,-120"/>
<text text-anchor="start" x="257.5" y="-108.8" font-family="Helvetica,sans-Serif" font-size="9.00" fill="#c40b0a">mobx</text>
</a>
</g>
</g>
<!-- datasources/games/impl/MobxPlayersDataSource.ts&#45;&gt;node_modules/mobx -->
<g id="edge6" class="edge">
<title>datasources/games/impl/MobxPlayersDataSource.ts&#45;&gt;node_modules/mobx</title>
<path fill="none" stroke="#000000" stroke-opacity="0.200000" d="M177,-276.38C186.11,-273.58 194.56,-269.06 201,-262 216.47,-245.04 198.34,-179.34 209,-159 216.74,-144.22 231.21,-132.34 243.88,-124.1"/>
<polygon fill="#000000" fill-opacity="0.200000" stroke="#000000" stroke-opacity="0.200000" points="244.65,-126.09 248.63,-121.14 242.43,-122.53 244.65,-126.09"/>
</g>
<!-- datasources/games/impl/ReduxGamesDataSource.ts -->
<g id="node10" class="node">
<title>datasources/games/impl/ReduxGamesDataSource.ts</title>
<g id="a_node10"><a xlink:href="datasources/games/impl/ReduxGamesDataSource.ts" xlink:title="ReduxGamesDataSource.ts">
<path fill="#ddfeff" stroke="black" d="M172,-226C172,-226 53,-226 53,-226 50,-226 47,-223 47,-220 47,-220 47,-214 47,-214 47,-211 50,-208 53,-208 53,-208 172,-208 172,-208 175,-208 178,-211 178,-214 178,-214 178,-220 178,-220 178,-223 175,-226 172,-226"/>
<text text-anchor="start" x="55" y="-214.8" font-family="Helvetica,sans-Serif" font-size="9.00">ReduxGamesDataSource.ts</text>
</a>
</g>
</g>
<!-- datasources/games/impl/ReduxGamesDataSource.ts&#45;&gt;datasources/games/GamesDataSource.ts -->
<g id="edge7" class="edge">
<title>datasources/games/impl/ReduxGamesDataSource.ts&#45;&gt;datasources/games/GamesDataSource.ts</title>
<path fill="none" stroke="#000000" stroke-width="2" stroke-opacity="0.200000" d="M178.13,-210.73C188,-209.77 198.16,-208.78 207.93,-207.83"/>
<polygon fill="#000000" fill-opacity="0.200000" stroke="#000000" stroke-width="2" stroke-opacity="0.200000" points="208,-209.94 213.77,-207.27 207.59,-205.75 208,-209.94"/>
</g>
<!-- datasources/games/impl/ReduxGamesDataSource.ts&#45;&gt;node_modules/react -->
<g id="edge9" class="edge">
<title>datasources/games/impl/ReduxGamesDataSource.ts&#45;&gt;node_modules/react</title>
<path fill="none" stroke="#000000" stroke-opacity="0.200000" d="M178.49,-216.11C187.07,-213.27 194.97,-208.81 201,-202 213.02,-188.43 197.41,-52.95 209,-39 215.27,-31.45 224.8,-27.54 234.39,-25.63"/>
<polygon fill="#000000" fill-opacity="0.200000" stroke="#000000" stroke-opacity="0.200000" points="234.56,-27.73 240.17,-24.75 233.93,-23.57 234.56,-27.73"/>
</g>
<!-- node_modules/@reduxjs/toolkit -->
<g id="node11" class="node">
<title>node_modules/@reduxjs/toolkit</title>
<g id="a_node11"><a xlink:href="node_modules/@reduxjs/toolkit" xlink:title="toolkit">
<polygon fill="#c40b0a" fill-opacity="0.101961" stroke="black" points="296,-68 244,-68 242,-66 242,-50 294,-50 296,-52 296,-68"/>
<polyline fill="none" stroke="black" points="294,-66 242,-66"/>
<polyline fill="none" stroke="black" points="294,-66 294,-50"/>
<polyline fill="none" stroke="black" points="294,-66 296,-68"/>
<text text-anchor="start" x="256.5" y="-56.8" font-family="Helvetica,sans-Serif" font-size="9.00" fill="#c40b0a">toolkit</text>
</a>
</g>
</g>
<!-- datasources/games/impl/ReduxGamesDataSource.ts&#45;&gt;node_modules/@reduxjs/toolkit -->
<g id="edge8" class="edge">
<title>datasources/games/impl/ReduxGamesDataSource.ts&#45;&gt;node_modules/@reduxjs/toolkit</title>
<path fill="none" stroke="#000000" stroke-opacity="0.200000" d="M178.41,-216.05C187.01,-213.21 194.93,-208.77 201,-202 220.33,-180.46 190.18,-93.99 209,-72 215.36,-64.57 224.91,-60.83 234.49,-59.07"/>
<polygon fill="#000000" fill-opacity="0.200000" stroke="#000000" stroke-opacity="0.200000" points="234.6,-61.18 240.26,-58.29 234.04,-57.01 234.6,-61.18"/>
</g>
</g>
</svg>
