<svg version="1.1" xmlns="http://www.w3.org/2000/svg" viewBox="0 0 726.6555332165425 262.37046971383967" width="1453.311066433085" height="524.7409394276793">
  <!-- svg-source:excalidraw -->

  <rect x="0" y="0" width="726.6555332165425" height="262.37046971383967" fill="transparent"></rect><g transform="translate(10 114.69785162805061) rotate(0 26.68014341676593 18.474927493290807)" stroke="none"><path fill="#ffffff" d="M 2.21,0 Q 2.21,0 2.09,2.11 1.98,4.22 1.89,6.32 1.81,8.43 1.74,10.68 1.67,12.94 1.76,14.30 1.84,15.65 1.91,17.01 1.98,18.36 2.12,19.64 2.25,20.93 2.29,21.23 2.33,21.53 2.30,21.81 2.26,22.09 2.16,22.35 2.07,22.61 1.90,22.85 1.74,23.08 1.53,23.27 1.32,23.45 1.07,23.58 0.82,23.71 0.55,23.78 0.28,23.85 -0.00,23.85 -0.28,23.85 -0.55,23.78 -0.82,23.71 -1.07,23.58 -1.32,23.45 -1.53,23.27 -1.75,23.08 -1.91,22.85 -2.07,22.61 -2.17,22.35 -2.26,22.09 -2.30,21.81 -2.33,21.53 -2.11,20.39 -1.89,19.24 -0.99,17.81 -0.08,16.37 0.86,15.71 1.81,15.04 2.87,14.56 3.93,14.07 5.58,13.62 7.22,13.16 8.41,12.98 9.60,12.79 8.91,11.67 8.21,10.55 7.42,9.24 6.62,7.92 6.27,6.39 5.92,4.86 6.15,2.85 6.39,0.85 7.14,-0.06 7.89,-0.97 9.05,-1.34 10.20,-1.72 11.72,-1.38 13.24,-1.04 14.94,-1.16 16.63,-1.28 17.97,-1.30 19.31,-1.31 21.06,-0.99 22.82,-0.67 23.96,1.15 25.11,2.97 25.26,4.75 25.42,6.53 25.49,8.01 25.57,9.49 25.71,10.83 25.85,12.17 26.00,13.93 26.14,15.68 26.18,16.81 26.22,17.93 26.21,19.01 26.21,20.09 26.23,21.43 26.25,22.77 26.28,23.97 26.31,25.17 26.35,26.35 26.38,27.54 25.61,29.55 24.85,31.55 23.40,32.18 21.96,32.80 20.73,32.90 19.50,32.99 18.37,33.00 17.25,33.00 15.66,32.72 14.06,32.43 12.96,31.98 11.85,31.52 13.61,31.25 15.36,30.99 15.99,30.10 16.63,29.21 16.65,30.31 16.67,31.40 16.51,33.01 16.35,34.61 15.69,35.81 15.03,37.00 14.77,35.88 14.50,34.76 13.46,34.05 12.42,33.33 13.72,32.51 15.01,31.69 16.82,30.91 18.62,30.12 20.45,29.67 22.27,29.21 23.68,29.13 25.09,29.05 26.41,29.02 27.72,29.00 28.98,28.99 30.24,28.99 31.30,29.31 32.37,29.64 33.88,30.17 35.39,30.70 36.94,31.23 38.50,31.76 39.61,32.14 40.72,32.52 40.75,31.24 40.78,29.96 40.79,28.90 40.80,27.83 40.80,26.77 40.80,25.70 40.29,24.49 39.78,23.27 39.17,22.15 38.57,21.02 37.88,19.21 37.20,17.39 36.93,16.23 36.67,15.06 36.20,13.48 35.74,11.90 36.29,9.66 36.84,7.43 37.73,6.70 38.62,5.97 39.78,5.95 40.93,5.94 42.34,6.11 43.75,6.28 45.42,6.32 47.10,6.36 48.62,6.38 50.14,6.39 51.34,6.36 52.55,6.34 53.90,7.05 55.26,7.77 53.25,8.16 51.24,8.56 51.66,8.61 52.09,8.66 52.49,8.81 52.89,8.96 53.24,9.21 53.60,9.45 53.88,9.77 54.16,10.09 54.36,10.47 54.56,10.85 54.67,11.27 54.77,11.69 54.77,12.11 54.77,12.54 54.67,12.96 54.56,13.38 54.36,13.76 54.16,14.14 53.88,14.46 53.60,14.78 53.24,15.02 52.89,15.26 52.49,15.42 52.09,15.57 51.66,15.62 51.24,15.67 51.88,15.55 52.52,15.43 51.96,15.55 51.39,15.67 50.82,15.60 50.25,15.53 49.73,15.29 49.21,15.04 48.80,14.64 48.38,14.24 48.12,13.73 47.85,13.22 47.77,12.65 47.68,12.08 47.78,11.51 47.88,10.94 48.15,10.44 48.42,9.93 48.85,9.54 49.27,9.15 49.79,8.91 50.32,8.68 50.89,8.62 51.46,8.56 52.03,8.69 52.59,8.82 53.08,9.12 53.57,9.43 53.93,9.87 54.30,10.31 54.51,10.85 54.72,11.38 54.74,11.96 54.77,12.53 54.61,13.09 54.45,13.64 54.12,14.11 53.79,14.59 53.33,14.93 52.87,15.27 52.32,15.45 51.78,15.63 51.20,15.62 50.62,15.62 50.08,15.43 49.54,15.24 49.08,14.89 48.63,14.53 48.31,14.05 47.99,13.57 47.84,13.02 47.69,12.46 47.73,11.89 47.77,11.31 47.99,10.78 48.21,10.25 48.58,9.81 48.96,9.38 50.10,8.97 51.24,8.56 51.66,8.61 52.09,8.66 52.49,8.81 52.89,8.96 53.24,9.21 53.60,9.45 53.88,9.77 54.16,10.09 54.36,10.47 54.56,10.85 54.67,11.27 54.77,11.68 54.77,12.11 54.77,12.54 54.67,12.96 54.56,13.38 54.36,13.76 54.16,14.14 53.88,14.46 53.60,14.78 53.24,15.02 52.89,15.26 52.49,15.42 52.09,15.57 51.66,15.62 51.24,15.67 51.89,14.53 52.55,13.40 51.34,13.37 50.13,13.34 48.60,13.35 47.07,13.36 45.27,13.38 43.47,13.40 41.98,13.07 40.49,12.75 41.69,12.04 42.89,11.34 43.44,13.11 43.99,14.88 44.57,16.25 45.15,17.62 45.72,18.82 46.30,20.02 46.93,21.29 47.56,22.56 47.81,24.14 48.06,25.71 48.05,27.24 48.04,28.77 48.04,30.11 48.03,31.46 47.87,32.95 47.71,34.45 47.16,35.92 46.61,37.40 45.41,38.40 44.21,39.40 42.53,39.63 40.85,39.86 39.53,39.51 38.21,39.17 37.07,38.78 35.94,38.40 34.47,37.96 32.99,37.51 31.46,36.85 29.93,36.18 28.85,36.18 27.76,36.17 26.55,36.17 25.33,36.17 23.97,36.25 22.61,36.33 21.29,36.87 19.98,37.40 18.85,38.03 17.73,38.65 16.84,39.30 15.94,39.95 14.51,40.37 13.09,40.80 11.43,39.88 9.78,38.97 9.09,37.16 8.41,35.35 8.71,34.32 9.01,33.28 9.16,32.05 9.31,30.83 9.35,29.59 9.39,28.35 10.12,27.02 10.85,25.69 12.09,25.31 13.33,24.93 15.29,25.36 17.25,25.79 18.31,26.37 19.37,26.96 19.40,25.74 19.43,24.53 19.46,23.17 19.48,21.81 19.43,20.03 19.37,18.26 19.17,16.38 18.97,14.50 18.81,13.05 18.64,11.61 18.46,9.97 18.29,8.34 18.80,7.08 19.31,5.83 17.96,5.81 16.62,5.80 15.21,5.80 13.80,5.81 12.44,5.48 11.07,5.15 11.85,4.28 12.63,3.42 12.76,4.54 12.88,5.67 13.88,7.27 14.88,8.88 15.27,10.16 15.65,11.44 15.58,12.90 15.51,14.36 15.12,15.52 14.73,16.67 13.66,17.53 12.59,18.39 10.98,18.60 9.37,18.81 8.24,18.96 7.11,19.11 5.85,19.44 4.60,19.76 3.47,20.65 2.33,21.53 2.30,21.81 2.26,22.09 2.17,22.35 2.07,22.61 1.91,22.85 1.75,23.08 1.53,23.27 1.32,23.45 1.07,23.58 0.82,23.71 0.55,23.78 0.28,23.85 0.00,23.85 -0.28,23.85 -0.55,23.78 -0.82,23.71 -1.07,23.58 -1.32,23.45 -1.53,23.27 -1.74,23.08 -1.90,22.85 -2.07,22.61 -2.16,22.35 -2.26,22.09 -2.30,21.81 -2.33,21.53 -2.29,21.23 -2.25,20.93 -2.12,19.64 -1.98,18.36 -1.91,17.01 -1.84,15.65 -1.76,14.30 -1.67,12.94 -1.74,10.68 -1.81,8.43 -1.89,6.32 -1.98,4.22 -2.09,2.11 -2.21,0 -2.17,-0.26 -2.14,-0.52 -2.05,-0.77 -1.95,-1.02 -1.80,-1.24 -1.65,-1.46 -1.45,-1.64 -1.25,-1.81 -1.02,-1.94 -0.78,-2.06 -0.52,-2.13 -0.26,-2.19 0.00,-2.19 0.26,-2.19 0.52,-2.13 0.78,-2.06 1.02,-1.94 1.25,-1.81 1.45,-1.64 1.65,-1.46 1.80,-1.24 1.95,-1.02 2.05,-0.77 2.14,-0.52 2.17,-0.26 2.21,0.00 2.21,0.00 L 2.21,0 Z"></path></g><g stroke-linecap="round"><g transform="translate(100.9741223155288 125.64693396966527) rotate(0 40.74857168627727 0.08040882550432116)"><path d="M-1.03 -0.85 C12.63 -0.93, 68.68 -1.36, 82.53 -1.03 M0.63 1.31 C14.07 1.39, 68.15 0.28, 81.55 -0.03" stroke="#ffffff" stroke-width="1" fill="none"></path></g><g transform="translate(100.9741223155288 125.64693396966527) rotate(0 40.74857168627727 0.08040882550432116)"><path d="M52.16 10.72 C61.65 6.43, 75.04 5.44, 80.28 -0.35 M52.72 11.57 C63.29 7.23, 72.16 4.93, 82.17 -0.89" stroke="#ffffff" stroke-width="1" fill="none"></path></g><g transform="translate(100.9741223155288 125.64693396966527) rotate(0 40.74857168627727 0.08040882550432116)"><path d="M51.72 -9.79 C61.27 -6.95, 74.81 -0.79, 80.28 -0.35 M52.29 -8.95 C62.81 -6.66, 71.82 -2.35, 82.17 -0.89" stroke="#ffffff" stroke-width="1" fill="none"></path></g></g><mask></mask><g transform="translate(250.81385318816433 110.1379325966231) rotate(0 38.84505759270047 21.493620275426792)" stroke="none"><path fill="#ffffff" d="M 2.56,0 Q 2.56,0 2.45,1.96 2.33,3.92 2.36,5.24 2.38,6.56 2.48,8.38 2.58,10.19 2.61,11.26 2.64,12.34 2.72,13.74 2.79,15.14 2.88,16.67 2.97,18.21 3.75,17.38 4.54,16.55 6.17,16.38 7.80,16.22 9.15,16.19 10.50,16.15 12.06,15.73 13.62,15.32 13.42,13.93 13.22,12.54 13.24,11.19 13.26,9.83 13.25,8.72 13.25,7.62 13.03,6.53 12.82,5.45 12.38,4.11 11.93,2.77 11.66,1.60 11.39,0.43 12.15,-0.90 12.91,-2.24 14.44,-3.04 15.97,-3.85 18.06,-3.79 20.15,-3.73 21.62,-3.64 23.08,-3.56 24.74,-3.44 26.40,-3.33 27.85,-3.27 29.30,-3.22 30.41,-3.21 31.51,-3.21 32.84,-3.23 34.16,-3.24 35.22,-2.81 36.28,-2.38 37.13,-0.93 37.99,0.51 38.10,2.00 38.21,3.49 37.65,5.79 37.09,8.09 36.47,9.37 35.84,10.66 35.25,11.83 34.66,13.01 34.10,14.19 33.54,15.37 32.75,17.17 31.96,18.97 31.61,19.99 31.25,21.00 30.97,22.60 30.69,24.20 30.55,25.29 30.40,26.37 30.24,27.46 30.07,28.54 29.84,30.92 29.60,33.30 29.43,35.28 29.26,37.26 29.11,38.70 28.97,40.15 28.64,41.34 28.31,42.52 27.84,43.51 27.36,44.50 25.99,45.87 24.62,47.23 23.28,47.42 21.95,47.61 20.85,47.34 19.75,47.06 18.59,46.05 17.43,45.05 16.92,44.09 16.42,43.14 15.79,41.38 15.16,39.62 15.02,38.42 14.88,37.21 15.84,35.29 16.81,33.36 17.92,33.05 19.04,32.73 20.33,32.66 21.63,32.59 23.14,32.56 24.65,32.54 26.05,32.65 27.44,32.76 29.47,33.26 31.49,33.75 33.41,34.32 35.32,34.89 36.57,35.28 37.81,35.68 39.95,36.00 42.09,36.32 43.66,36.40 45.23,36.48 45.63,35.01 46.03,33.54 46.07,31.68 46.12,29.82 45.88,28.44 45.63,27.05 45.35,25.25 45.06,23.44 44.90,21.49 44.73,19.54 44.62,17.51 44.52,15.48 44.32,14.06 44.12,12.64 43.77,11.23 43.41,9.83 43.26,8.82 43.11,7.81 43.14,7.47 43.17,7.13 43.28,6.81 43.39,6.49 43.57,6.21 43.75,5.92 44.00,5.69 44.24,5.46 44.54,5.29 44.83,5.12 45.16,5.03 45.48,4.94 45.82,4.93 46.16,4.92 46.49,4.99 46.82,5.06 47.13,5.21 47.43,5.35 47.69,5.57 47.95,5.78 48.15,6.06 48.35,6.33 48.48,6.64 48.61,6.95 48.67,7.29 48.72,7.62 47.69,6.35 46.67,5.07 48.75,5.30 50.83,5.53 52.87,5.70 54.91,5.88 57.15,6.03 59.39,6.18 61.08,6.19 62.78,6.20 63.99,6.15 65.20,6.09 66.49,6.09 67.79,6.08 69.03,7.46 70.27,8.84 69.86,10.97 69.45,13.10 68.99,14.22 68.53,15.35 67.83,16.74 67.14,18.14 66.53,19.42 65.93,20.71 65.51,21.74 65.10,22.77 64.51,24.19 63.92,25.61 62.45,26.80 60.99,28.00 59.36,28.20 57.74,28.40 56.01,28.45 54.28,28.49 53.11,28.53 51.94,28.57 49.72,28.51 47.50,28.45 45.33,28.24 43.15,28.03 40.09,27.87 37.04,27.70 34.92,27.57 32.80,27.45 29.53,27.22 26.27,26.99 23.54,26.87 20.82,26.74 19.22,26.77 17.62,26.80 16.35,26.87 15.09,26.94 13.56,27.60 12.03,28.26 10.96,28.47 9.90,28.69 10.38,29.76 10.86,30.83 9.49,32.19 8.12,33.56 6.90,34.44 5.68,35.32 4.17,36.32 2.67,37.32 0.86,38.39 -0.95,39.47 -2.86,40.41 -4.78,41.34 -6.74,41.99 -8.69,42.65 -10.55,43.05 -12.41,43.44 -14.66,43.53 -16.92,43.62 -19.53,43.01 -22.15,42.41 -24.79,39.89 -27.43,37.38 -29.49,33.14 -31.54,28.90 -32.91,23.49 -34.27,18.08 -34.83,13.82 -35.40,9.55 -35.63,6.17 -35.86,2.79 -35.86,0.58 -35.85,-1.63 -35.79,-2.94 -35.73,-4.25 -34.94,-5.66 -34.15,-7.07 -33.06,-7.68 -31.97,-8.29 -30.84,-8.79 -29.71,-9.29 -27.74,-8.75 -25.76,-8.21 -21.47,-7.03 -17.18,-5.85 -11.82,-4.81 -6.46,-3.77 -1.05,-2.97 4.35,-2.18 9.58,-1.82 14.81,-1.46 18.97,-1.28 23.14,-1.11 26.33,-0.78 29.51,-0.44 31.68,0.03 33.85,0.51 35.28,1.18 36.71,1.84 37.60,2.65 38.49,3.45 39.10,4.91 39.71,6.38 39.93,8.10 40.15,9.82 40.19,11.76 40.22,13.70 39.72,15.78 39.22,17.87 37.80,20.49 36.38,23.11 35.21,24.94 34.04,26.78 33.34,28.07 32.65,29.37 31.98,30.65 31.32,31.92 30.40,32.87 29.47,33.81 28.02,34.51 26.57,35.21 24.87,35.83 23.17,36.44 20.50,37.28 17.83,38.12 14.23,38.89 10.63,39.66 7.07,40.11 3.51,40.57 -1.35,40.74 -6.22,40.91 -11.88,39.25 -17.54,37.59 -22.08,34.92 -26.63,32.25 -29.16,29.62 -31.69,26.99 -32.99,25.16 -34.29,23.34 -34.91,21.01 -35.53,18.68 -35.79,16.80 -36.06,14.91 -34.71,12.99 -33.36,11.06 -28.29,9.97 -23.22,8.88 -18.77,8.38 -14.31,7.89 -11.25,7.68 -8.18,7.48 -5.30,7.29 -2.42,7.09 -0.34,6.89 1.73,6.68 2.84,6.39 3.94,6.09 5.21,6.31 6.49,6.54 7.09,8.72 7.70,10.90 7.35,12.27 7.00,13.64 6.26,15.50 5.52,17.37 4.86,21.01 4.21,24.65 3.47,32.52 2.72,40.39 2.38,46.80 2.04,53.21 1.88,59.28 1.72,65.34 1.64,69.69 1.56,74.04 1.51,76.16 1.46,78.29 2.04,79.33 2.61,80.36 2.59,80.56 2.56,80.76 2.49,80.95 2.41,81.14 2.30,81.30 2.18,81.47 2.03,81.60 1.88,81.73 1.70,81.82 1.52,81.91 1.32,81.96 1.13,82.00 0.93,82.00 0.73,82.00 0.53,81.95 0.34,81.90 0.16,81.80 -0.01,81.71 -0.16,81.57 -0.30,81.44 -0.42,81.27 -0.53,81.11 -0.60,80.92 -0.67,80.73 -0.69,80.53 -0.71,80.33 0.30,79.05 1.32,77.77 1.99,76.22 2.66,74.68 4.37,72.90 6.09,71.12 8.44,70.85 10.79,70.58 14.06,70.59 17.32,70.60 20.45,70.64 23.58,70.68 26.42,70.60 29.25,70.51 31.56,70.15 33.87,69.78 35.86,68.89 37.84,67.99 40.08,65.76 42.32,63.53 43.97,61.38 45.63,59.23 47.47,56.48 49.32,53.72 50.84,51.19 52.37,48.66 53.31,46.86 54.25,45.05 54.76,44.06 55.27,43.06 55.45,42.73 55.64,42.40 55.78,42.24 55.92,42.08 56.09,41.96 56.26,41.84 56.46,41.76 56.66,41.68 56.87,41.65 57.08,41.62 57.29,41.64 57.50,41.67 57.70,41.74 57.90,41.81 58.07,41.93 58.25,42.04 58.39,42.20 58.53,42.36 58.64,42.54 58.74,42.73 58.79,42.93 58.84,43.14 58.85,43.35 58.85,43.56 58.80,43.77 58.76,43.97 58.66,44.16 58.57,44.35 59.05,46.22 59.54,48.09 59.51,49.17 59.48,50.26 59.54,51.34 59.60,52.42 59.55,52.71 59.50,53.00 59.38,53.28 59.26,53.55 59.08,53.79 58.90,54.03 58.67,54.21 58.44,54.40 58.17,54.53 57.90,54.65 57.60,54.71 57.31,54.77 57.01,54.76 56.72,54.74 56.43,54.66 56.14,54.57 55.89,54.42 55.63,54.27 55.42,54.07 55.20,53.86 55.04,53.61 54.89,53.35 54.79,53.07 54.70,52.79 54.68,52.49 54.65,52.19 54.83,50.49 55.01,48.80 55.04,46.76 55.07,44.72 55.25,42.62 55.44,40.53 54.74,37.52 54.03,34.52 52.31,30.09 50.59,25.66 48.49,22.10 46.38,18.54 43.94,15.96 41.49,13.37 39.26,12.34 37.02,11.32 35.11,10.85 33.20,10.38 30.46,11.00 27.72,11.63 24.70,12.28 21.68,12.93 19.09,13.32 16.49,13.72 13.97,13.89 11.45,14.06 9.13,13.50 6.81,12.95 5.39,12.44 3.96,11.93 2.35,10.00 0.73,8.08 -0.35,5.22 -1.44,2.37 -1.88,-0.25 -2.32,-2.88 -2.49,-5.22 -2.67,-7.56 -2.46,-9.49 -2.25,-11.42 -1.07,-13.32 0.10,-15.21 2.22,-16.90 4.34,-18.59 6.72,-20.21 9.10,-21.83 11.70,-23.83 14.30,-25.84 16.59,-27.72 18.88,-29.60 20.79,-31.33 22.70,-33.06 24.16,-34.47 25.62,-35.89 26.29,-36.88 26.96,-37.87 28.34,-38.68 29.71,-39.49 30.42,-38.43 31.13,-37.37 30.46,-35.58 29.78,-33.79 28.74,-32.36 27.71,-30.93 26.93,-29.91 26.15,-28.90 25.67,-28.17 25.19,-27.45 24.99,-27.24 24.78,-27.03 24.54,-26.87 24.29,-26.72 24.01,-26.63 23.74,-26.53 23.45,-26.51 23.16,-26.48 22.87,-26.53 22.58,-26.58 22.31,-26.69 22.04,-26.81 21.81,-26.98 21.57,-27.16 21.39,-27.38 21.20,-27.61 21.08,-27.87 20.95,-28.13 20.89,-28.42 20.84,-28.71 20.85,-29.00 20.86,-29.29 20.94,-29.57 21.02,-29.85 21.17,-30.10 21.31,-30.36 23.73,-31.79 26.14,-33.22 29.41,-33.52 32.68,-33.82 39.06,-33.87 45.45,-33.92 50.79,-33.05 56.12,-32.19 60.28,-31.28 64.43,-30.36 68.53,-29.26 72.64,-28.15 75.74,-26.95 78.83,-25.74 80.44,-24.69 82.05,-23.64 82.95,-22.07 83.85,-20.50 83.94,-18.40 84.02,-16.29 83.38,-14.24 82.75,-12.19 81.69,-10.33 80.63,-8.47 79.72,-7.04 78.81,-5.60 78.05,-4.52 77.29,-3.43 76.51,-2.64 75.73,-1.85 74.61,-1.03 73.49,-0.21 71.97,0.37 70.44,0.96 68.85,1.37 67.27,1.77 65.93,1.96 64.60,2.15 63.45,1.85 62.30,1.55 60.96,0.02 59.62,-1.50 58.37,-3.58 57.12,-5.66 55.92,-6.99 54.72,-8.32 53.20,-9.49 51.68,-10.65 49.95,-11.53 48.21,-12.41 46.55,-12.74 44.89,-13.07 43.31,-13.19 41.72,-13.31 40.60,-13.30 39.48,-13.29 38.88,-11.12 38.28,-8.94 38.18,-7.76 38.08,-6.58 37.61,-4.16 37.13,-1.73 36.74,1.78 36.35,5.31 35.98,10.36 35.61,15.41 35.42,21.63 35.24,27.86 35.14,32.87 35.04,37.88 34.99,41.94 34.93,46.01 34.99,48.59 35.06,51.17 37.06,52.16 39.06,53.15 44.07,52.26 49.09,51.37 57.72,50.79 66.35,50.22 74.46,49.98 82.57,49.75 88.52,49.98 94.46,50.22 98.82,51.13 103.17,52.05 105.90,53.16 108.63,54.28 110.17,55.39 111.71,56.50 112.56,57.80 113.41,59.10 113.43,60.53 113.46,61.96 111.76,63.79 110.05,65.61 105.32,68.66 100.58,71.70 96.80,73.52 93.01,75.34 90.57,76.33 88.13,77.32 85.24,77.90 82.35,78.49 79.54,78.56 76.73,78.64 74.31,76.77 71.89,74.89 69.55,71.76 67.21,68.63 64.29,64.71 61.37,60.80 57.82,56.70 54.28,52.60 51.31,49.64 48.35,46.68 45.36,44.50 42.37,42.32 39.44,41.06 36.51,39.81 33.80,39.29 31.09,38.76 29.12,38.55 27.15,38.34 24.54,38.78 21.94,39.21 18.90,40.16 15.87,41.10 13.16,41.88 10.45,42.67 8.24,43.24 6.03,43.80 4.30,44.14 2.56,44.47 1.20,44.69 -0.15,44.90 -1.29,45.04 -2.42,45.18 -4.40,44.56 -6.38,43.94 -8.14,43.11 -9.90,42.27 -11.89,41.10 -13.87,39.92 -15.33,38.92 -16.80,37.92 -17.80,37.13 -18.79,36.34 -19.59,35.49 -20.39,34.63 -20.73,33.26 -21.07,31.88 -21.11,30.54 -21.14,29.19 -21.00,26.86 -20.86,24.53 -20.45,21.09 -20.05,17.66 -19.16,12.51 -18.27,7.37 -17.37,3.52 -16.47,-0.32 -15.55,-3.79 -14.63,-7.26 -13.73,-10.13 -12.82,-12.99 -12.17,-14.79 -11.51,-16.59 -10.79,-18.09 -10.08,-19.59 -9.99,-19.66 -9.91,-19.73 -9.74,-19.90 -9.58,-20.06 -9.37,-20.19 -9.17,-20.31 -8.94,-20.38 -8.72,-20.45 -8.48,-20.46 -8.24,-20.47 -8.01,-20.43 -7.78,-20.39 -7.56,-20.29 -7.35,-20.19 -7.16,-20.04 -6.97,-19.90 -6.83,-19.71 -6.68,-19.52 -6.59,-19.31 -6.49,-19.09 -6.45,-18.86 -6.41,-18.62 -6.42,-18.39 -6.44,-18.15 -6.51,-17.92 -6.58,-17.70 -6.70,-17.50 -6.83,-17.29 -4.78,-16.39 -2.74,-15.49 -0.47,-13.38 1.80,-11.28 6.57,-6.93 11.33,-2.58 16.53,2.61 21.73,7.82 25.98,12.23 30.23,16.64 34.14,20.92 38.04,25.20 40.24,27.69 42.44,30.18 43.60,31.33 44.76,32.49 45.96,33.33 47.15,34.17 47.29,34.36 47.43,34.55 47.51,34.76 47.60,34.98 47.64,35.21 47.67,35.44 47.65,35.67 47.62,35.90 47.55,36.12 47.47,36.34 47.34,36.54 47.21,36.73 47.04,36.89 46.87,37.05 46.67,37.16 46.47,37.28 46.24,37.34 46.02,37.40 45.78,37.41 45.55,37.41 45.32,37.36 45.09,37.31 44.88,37.21 44.68,37.10 44.50,36.95 44.32,36.80 44.58,34.99 44.83,33.17 45.08,32.05 45.33,30.93 45.66,29.78 45.99,28.63 47.09,26.67 48.18,24.71 49.51,23.15 50.85,21.59 52.29,20.58 53.73,19.56 55.40,19.05 57.07,18.54 59.47,18.99 61.87,19.43 63.58,20.24 65.29,21.06 66.91,22.52 68.53,23.98 69.90,25.60 71.28,27.22 72.29,28.87 73.30,30.53 73.91,32.24 74.52,33.96 74.45,36.43 74.38,38.91 73.07,41.18 71.76,43.45 68.53,45.71 65.29,47.96 61.02,49.51 56.75,51.06 53.28,51.87 49.80,52.67 46.32,53.01 42.83,53.34 39.42,53.48 36.00,53.61 33.62,53.56 31.24,53.52 29.88,53.61 28.51,53.71 28.68,54.95 28.85,56.18 28.56,57.85 28.27,59.53 27.34,60.83 26.42,62.13 24.54,62.32 22.66,62.50 20.76,60.40 18.86,58.30 16.48,53.51 14.10,48.73 11.69,43.58 9.27,38.43 7.32,34.31 5.37,30.19 3.68,27.18 1.99,24.17 0.80,22.50 -0.37,20.83 -1.51,19.98 -2.65,19.13 -1.42,18.69 -0.19,18.24 -0.21,19.59 -0.23,20.95 -0.21,22.03 -0.19,23.12 -0.35,24.90 -0.52,26.68 -0.78,28.71 -1.04,30.73 -1.11,32.44 -1.19,34.14 -1.16,35.35 -1.12,36.57 -0.97,37.39 -0.83,38.21 -0.86,38.49 -0.90,38.77 -1.01,39.03 -1.11,39.29 -1.28,39.52 -1.44,39.75 -1.66,39.94 -1.87,40.12 -2.13,40.25 -2.38,40.37 -2.65,40.44 -2.93,40.50 -3.21,40.50 -3.49,40.49 -3.77,40.42 -4.04,40.35 -4.29,40.21 -4.54,40.07 -4.75,39.88 -4.95,39.69 -5.11,39.46 -5.27,39.22 -5.36,38.95 -5.46,38.69 -5.49,38.41 -5.52,38.13 -4.34,36.33 -3.16,34.53 -2.50,33.43 -1.84,32.33 -0.30,30.07 1.22,27.81 2.48,25.85 3.75,23.88 4.38,22.69 5.02,21.51 3.72,23.52 2.43,25.53 1.25,26.62 0.07,27.71 -1.09,28.99 -2.26,30.26 -3.72,31.88 -5.17,33.49 -6.53,35.11 -7.89,36.72 -9.42,39.27 -10.95,41.81 -11.97,44.06 -13.00,46.31 -13.80,48.30 -14.61,50.29 -15.11,52.01 -15.62,53.73 -15.96,54.92 -16.30,56.11 -17.44,56.03 -18.59,55.96 -17.13,54.85 -15.67,53.73 -11.91,52.96 -8.14,52.19 -4.18,51.94 -0.22,51.69 3.57,51.62 7.37,51.55 11.12,51.54 14.86,51.53 18.01,51.55 21.16,51.56 23.69,51.58 26.22,51.60 28.29,51.49 30.36,51.39 31.98,50.87 33.60,50.36 34.98,49.69 36.36,49.03 37.31,48.26 38.26,47.49 39.01,46.67 39.75,45.86 40.58,44.59 41.41,43.32 43.59,40.61 45.77,37.90 48.51,34.83 51.25,31.76 53.95,29.35 56.64,26.95 59.24,25.00 61.84,23.04 63.90,21.94 65.95,20.84 67.34,20.24 68.73,19.64 70.69,19.75 72.65,19.85 73.41,20.88 74.16,21.90 74.50,22.97 74.84,24.03 73.65,24.12 72.47,24.22 74.12,22.52 75.76,20.83 77.81,20.44 79.86,20.06 82.18,20.13 84.50,20.21 86.55,20.39 88.61,20.56 89.97,20.67 91.32,20.77 92.71,20.91 94.09,21.05 95.64,21.03 97.18,21.01 96.79,18.86 96.40,16.71 96.40,15.05 96.39,13.39 95.93,12.05 95.48,10.72 94.47,9.45 93.45,8.19 92.14,7.36 90.82,6.52 89.40,6.20 87.97,5.88 86.63,5.75 85.28,5.63 83.96,6.44 82.64,7.25 81.68,8.94 80.72,10.62 80.18,11.69 79.64,12.76 79.12,13.83 78.60,14.90 78.03,15.80 77.46,16.70 76.67,17.47 75.88,18.24 74.34,19.02 72.80,19.79 69.94,19.72 67.08,19.65 64.67,18.75 62.27,17.84 59.74,16.62 57.22,15.39 55.50,14.47 53.78,13.54 52.71,12.88 51.63,12.22 50.64,10.26 49.66,8.31 50.13,7.04 50.60,5.77 51.25,4.24 51.89,2.72 52.00,1.09 52.11,-0.53 52.14,-2.34 52.17,-4.15 52.25,-4.59 52.33,-5.04 52.55,-5.44 52.76,-5.83 53.09,-6.14 53.42,-6.45 53.84,-6.63 54.25,-6.82 54.70,-6.86 55.15,-6.91 55.59,-6.81 56.03,-6.71 56.41,-6.47 56.80,-6.23 57.09,-5.88 57.38,-5.54 57.54,-5.11 57.70,-4.69 57.72,-4.24 57.74,-3.79 57.62,-3.35 57.49,-2.92 57.24,-2.55 56.98,-2.18 56.62,-1.91 56.25,-1.64 55.82,-1.50 55.39,-1.36 54.94,-1.36 54.49,-1.37 54.06,-1.51 53.63,-1.66 53.28,-1.94 52.92,-2.22 52.67,-2.60 52.42,-2.97 52.30,-3.41 52.19,-3.85 52.22,-4.30 52.25,-4.75 52.42,-5.17 52.59,-5.58 52.89,-5.93 53.18,-6.27 53.57,-6.50 53.96,-6.73 54.40,-6.82 54.85,-6.91 55.30,-6.86 55.74,-6.80 56.15,-6.61 56.56,-6.42 56.89,-6.10 57.21,-5.79 57.42,-5.39 57.63,-4.98 57.70,-4.54 57.76,-4.09 57.76,-4.09 57.76,-4.09 57.57,-1.05 57.38,1.98 57.12,3.29 56.85,4.60 55.44,6.35 54.03,8.11 54.82,9.03 55.62,9.96 57.25,10.75 58.88,11.53 61.29,12.42 63.70,13.31 65.56,13.75 67.43,14.20 69.91,14.13 72.39,14.05 73.21,13.30 74.04,12.55 74.61,11.48 75.19,10.41 75.80,9.31 76.41,8.21 77.17,6.93 77.93,5.65 78.92,4.56 79.90,3.46 81.31,2.63 82.72,1.79 84.23,1.60 85.73,1.41 87.34,1.64 88.96,1.87 90.97,2.40 92.99,2.93 94.88,4.09 96.78,5.26 98.42,7.09 100.06,8.91 100.85,10.95 101.64,12.99 101.85,14.88 102.07,16.77 102.00,19.08 101.94,21.38 101.70,22.44 101.46,23.51 100.77,24.43 100.09,25.36 98.53,25.73 96.97,26.09 95.26,25.88 93.55,25.67 92.18,25.49 90.81,25.30 89.62,25.12 88.43,24.94 86.56,24.95 84.70,24.97 81.72,25.27 78.75,25.56 77.92,26.31 77.09,27.05 75.23,28.06 73.37,29.07 72.11,28.25 70.86,27.43 70.60,26.20 70.34,24.97 70.08,23.88 69.81,22.78 68.58,23.09 67.34,23.39 65.50,24.41 63.67,25.44 61.22,27.36 58.77,29.28 56.28,31.61 53.78,33.95 51.21,37.02 48.64,40.09 46.67,42.82 44.70,45.56 43.59,47.15 42.47,48.75 41.40,49.63 40.32,50.51 38.99,51.29 37.66,52.08 36.04,52.68 34.42,53.29 32.48,53.76 30.54,54.24 28.39,54.38 26.23,54.53 23.71,54.57 21.19,54.61 18.05,54.67 14.92,54.74 11.21,54.85 7.50,54.96 3.79,55.17 0.08,55.38 -3.57,55.79 -7.24,56.19 -10.31,56.97 -13.38,57.74 -14.57,58.43 -15.75,59.12 -17.08,59.57 -18.42,60.01 -19.47,58.73 -20.52,57.44 -20.08,56.14 -19.63,54.84 -19.13,53.80 -18.62,52.77 -18.01,50.99 -17.40,49.21 -16.63,47.14 -15.87,45.06 -14.85,42.61 -13.82,40.16 -12.27,37.35 -10.72,34.54 -9.47,32.78 -8.21,31.03 -6.90,29.22 -5.58,27.40 -4.34,25.88 -3.10,24.36 -1.90,23.20 -0.70,22.04 0.77,20.59 2.25,19.15 3.74,18.23 5.23,17.31 6.54,17.20 7.85,17.10 8.93,18.32 10.01,19.55 9.25,21.57 8.48,23.58 7.74,24.68 7.00,25.78 5.90,27.88 4.80,29.99 3.48,32.42 2.16,34.85 0.66,36.53 -0.83,38.21 -0.86,38.49 -0.90,38.77 -1.01,39.03 -1.11,39.29 -1.28,39.52 -1.44,39.75 -1.66,39.94 -1.87,40.12 -2.12,40.25 -2.38,40.37 -2.65,40.44 -2.93,40.50 -3.21,40.50 -3.49,40.49 -3.77,40.42 -4.04,40.35 -4.29,40.21 -4.54,40.07 -4.75,39.88 -4.95,39.69 -5.11,39.46 -5.27,39.22 -5.36,38.95 -5.46,38.69 -5.49,38.41 -5.52,38.13 -5.49,37.30 -5.46,36.47 -5.37,35.22 -5.28,33.98 -5.22,32.20 -5.16,30.41 -5.10,28.38 -5.04,26.36 -4.96,24.67 -4.87,22.98 -4.79,21.82 -4.70,20.66 -4.18,18.64 -3.66,16.61 -1.46,16.85 0.73,17.09 1.41,18.04 2.10,18.99 3.45,20.76 4.81,22.52 6.65,25.58 8.50,28.64 10.60,32.69 12.70,36.74 15.28,41.75 17.86,46.75 20.25,51.02 22.63,55.29 22.87,56.71 23.11,58.14 23.66,57.12 24.20,56.11 24.36,54.88 24.52,53.64 25.10,52.42 25.69,51.20 27.12,50.87 28.55,50.53 29.92,50.66 31.29,50.79 33.58,50.83 35.88,50.86 39.22,50.70 42.55,50.55 45.85,50.21 49.15,49.87 52.44,49.07 55.73,48.27 59.64,46.83 63.55,45.39 66.29,43.54 69.03,41.68 69.98,40.16 70.92,38.64 70.88,36.86 70.84,35.07 70.47,33.73 70.10,32.39 69.32,31.01 68.54,29.63 67.25,28.25 65.96,26.86 64.68,25.75 63.40,24.63 62.25,23.96 61.10,23.30 58.49,23.17 55.88,23.04 54.82,23.62 53.77,24.20 52.74,25.36 51.72,26.52 50.93,28.30 50.15,30.08 49.73,31.10 49.30,32.12 48.23,33.14 47.15,34.17 47.29,34.36 47.43,34.55 47.51,34.76 47.60,34.98 47.64,35.21 47.67,35.44 47.65,35.67 47.62,35.90 47.55,36.12 47.47,36.34 47.34,36.54 47.21,36.73 47.04,36.89 46.87,37.05 46.67,37.16 46.47,37.28 46.24,37.34 46.02,37.40 45.78,37.41 45.55,37.41 45.32,37.36 45.09,37.31 44.88,37.21 44.68,37.10 44.50,36.95 44.32,36.80 43.38,35.70 42.45,34.59 41.40,33.31 40.35,32.04 38.15,29.59 35.94,27.14 32.03,22.92 28.12,18.70 23.85,14.35 19.57,10.00 14.37,4.91 9.18,-0.18 4.35,-4.43 -0.47,-8.68 -2.82,-10.65 -5.16,-12.61 -7.28,-14.35 -9.41,-16.08 -9.66,-17.91 -9.91,-19.73 -9.74,-19.90 -9.58,-20.06 -9.37,-20.19 -9.17,-20.31 -8.94,-20.38 -8.72,-20.45 -8.48,-20.46 -8.24,-20.47 -8.01,-20.43 -7.78,-20.39 -7.56,-20.29 -7.35,-20.19 -7.16,-20.04 -6.97,-19.90 -6.83,-19.71 -6.68,-19.52 -6.59,-19.31 -6.49,-19.09 -6.45,-18.86 -6.41,-18.62 -6.42,-18.39 -6.44,-18.15 -6.51,-17.92 -6.58,-17.70 -6.70,-17.50 -6.82,-17.29 -6.98,-17.22 -7.13,-17.15 -7.87,-16.31 -8.60,-15.46 -9.29,-13.80 -9.98,-12.13 -10.80,-9.32 -11.62,-6.50 -12.44,-3.06 -13.26,0.38 -14.02,4.15 -14.78,7.92 -15.49,12.95 -16.20,17.99 -16.37,21.26 -16.55,24.52 -16.39,26.84 -16.24,29.15 -16.40,30.90 -16.56,32.66 -15.62,33.82 -14.68,34.99 -13.44,35.94 -12.20,36.89 -10.25,37.87 -8.31,38.86 -6.71,39.59 -5.12,40.33 -2.77,40.92 -0.41,41.51 0.86,41.51 2.14,41.52 3.76,41.38 5.37,41.23 7.54,40.67 9.70,40.11 12.39,39.33 15.08,38.54 18.29,37.55 21.51,36.55 24.47,36.10 27.44,35.64 29.52,35.91 31.60,36.17 34.57,36.77 37.55,37.38 40.74,38.77 43.93,40.16 47.08,42.47 50.23,44.78 53.27,47.81 56.31,50.84 59.92,55.01 63.53,59.17 66.47,63.09 69.41,67.00 71.55,69.89 73.69,72.78 75.40,74.39 77.11,75.99 79.44,75.81 81.77,75.63 84.37,75.09 86.97,74.54 89.29,73.52 91.61,72.50 95.17,70.70 98.74,68.89 103.13,65.94 107.53,62.99 108.71,62.01 109.90,61.03 109.82,59.90 109.74,58.78 108.66,57.77 107.58,56.76 105.09,55.74 102.60,54.72 98.48,53.85 94.35,52.99 88.51,52.78 82.66,52.57 74.61,52.84 66.56,53.11 58.08,53.72 49.60,54.33 44.06,55.28 38.52,56.23 36.11,55.59 33.69,54.94 32.93,53.14 32.18,51.33 32.06,48.66 31.94,45.99 31.92,41.92 31.91,37.85 31.92,32.82 31.92,27.79 31.98,21.50 32.04,15.21 32.24,10.11 32.44,5.00 32.61,1.34 32.78,-2.31 32.94,-4.70 33.10,-7.09 33.27,-8.59 33.45,-10.10 33.80,-11.52 34.15,-12.94 34.65,-14.06 35.15,-15.19 36.18,-16.05 37.20,-16.92 38.41,-17.17 39.62,-17.43 40.85,-17.29 42.08,-17.15 43.85,-16.96 45.62,-16.77 47.69,-16.37 49.77,-15.97 51.92,-15.13 54.08,-14.28 56.10,-13.10 58.12,-11.91 59.90,-10.42 61.67,-8.93 62.82,-7.44 63.96,-5.95 65.06,-4.82 66.15,-3.69 67.65,-3.92 69.15,-4.15 70.61,-4.41 72.07,-4.67 73.13,-5.30 74.18,-5.93 74.97,-6.79 75.76,-7.65 76.68,-8.92 77.59,-10.19 78.46,-11.76 79.33,-13.32 79.86,-14.84 80.39,-16.36 80.22,-18.78 80.05,-21.20 78.91,-22.11 77.76,-23.01 74.82,-24.10 71.87,-25.20 67.82,-26.21 63.77,-27.22 59.69,-28.00 55.61,-28.79 50.57,-29.49 45.52,-30.19 39.34,-29.95 33.15,-29.72 30.62,-29.36 28.09,-29.00 26.64,-28.23 25.19,-27.45 24.99,-27.24 24.79,-27.03 24.54,-26.87 24.29,-26.72 24.02,-26.63 23.74,-26.53 23.45,-26.51 23.16,-26.48 22.87,-26.53 22.58,-26.58 22.31,-26.69 22.04,-26.81 21.81,-26.98 21.57,-27.16 21.39,-27.38 21.20,-27.61 21.08,-27.87 20.95,-28.13 20.89,-28.42 20.84,-28.71 20.85,-29.00 20.86,-29.29 20.94,-29.57 21.02,-29.85 21.17,-30.10 21.31,-30.36 22.02,-31.07 22.73,-31.78 23.51,-32.61 24.29,-33.45 25.18,-34.63 26.08,-35.82 26.97,-37.06 27.86,-38.30 28.66,-37.04 29.45,-35.79 28.49,-34.83 27.53,-33.88 26.03,-32.47 24.53,-31.05 22.58,-29.26 20.64,-27.47 18.33,-25.55 16.03,-23.62 13.38,-21.54 10.74,-19.45 8.47,-17.86 6.20,-16.27 4.43,-14.84 2.65,-13.42 1.67,-12.14 0.69,-10.86 0.39,-9.31 0.09,-7.76 0.27,-5.56 0.46,-3.35 0.87,-0.99 1.28,1.35 2.19,3.78 3.10,6.22 4.24,7.68 5.38,9.14 6.42,9.74 7.47,10.34 9.38,10.85 11.30,11.35 13.69,11.18 16.07,11.00 18.57,10.60 21.08,10.20 24.10,9.52 27.12,8.83 30.43,8.17 33.75,7.51 36.02,8.02 38.30,8.53 41.03,9.80 43.75,11.08 46.54,13.90 49.32,16.72 51.70,20.47 54.07,24.22 56.07,28.83 58.06,33.43 59.11,36.97 60.16,40.51 60.27,43.74 60.39,46.97 60.30,48.26 60.20,49.54 59.90,50.98 59.60,52.42 59.55,52.71 59.50,53.00 59.38,53.28 59.26,53.55 59.08,53.79 58.90,54.03 58.67,54.21 58.44,54.40 58.17,54.53 57.90,54.65 57.60,54.71 57.31,54.77 57.01,54.76 56.72,54.74 56.43,54.66 56.14,54.57 55.89,54.42 55.63,54.27 55.42,54.07 55.20,53.86 55.04,53.61 54.89,53.35 54.79,53.07 54.70,52.79 54.68,52.49 54.65,52.19 54.73,51.73 54.81,51.26 55.08,49.71 55.34,48.15 55.48,46.36 55.63,44.57 55.64,43.49 55.64,42.40 55.78,42.24 55.92,42.08 56.09,41.96 56.26,41.84 56.46,41.76 56.66,41.68 56.87,41.65 57.08,41.62 57.29,41.64 57.50,41.67 57.70,41.74 57.90,41.81 58.07,41.93 58.25,42.04 58.39,42.20 58.53,42.36 58.64,42.54 58.74,42.73 58.79,42.93 58.84,43.14 58.85,43.35 58.85,43.56 58.80,43.77 58.76,43.97 58.66,44.16 58.57,44.35 57.62,45.34 56.68,46.33 55.69,48.20 54.70,50.06 53.16,52.65 51.62,55.24 49.74,58.09 47.86,60.94 46.10,63.26 44.34,65.58 41.73,68.12 39.13,70.65 36.78,71.74 34.43,72.82 31.93,73.30 29.42,73.78 26.52,73.99 23.63,74.19 20.53,74.31 17.43,74.44 14.36,74.63 11.28,74.83 9.17,75.12 7.07,75.40 6.18,76.65 5.30,77.89 3.96,79.13 2.61,80.36 2.59,80.56 2.56,80.76 2.49,80.95 2.41,81.14 2.30,81.30 2.18,81.46 2.03,81.60 1.88,81.73 1.70,81.82 1.52,81.91 1.32,81.96 1.13,82.00 0.93,82.00 0.73,82.00 0.53,81.95 0.34,81.90 0.16,81.80 -0.01,81.71 -0.16,81.57 -0.30,81.44 -0.42,81.27 -0.53,81.11 -0.60,80.92 -0.67,80.73 -0.69,80.53 -0.71,80.33 -1.04,79.35 -1.37,78.37 -1.37,76.19 -1.38,74.00 -1.35,69.64 -1.33,65.28 -1.25,59.18 -1.17,53.07 -0.93,46.58 -0.70,40.09 -0.09,32.08 0.51,24.07 1.05,20.04 1.59,16.01 2.16,14.15 2.72,12.30 3.58,10.80 4.44,9.30 3.23,9.36 2.01,9.43 -0.10,9.65 -2.21,9.87 -5.09,10.10 -7.97,10.32 -10.97,10.56 -13.97,10.80 -18.31,11.34 -22.64,11.87 -26.98,12.61 -31.31,13.34 -32.27,14.28 -33.22,15.23 -33.05,16.63 -32.87,18.02 -32.43,19.90 -32.00,21.78 -30.82,23.41 -29.64,25.03 -27.39,27.39 -25.14,29.75 -20.90,32.22 -16.66,34.69 -11.48,36.21 -6.31,37.74 -1.64,37.48 3.02,37.22 6.40,36.66 9.78,36.10 13.12,35.21 16.45,34.31 19.00,33.25 21.54,32.20 23.06,31.58 24.57,30.96 26.16,30.29 27.74,29.62 28.65,28.56 29.56,27.50 30.38,26.29 31.21,25.07 32.22,23.28 33.23,21.48 34.34,19.21 35.45,16.93 35.84,15.36 36.22,13.80 36.12,12.02 36.02,10.24 35.94,8.89 35.85,7.55 35.43,6.11 35.02,4.67 34.11,3.99 33.21,3.31 31.22,2.91 29.23,2.51 26.14,2.24 23.04,1.98 18.83,1.89 14.62,1.80 9.25,1.55 3.89,1.30 -1.61,0.65 -7.11,0.01 -12.65,-0.84 -18.19,-1.69 -22.75,-2.65 -27.32,-3.62 -28.55,-3.99 -29.77,-4.36 -31.15,-4.07 -32.53,-3.77 -32.82,-2.70 -33.11,-1.63 -33.09,0.48 -33.08,2.59 -32.83,5.88 -32.58,9.17 -32.00,13.27 -31.43,17.36 -30.12,22.47 -28.80,27.59 -26.97,31.37 -25.15,35.15 -23.17,37.18 -21.18,39.21 -19.17,39.57 -17.16,39.93 -15.21,39.70 -13.27,39.47 -11.67,39.12 -10.07,38.76 -8.46,38.15 -6.85,37.53 -5.25,36.55 -3.66,35.57 -2.10,34.30 -0.55,33.03 0.81,31.87 2.17,30.71 3.20,29.88 4.22,29.05 5.23,27.74 6.24,26.43 7.23,25.18 8.23,23.93 9.91,23.57 11.59,23.20 13.35,23.11 15.12,23.01 16.40,23.10 17.67,23.19 19.28,23.27 20.89,23.34 23.65,23.33 26.41,23.31 29.61,23.34 32.80,23.38 34.92,23.25 37.04,23.12 40.09,22.96 43.15,22.79 45.33,22.58 47.50,22.37 49.01,22.29 50.52,22.22 51.76,22.25 53.00,22.28 54.46,22.31 55.92,22.34 57.40,22.73 58.88,23.12 59.53,21.90 60.18,20.67 60.66,19.61 61.13,18.54 61.72,17.20 62.31,15.86 62.89,14.55 63.47,13.24 64.33,11.90 65.19,10.56 63.98,10.50 62.77,10.44 61.07,10.45 59.37,10.46 57.13,10.60 54.88,10.74 52.80,10.89 50.72,11.03 48.09,10.71 45.46,10.39 44.28,9.10 43.11,7.81 43.14,7.47 43.17,7.13 43.28,6.81 43.39,6.49 43.57,6.21 43.75,5.92 44.00,5.69 44.24,5.46 44.54,5.29 44.83,5.12 45.16,5.03 45.48,4.94 45.82,4.93 46.16,4.92 46.49,4.99 46.82,5.06 47.13,5.21 47.43,5.35 47.69,5.57 47.95,5.78 48.15,6.06 48.35,6.33 48.48,6.64 48.61,6.95 48.67,7.29 48.72,7.62 48.68,8.39 48.63,9.16 48.79,10.56 48.95,11.96 49.16,13.43 49.36,14.90 49.73,16.82 50.10,18.74 50.48,20.44 50.86,22.14 51.33,23.72 51.81,25.30 52.22,27.59 52.64,29.88 52.63,31.85 52.62,33.83 52.39,35.85 52.16,37.87 51.71,38.97 51.26,40.07 50.53,40.92 49.81,41.77 47.94,42.32 46.08,42.87 44.85,42.79 43.61,42.71 42.40,42.64 41.19,42.57 40.10,42.43 39.02,42.30 37.55,42.14 36.09,41.99 34.86,41.70 33.63,41.42 32.42,41.15 31.21,40.88 29.54,40.48 27.86,40.07 26.26,39.88 24.65,39.68 23.43,39.67 22.21,39.66 21.00,39.64 19.79,39.63 20.79,38.92 21.78,38.21 22.10,39.24 22.41,40.27 22.78,39.21 23.16,38.15 23.38,36.49 23.59,34.83 23.66,33.74 23.74,32.64 23.85,31.47 23.96,30.29 24.03,28.96 24.10,27.63 24.39,25.59 24.68,23.55 24.84,22.31 24.99,21.07 25.29,20.05 25.58,19.03 25.95,17.97 26.31,16.92 27.18,14.93 28.04,12.94 28.57,11.66 29.09,10.38 29.58,9.26 30.07,8.14 30.79,6.45 31.50,4.76 31.63,3.24 31.75,1.72 32.75,2.26 33.74,2.79 32.63,2.78 31.51,2.76 30.41,2.77 29.31,2.77 27.86,2.83 26.41,2.89 24.75,3.00 23.09,3.12 21.63,3.20 20.18,3.29 18.67,2.74 17.16,2.20 17.74,0.74 18.31,-0.71 18.75,0.35 19.19,1.42 19.63,2.88 20.06,4.35 20.19,5.99 20.31,7.63 20.30,8.75 20.29,9.87 20.29,11.28 20.29,12.70 20.22,14.00 20.16,15.30 19.60,17.15 19.04,19.00 18.12,20.08 17.20,21.15 15.72,21.74 14.24,22.34 12.94,22.63 11.64,22.91 10.47,22.91 9.31,22.90 8.16,22.92 7.01,22.94 5.94,23.04 4.88,23.13 3.39,23.70 1.91,24.27 0.61,24.04 -0.68,23.82 -1.73,22.63 -2.78,21.45 -2.88,19.83 -2.97,18.21 -2.88,16.67 -2.79,15.14 -2.72,13.74 -2.64,12.34 -2.61,11.26 -2.58,10.19 -2.48,8.38 -2.38,6.56 -2.36,5.24 -2.33,3.92 -2.45,1.96 -2.56,0 -2.53,-0.30 -2.49,-0.61 -2.38,-0.90 -2.27,-1.19 -2.09,-1.44 -1.92,-1.70 -1.69,-1.90 -1.45,-2.11 -1.18,-2.25 -0.91,-2.40 -0.60,-2.47 -0.30,-2.54 0.00,-2.54 0.30,-2.54 0.61,-2.47 0.91,-2.40 1.18,-2.25 1.45,-2.11 1.69,-1.90 1.92,-1.70 2.09,-1.44 2.27,-1.19 2.38,-0.90 2.49,-0.61 2.53,-0.30 2.56,0.00 2.56,0.00 L 2.56,0 Z"></path></g><g stroke-linecap="round"><g transform="translate(380.8792775185343 125.64693396966527) rotate(0 41.759886092588374 -0.20487461569248921)"><path d="M0.73 1.2 C14.32 1.24, 68.07 0.55, 81.65 0.34 M-0.35 0.78 C13.6 0.43, 70.27 -1.68, 83.87 -1.61" stroke="#ffffff" stroke-width="1" fill="none"></path></g><g transform="translate(380.8792775185343 125.64693396966527) rotate(0 41.759886092588374 -0.20487461569248921)"><path d="M57.87 7.63 C65.09 5.04, 73.05 0.55, 85.09 -0.77 M55.88 8.47 C63.82 5.36, 74.14 2.44, 84.37 -2.22" stroke="#ffffff" stroke-width="1" fill="none"></path></g><g transform="translate(380.8792775185343 125.64693396966527) rotate(0 41.759886092588374 -0.20487461569248921)"><path d="M57.47 -12.88 C64.83 -9.14, 72.91 -7.28, 85.09 -0.77 M55.49 -12.05 C63.71 -8.57, 74.15 -4.92, 84.37 -2.22" stroke="#ffffff" stroke-width="1" fill="none"></path></g></g><mask></mask><g transform="translate(586.0536478236515 110.1379325966231) rotate(0 38.84505759270047 21.493620275426792)" stroke="none"><path fill="#ffffff" d="M 2.56,0 Q 2.56,0 2.45,1.96 2.33,3.92 2.36,5.24 2.38,6.56 2.48,8.38 2.58,10.19 2.61,11.26 2.64,12.34 2.72,13.74 2.79,15.14 2.88,16.67 2.97,18.21 3.75,17.38 4.54,16.55 6.17,16.38 7.80,16.22 9.15,16.19 10.50,16.15 12.06,15.73 13.62,15.32 13.42,13.93 13.22,12.54 13.24,11.19 13.26,9.83 13.25,8.72 13.25,7.62 13.03,6.53 12.82,5.45 12.38,4.11 11.93,2.77 11.66,1.60 11.39,0.43 12.15,-0.90 12.91,-2.24 14.44,-3.04 15.97,-3.85 18.06,-3.79 20.15,-3.73 21.62,-3.64 23.08,-3.56 24.74,-3.44 26.40,-3.33 27.85,-3.27 29.30,-3.22 30.41,-3.21 31.51,-3.21 32.84,-3.23 34.16,-3.24 35.22,-2.81 36.28,-2.38 37.13,-0.93 37.99,0.51 38.10,2.00 38.21,3.49 37.65,5.79 37.09,8.09 36.47,9.37 35.84,10.66 35.25,11.83 34.66,13.01 34.10,14.19 33.54,15.37 32.75,17.17 31.96,18.97 31.61,19.99 31.25,21.00 30.97,22.60 30.69,24.20 30.55,25.29 30.40,26.37 30.24,27.46 30.07,28.54 29.84,30.92 29.60,33.30 29.43,35.28 29.26,37.26 29.11,38.70 28.97,40.15 28.64,41.34 28.31,42.52 27.84,43.51 27.36,44.50 25.99,45.87 24.62,47.23 23.28,47.42 21.95,47.61 20.85,47.34 19.75,47.06 18.59,46.05 17.43,45.05 16.92,44.09 16.42,43.14 15.79,41.38 15.16,39.62 15.02,38.42 14.88,37.21 15.84,35.29 16.81,33.36 17.92,33.05 19.04,32.73 20.33,32.66 21.63,32.59 23.14,32.56 24.65,32.54 26.05,32.65 27.44,32.76 29.47,33.26 31.49,33.75 33.41,34.32 35.32,34.89 36.57,35.28 37.81,35.68 39.95,36.00 42.09,36.32 43.66,36.40 45.23,36.48 45.63,35.01 46.03,33.54 46.07,31.68 46.12,29.82 45.88,28.44 45.63,27.05 45.35,25.25 45.06,23.44 44.90,21.49 44.73,19.54 44.62,17.51 44.52,15.48 44.32,14.06 44.12,12.64 43.77,11.23 43.41,9.83 43.26,8.82 43.11,7.81 43.14,7.47 43.17,7.13 43.28,6.81 43.39,6.49 43.57,6.21 43.75,5.92 44.00,5.69 44.24,5.46 44.54,5.29 44.83,5.12 45.16,5.03 45.48,4.94 45.82,4.93 46.16,4.92 46.49,4.99 46.82,5.06 47.13,5.21 47.43,5.35 47.69,5.57 47.95,5.78 48.15,6.06 48.35,6.33 48.48,6.64 48.61,6.95 48.67,7.29 48.72,7.62 47.69,6.35 46.67,5.07 48.75,5.30 50.83,5.53 52.87,5.70 54.91,5.88 57.15,6.03 59.39,6.18 61.08,6.19 62.78,6.20 63.99,6.15 65.20,6.09 66.49,6.09 67.79,6.08 69.03,7.46 70.27,8.84 69.86,10.97 69.45,13.10 68.99,14.22 68.53,15.35 67.83,16.74 67.14,18.14 66.53,19.42 65.93,20.71 65.51,21.74 65.10,22.77 64.51,24.19 63.92,25.61 62.45,26.80 60.99,28.00 59.36,28.20 57.74,28.40 56.01,28.45 54.28,28.49 53.11,28.53 51.94,28.57 49.72,28.51 47.50,28.45 45.33,28.24 43.15,28.03 40.09,27.87 37.04,27.70 34.92,27.57 32.80,27.45 29.53,27.22 26.27,26.99 23.54,26.87 20.82,26.74 19.22,26.77 17.62,26.80 16.35,26.87 15.09,26.94 13.56,27.60 12.03,28.26 10.96,28.47 9.90,28.69 10.38,29.76 10.86,30.83 9.49,32.19 8.12,33.56 6.90,34.44 5.68,35.32 4.17,36.32 2.67,37.32 0.86,38.39 -0.95,39.47 -2.86,40.41 -4.78,41.34 -6.74,41.99 -8.69,42.65 -10.55,43.05 -12.41,43.44 -14.66,43.53 -16.92,43.62 -19.53,43.01 -22.15,42.41 -24.79,39.89 -27.43,37.38 -29.49,33.14 -31.54,28.90 -32.91,23.49 -34.27,18.08 -34.83,13.82 -35.40,9.55 -35.63,6.17 -35.86,2.79 -35.86,0.58 -35.85,-1.63 -35.79,-2.94 -35.73,-4.25 -34.94,-5.66 -34.15,-7.07 -33.06,-7.68 -31.97,-8.29 -30.84,-8.79 -29.71,-9.29 -27.74,-8.75 -25.76,-8.21 -21.47,-7.03 -17.18,-5.85 -11.82,-4.81 -6.46,-3.77 -1.05,-2.97 4.35,-2.18 9.58,-1.82 14.81,-1.46 18.97,-1.28 23.14,-1.11 26.33,-0.78 29.51,-0.44 31.68,0.03 33.85,0.51 35.28,1.18 36.71,1.84 37.60,2.65 38.49,3.45 39.10,4.91 39.71,6.38 39.93,8.10 40.15,9.82 40.19,11.76 40.22,13.70 39.72,15.78 39.22,17.87 37.80,20.49 36.38,23.11 35.21,24.94 34.04,26.78 33.34,28.07 32.65,29.37 31.98,30.65 31.32,31.92 30.40,32.87 29.47,33.81 28.02,34.51 26.57,35.21 24.87,35.83 23.17,36.44 20.50,37.28 17.83,38.12 14.23,38.89 10.63,39.66 7.07,40.11 3.51,40.57 -1.35,40.74 -6.22,40.91 -11.88,39.25 -17.54,37.59 -22.08,34.92 -26.63,32.25 -29.16,29.62 -31.69,26.99 -32.99,25.16 -34.29,23.34 -34.91,21.01 -35.53,18.68 -35.79,16.80 -36.06,14.91 -34.71,12.99 -33.36,11.06 -28.29,9.97 -23.22,8.88 -18.77,8.38 -14.31,7.89 -11.25,7.68 -8.18,7.48 -5.30,7.29 -2.42,7.09 -0.34,6.89 1.73,6.68 2.84,6.39 3.94,6.09 5.21,6.31 6.49,6.54 7.09,8.72 7.70,10.90 7.35,12.27 7.00,13.64 6.26,15.50 5.52,17.37 4.86,21.01 4.21,24.65 3.47,32.52 2.72,40.39 2.38,46.80 2.04,53.21 1.88,59.28 1.72,65.34 1.64,69.69 1.56,74.04 1.51,76.16 1.46,78.29 2.04,79.33 2.61,80.36 2.59,80.56 2.56,80.76 2.49,80.95 2.41,81.14 2.30,81.30 2.18,81.47 2.03,81.60 1.88,81.73 1.70,81.82 1.52,81.91 1.32,81.96 1.13,82.00 0.93,82.00 0.73,82.00 0.53,81.95 0.34,81.90 0.16,81.80 -0.01,81.71 -0.16,81.57 -0.30,81.44 -0.42,81.27 -0.53,81.11 -0.60,80.92 -0.67,80.73 -0.69,80.53 -0.71,80.33 0.30,79.05 1.32,77.77 1.99,76.22 2.66,74.68 4.37,72.90 6.09,71.12 8.44,70.85 10.79,70.58 14.06,70.59 17.32,70.60 20.45,70.64 23.58,70.68 26.42,70.60 29.25,70.51 31.56,70.15 33.87,69.78 35.86,68.89 37.84,67.99 40.08,65.76 42.32,63.53 43.97,61.38 45.63,59.23 47.47,56.48 49.32,53.72 50.84,51.19 52.37,48.66 53.31,46.86 54.25,45.05 54.76,44.06 55.27,43.06 55.45,42.73 55.64,42.40 55.78,42.24 55.92,42.08 56.09,41.96 56.26,41.84 56.46,41.76 56.66,41.68 56.87,41.65 57.08,41.62 57.29,41.64 57.50,41.67 57.70,41.74 57.90,41.81 58.07,41.93 58.25,42.04 58.39,42.20 58.53,42.36 58.64,42.54 58.74,42.73 58.79,42.93 58.84,43.14 58.85,43.35 58.85,43.56 58.80,43.77 58.76,43.97 58.66,44.16 58.57,44.35 59.05,46.22 59.54,48.09 59.51,49.17 59.48,50.26 59.54,51.34 59.60,52.42 59.55,52.71 59.50,53.00 59.38,53.28 59.26,53.55 59.08,53.79 58.90,54.03 58.67,54.21 58.44,54.40 58.17,54.53 57.90,54.65 57.60,54.71 57.31,54.77 57.01,54.76 56.72,54.74 56.43,54.66 56.14,54.57 55.89,54.42 55.63,54.27 55.42,54.07 55.20,53.86 55.04,53.61 54.89,53.35 54.79,53.07 54.70,52.79 54.68,52.49 54.65,52.19 54.83,50.49 55.01,48.80 55.04,46.76 55.07,44.72 55.25,42.62 55.44,40.53 54.74,37.52 54.03,34.52 52.31,30.09 50.59,25.66 48.49,22.10 46.38,18.54 43.94,15.96 41.49,13.37 39.26,12.34 37.02,11.32 35.11,10.85 33.20,10.38 30.46,11.00 27.72,11.63 24.70,12.28 21.68,12.93 19.09,13.32 16.49,13.72 13.97,13.89 11.45,14.06 9.13,13.50 6.81,12.95 5.39,12.44 3.96,11.93 2.35,10.00 0.73,8.08 -0.35,5.22 -1.44,2.37 -1.88,-0.25 -2.32,-2.88 -2.49,-5.22 -2.67,-7.56 -2.46,-9.49 -2.25,-11.42 -1.07,-13.32 0.10,-15.21 2.22,-16.90 4.34,-18.59 6.72,-20.21 9.10,-21.83 11.70,-23.83 14.30,-25.84 16.59,-27.72 18.88,-29.60 20.79,-31.33 22.70,-33.06 24.16,-34.47 25.62,-35.89 26.29,-36.88 26.96,-37.87 28.34,-38.68 29.71,-39.49 30.42,-38.43 31.13,-37.37 30.46,-35.58 29.78,-33.79 28.74,-32.36 27.71,-30.93 26.93,-29.91 26.15,-28.90 25.67,-28.17 25.19,-27.45 24.99,-27.24 24.78,-27.03 24.54,-26.87 24.29,-26.72 24.01,-26.63 23.74,-26.53 23.45,-26.51 23.16,-26.48 22.87,-26.53 22.58,-26.58 22.31,-26.69 22.04,-26.81 21.81,-26.98 21.57,-27.16 21.39,-27.38 21.20,-27.61 21.08,-27.87 20.95,-28.13 20.89,-28.42 20.84,-28.71 20.85,-29.00 20.86,-29.29 20.94,-29.57 21.02,-29.85 21.17,-30.10 21.31,-30.36 23.73,-31.79 26.14,-33.22 29.41,-33.52 32.68,-33.82 39.06,-33.87 45.45,-33.92 50.79,-33.05 56.12,-32.19 60.28,-31.28 64.43,-30.36 68.53,-29.26 72.64,-28.15 75.74,-26.95 78.83,-25.74 80.44,-24.69 82.05,-23.64 82.95,-22.07 83.85,-20.50 83.94,-18.40 84.02,-16.29 83.38,-14.24 82.75,-12.19 81.69,-10.33 80.63,-8.47 79.72,-7.04 78.81,-5.60 78.05,-4.52 77.29,-3.43 76.51,-2.64 75.73,-1.85 74.61,-1.03 73.49,-0.21 71.97,0.37 70.44,0.96 68.85,1.37 67.27,1.77 65.93,1.96 64.60,2.15 63.45,1.85 62.30,1.55 60.96,0.02 59.62,-1.50 58.37,-3.58 57.12,-5.66 55.92,-6.99 54.72,-8.32 53.20,-9.49 51.68,-10.65 49.95,-11.53 48.21,-12.41 46.55,-12.74 44.89,-13.07 43.31,-13.19 41.72,-13.31 40.60,-13.30 39.48,-13.29 38.88,-11.12 38.28,-8.94 38.18,-7.76 38.08,-6.58 37.61,-4.16 37.13,-1.73 36.74,1.78 36.35,5.31 35.98,10.36 35.61,15.41 35.42,21.63 35.24,27.86 35.14,32.87 35.04,37.88 34.99,41.94 34.93,46.01 34.99,48.59 35.06,51.17 37.06,52.16 39.06,53.15 44.07,52.26 49.09,51.37 57.72,50.79 66.35,50.22 74.46,49.98 82.57,49.75 88.52,49.98 94.46,50.22 98.82,51.13 103.17,52.05 105.90,53.16 108.63,54.28 110.17,55.39 111.71,56.50 112.56,57.80 113.41,59.10 113.43,60.53 113.46,61.96 111.76,63.79 110.05,65.61 105.32,68.66 100.58,71.70 96.80,73.52 93.01,75.34 90.57,76.33 88.13,77.32 85.24,77.90 82.35,78.49 79.54,78.56 76.73,78.64 74.31,76.77 71.89,74.89 69.55,71.76 67.21,68.63 64.29,64.71 61.37,60.80 57.82,56.70 54.28,52.60 51.31,49.64 48.35,46.68 45.36,44.50 42.37,42.32 39.44,41.06 36.51,39.81 33.80,39.29 31.09,38.76 29.12,38.55 27.15,38.34 24.54,38.78 21.94,39.21 18.90,40.16 15.87,41.10 13.16,41.88 10.45,42.67 8.24,43.24 6.03,43.80 4.30,44.14 2.56,44.47 1.20,44.69 -0.15,44.90 -1.29,45.04 -2.42,45.18 -4.40,44.56 -6.38,43.94 -8.14,43.11 -9.90,42.27 -11.89,41.10 -13.87,39.92 -15.33,38.92 -16.80,37.92 -17.80,37.13 -18.79,36.34 -19.59,35.49 -20.39,34.63 -20.73,33.26 -21.07,31.88 -21.11,30.54 -21.14,29.19 -21.00,26.86 -20.86,24.53 -20.45,21.09 -20.05,17.66 -19.16,12.51 -18.27,7.37 -17.37,3.52 -16.47,-0.32 -15.55,-3.79 -14.63,-7.26 -13.73,-10.13 -12.82,-12.99 -12.17,-14.79 -11.51,-16.59 -10.79,-18.09 -10.08,-19.59 -9.99,-19.66 -9.91,-19.73 -9.74,-19.90 -9.58,-20.06 -9.37,-20.19 -9.17,-20.31 -8.94,-20.38 -8.72,-20.45 -8.48,-20.46 -8.24,-20.47 -8.01,-20.43 -7.78,-20.39 -7.56,-20.29 -7.35,-20.19 -7.16,-20.04 -6.97,-19.90 -6.83,-19.71 -6.68,-19.52 -6.59,-19.31 -6.49,-19.09 -6.45,-18.86 -6.41,-18.62 -6.42,-18.39 -6.44,-18.15 -6.51,-17.92 -6.58,-17.70 -6.70,-17.50 -6.83,-17.29 -4.78,-16.39 -2.74,-15.49 -0.47,-13.38 1.80,-11.28 6.57,-6.93 11.33,-2.58 16.53,2.61 21.73,7.82 25.98,12.23 30.23,16.64 34.14,20.92 38.04,25.20 40.24,27.69 42.44,30.18 43.60,31.33 44.76,32.49 45.96,33.33 47.15,34.17 47.29,34.36 47.43,34.55 47.51,34.76 47.60,34.98 47.64,35.21 47.67,35.44 47.65,35.67 47.62,35.90 47.55,36.12 47.47,36.34 47.34,36.54 47.21,36.73 47.04,36.89 46.87,37.05 46.67,37.16 46.47,37.28 46.24,37.34 46.02,37.40 45.78,37.41 45.55,37.41 45.32,37.36 45.09,37.31 44.88,37.21 44.68,37.10 44.50,36.95 44.32,36.80 44.58,34.99 44.83,33.17 45.08,32.05 45.33,30.93 45.66,29.78 45.99,28.63 47.09,26.67 48.18,24.71 49.51,23.15 50.85,21.59 52.29,20.58 53.73,19.56 55.40,19.05 57.07,18.54 59.47,18.99 61.87,19.43 63.58,20.24 65.29,21.06 66.91,22.52 68.53,23.98 69.90,25.60 71.28,27.22 72.29,28.87 73.30,30.53 73.91,32.24 74.52,33.96 74.45,36.43 74.38,38.91 73.07,41.18 71.76,43.45 68.53,45.71 65.29,47.96 61.02,49.51 56.75,51.06 53.28,51.87 49.80,52.67 46.32,53.01 42.83,53.34 39.42,53.48 36.00,53.61 33.62,53.56 31.24,53.52 29.88,53.61 28.51,53.71 28.68,54.95 28.85,56.18 28.56,57.85 28.27,59.53 27.34,60.83 26.42,62.13 24.54,62.32 22.66,62.50 20.76,60.40 18.86,58.30 16.48,53.51 14.10,48.73 11.69,43.58 9.27,38.43 7.32,34.31 5.37,30.19 3.68,27.18 1.99,24.17 0.80,22.50 -0.37,20.83 -1.51,19.98 -2.65,19.13 -1.42,18.69 -0.19,18.24 -0.21,19.59 -0.23,20.95 -0.21,22.03 -0.19,23.12 -0.35,24.90 -0.52,26.68 -0.78,28.71 -1.04,30.73 -1.11,32.44 -1.19,34.14 -1.16,35.35 -1.12,36.57 -0.97,37.39 -0.83,38.21 -0.86,38.49 -0.90,38.77 -1.01,39.03 -1.11,39.29 -1.28,39.52 -1.44,39.75 -1.66,39.94 -1.87,40.12 -2.13,40.25 -2.38,40.37 -2.65,40.44 -2.93,40.50 -3.21,40.50 -3.49,40.49 -3.77,40.42 -4.04,40.35 -4.29,40.21 -4.54,40.07 -4.75,39.88 -4.95,39.69 -5.11,39.46 -5.27,39.22 -5.36,38.95 -5.46,38.69 -5.49,38.41 -5.52,38.13 -4.34,36.33 -3.16,34.53 -2.50,33.43 -1.84,32.33 -0.30,30.07 1.22,27.81 2.48,25.85 3.75,23.88 4.38,22.69 5.02,21.51 3.72,23.52 2.43,25.53 1.25,26.62 0.07,27.71 -1.09,28.99 -2.26,30.26 -3.72,31.88 -5.17,33.49 -6.53,35.11 -7.89,36.72 -9.42,39.27 -10.95,41.81 -11.97,44.06 -13.00,46.31 -13.80,48.30 -14.61,50.29 -15.11,52.01 -15.62,53.73 -15.96,54.92 -16.30,56.11 -17.44,56.03 -18.59,55.96 -17.13,54.85 -15.67,53.73 -11.91,52.96 -8.14,52.19 -4.18,51.94 -0.22,51.69 3.57,51.62 7.37,51.55 11.12,51.54 14.86,51.53 18.01,51.55 21.16,51.56 23.69,51.58 26.22,51.60 28.29,51.49 30.36,51.39 31.98,50.87 33.60,50.36 34.98,49.69 36.36,49.03 37.31,48.26 38.26,47.49 39.01,46.67 39.75,45.86 40.58,44.59 41.41,43.32 43.59,40.61 45.77,37.90 48.51,34.83 51.25,31.76 53.95,29.35 56.64,26.95 59.24,25.00 61.84,23.04 63.90,21.94 65.95,20.84 67.34,20.24 68.73,19.64 70.69,19.75 72.65,19.85 73.41,20.88 74.16,21.90 74.50,22.97 74.84,24.03 73.65,24.12 72.47,24.22 74.12,22.52 75.76,20.83 77.81,20.44 79.86,20.06 82.18,20.13 84.50,20.21 86.55,20.39 88.61,20.56 89.97,20.67 91.32,20.77 92.71,20.91 94.09,21.05 95.64,21.03 97.18,21.01 96.79,18.86 96.40,16.71 96.40,15.05 96.39,13.39 95.93,12.05 95.48,10.72 94.47,9.45 93.45,8.19 92.14,7.36 90.82,6.52 89.40,6.20 87.97,5.88 86.63,5.75 85.28,5.63 83.96,6.44 82.64,7.25 81.68,8.94 80.72,10.62 80.18,11.69 79.64,12.76 79.12,13.83 78.60,14.90 78.03,15.80 77.46,16.70 76.67,17.47 75.88,18.24 74.34,19.02 72.80,19.79 69.94,19.72 67.08,19.65 64.67,18.75 62.27,17.84 59.74,16.62 57.22,15.39 55.50,14.47 53.78,13.54 52.71,12.88 51.63,12.22 50.64,10.26 49.66,8.31 50.13,7.04 50.60,5.77 51.25,4.24 51.89,2.72 52.00,1.09 52.11,-0.53 52.14,-2.34 52.17,-4.15 52.25,-4.59 52.33,-5.04 52.55,-5.44 52.76,-5.83 53.09,-6.14 53.42,-6.45 53.84,-6.63 54.25,-6.82 54.70,-6.86 55.15,-6.91 55.59,-6.81 56.03,-6.71 56.41,-6.47 56.80,-6.23 57.09,-5.88 57.38,-5.54 57.54,-5.11 57.70,-4.69 57.72,-4.24 57.74,-3.79 57.62,-3.35 57.49,-2.92 57.24,-2.55 56.98,-2.18 56.62,-1.91 56.25,-1.64 55.82,-1.50 55.39,-1.36 54.94,-1.36 54.49,-1.37 54.06,-1.51 53.63,-1.66 53.28,-1.94 52.92,-2.22 52.67,-2.60 52.42,-2.97 52.30,-3.41 52.19,-3.85 52.22,-4.30 52.25,-4.75 52.42,-5.17 52.59,-5.58 52.89,-5.93 53.18,-6.27 53.57,-6.50 53.96,-6.73 54.40,-6.82 54.85,-6.91 55.30,-6.86 55.74,-6.80 56.15,-6.61 56.56,-6.42 56.89,-6.10 57.21,-5.79 57.42,-5.39 57.63,-4.98 57.70,-4.54 57.76,-4.09 57.76,-4.09 57.76,-4.09 57.57,-1.05 57.38,1.98 57.12,3.29 56.85,4.60 55.44,6.35 54.03,8.11 54.82,9.03 55.62,9.96 57.25,10.75 58.88,11.53 61.29,12.42 63.70,13.31 65.56,13.75 67.43,14.20 69.91,14.13 72.39,14.05 73.21,13.30 74.04,12.55 74.61,11.48 75.19,10.41 75.80,9.31 76.41,8.21 77.17,6.93 77.93,5.65 78.92,4.56 79.90,3.46 81.31,2.63 82.72,1.79 84.23,1.60 85.73,1.41 87.34,1.64 88.96,1.87 90.97,2.40 92.99,2.93 94.88,4.09 96.78,5.26 98.42,7.09 100.06,8.91 100.85,10.95 101.64,12.99 101.85,14.88 102.07,16.77 102.00,19.08 101.94,21.38 101.70,22.44 101.46,23.51 100.77,24.43 100.09,25.36 98.53,25.73 96.97,26.09 95.26,25.88 93.55,25.67 92.18,25.49 90.81,25.30 89.62,25.12 88.43,24.94 86.56,24.95 84.70,24.97 81.72,25.27 78.75,25.56 77.92,26.31 77.09,27.05 75.23,28.06 73.37,29.07 72.11,28.25 70.86,27.43 70.60,26.20 70.34,24.97 70.08,23.88 69.81,22.78 68.58,23.09 67.34,23.39 65.50,24.41 63.67,25.44 61.22,27.36 58.77,29.28 56.28,31.61 53.78,33.95 51.21,37.02 48.64,40.09 46.67,42.82 44.70,45.56 43.59,47.15 42.47,48.75 41.40,49.63 40.32,50.51 38.99,51.29 37.66,52.08 36.04,52.68 34.42,53.29 32.48,53.76 30.54,54.24 28.39,54.38 26.23,54.53 23.71,54.57 21.19,54.61 18.05,54.67 14.92,54.74 11.21,54.85 7.50,54.96 3.79,55.17 0.08,55.38 -3.57,55.79 -7.24,56.19 -10.31,56.97 -13.38,57.74 -14.57,58.43 -15.75,59.12 -17.08,59.57 -18.42,60.01 -19.47,58.73 -20.52,57.44 -20.08,56.14 -19.63,54.84 -19.13,53.80 -18.62,52.77 -18.01,50.99 -17.40,49.21 -16.63,47.14 -15.87,45.06 -14.85,42.61 -13.82,40.16 -12.27,37.35 -10.72,34.54 -9.47,32.78 -8.21,31.03 -6.90,29.22 -5.58,27.40 -4.34,25.88 -3.10,24.36 -1.90,23.20 -0.70,22.04 0.77,20.59 2.25,19.15 3.74,18.23 5.23,17.31 6.54,17.20 7.85,17.10 8.93,18.32 10.01,19.55 9.25,21.57 8.48,23.58 7.74,24.68 7.00,25.78 5.90,27.88 4.80,29.99 3.48,32.42 2.16,34.85 0.66,36.53 -0.83,38.21 -0.86,38.49 -0.90,38.77 -1.01,39.03 -1.11,39.29 -1.28,39.52 -1.44,39.75 -1.66,39.94 -1.87,40.12 -2.12,40.25 -2.38,40.37 -2.65,40.44 -2.93,40.50 -3.21,40.50 -3.49,40.49 -3.77,40.42 -4.04,40.35 -4.29,40.21 -4.54,40.07 -4.75,39.88 -4.95,39.69 -5.11,39.46 -5.27,39.22 -5.36,38.95 -5.46,38.69 -5.49,38.41 -5.52,38.13 -5.49,37.30 -5.46,36.47 -5.37,35.22 -5.28,33.98 -5.22,32.20 -5.16,30.41 -5.10,28.38 -5.04,26.36 -4.96,24.67 -4.87,22.98 -4.79,21.82 -4.70,20.66 -4.18,18.64 -3.66,16.61 -1.46,16.85 0.73,17.09 1.41,18.04 2.10,18.99 3.45,20.76 4.81,22.52 6.65,25.58 8.50,28.64 10.60,32.69 12.70,36.74 15.28,41.75 17.86,46.75 20.25,51.02 22.63,55.29 22.87,56.71 23.11,58.14 23.66,57.12 24.20,56.11 24.36,54.88 24.52,53.64 25.10,52.42 25.69,51.20 27.12,50.87 28.55,50.53 29.92,50.66 31.29,50.79 33.58,50.83 35.88,50.86 39.22,50.70 42.55,50.55 45.85,50.21 49.15,49.87 52.44,49.07 55.73,48.27 59.64,46.83 63.55,45.39 66.29,43.54 69.03,41.68 69.98,40.16 70.92,38.64 70.88,36.86 70.84,35.07 70.47,33.73 70.10,32.39 69.32,31.01 68.54,29.63 67.25,28.25 65.96,26.86 64.68,25.75 63.40,24.63 62.25,23.96 61.10,23.30 58.49,23.17 55.88,23.04 54.82,23.62 53.77,24.20 52.74,25.36 51.72,26.52 50.93,28.30 50.15,30.08 49.73,31.10 49.30,32.12 48.23,33.14 47.15,34.17 47.29,34.36 47.43,34.55 47.51,34.76 47.60,34.98 47.64,35.21 47.67,35.44 47.65,35.67 47.62,35.90 47.55,36.12 47.47,36.34 47.34,36.54 47.21,36.73 47.04,36.89 46.87,37.05 46.67,37.16 46.47,37.28 46.24,37.34 46.02,37.40 45.78,37.41 45.55,37.41 45.32,37.36 45.09,37.31 44.88,37.21 44.68,37.10 44.50,36.95 44.32,36.80 43.38,35.70 42.45,34.59 41.40,33.31 40.35,32.04 38.15,29.59 35.94,27.14 32.03,22.92 28.12,18.70 23.85,14.35 19.57,10.00 14.37,4.91 9.18,-0.18 4.35,-4.43 -0.47,-8.68 -2.82,-10.65 -5.16,-12.61 -7.28,-14.35 -9.41,-16.08 -9.66,-17.91 -9.91,-19.73 -9.74,-19.90 -9.58,-20.06 -9.37,-20.19 -9.17,-20.31 -8.94,-20.38 -8.72,-20.45 -8.48,-20.46 -8.24,-20.47 -8.01,-20.43 -7.78,-20.39 -7.56,-20.29 -7.35,-20.19 -7.16,-20.04 -6.97,-19.90 -6.83,-19.71 -6.68,-19.52 -6.59,-19.31 -6.49,-19.09 -6.45,-18.86 -6.41,-18.62 -6.42,-18.39 -6.44,-18.15 -6.51,-17.92 -6.58,-17.70 -6.70,-17.50 -6.82,-17.29 -6.98,-17.22 -7.13,-17.15 -7.87,-16.31 -8.60,-15.46 -9.29,-13.80 -9.98,-12.13 -10.80,-9.32 -11.62,-6.50 -12.44,-3.06 -13.26,0.38 -14.02,4.15 -14.78,7.92 -15.49,12.95 -16.20,17.99 -16.37,21.26 -16.55,24.52 -16.39,26.84 -16.24,29.15 -16.40,30.90 -16.56,32.66 -15.62,33.82 -14.68,34.99 -13.44,35.94 -12.20,36.89 -10.25,37.87 -8.31,38.86 -6.71,39.59 -5.12,40.33 -2.77,40.92 -0.41,41.51 0.86,41.51 2.14,41.52 3.76,41.38 5.37,41.23 7.54,40.67 9.70,40.11 12.39,39.33 15.08,38.54 18.29,37.55 21.51,36.55 24.47,36.10 27.44,35.64 29.52,35.91 31.60,36.17 34.57,36.77 37.55,37.38 40.74,38.77 43.93,40.16 47.08,42.47 50.23,44.78 53.27,47.81 56.31,50.84 59.92,55.01 63.53,59.17 66.47,63.09 69.41,67.00 71.55,69.89 73.69,72.78 75.40,74.39 77.11,75.99 79.44,75.81 81.77,75.63 84.37,75.09 86.97,74.54 89.29,73.52 91.61,72.50 95.17,70.70 98.74,68.89 103.13,65.94 107.53,62.99 108.71,62.01 109.90,61.03 109.82,59.90 109.74,58.78 108.66,57.77 107.58,56.76 105.09,55.74 102.60,54.72 98.48,53.85 94.35,52.99 88.51,52.78 82.66,52.57 74.61,52.84 66.56,53.11 58.08,53.72 49.60,54.33 44.06,55.28 38.52,56.23 36.11,55.59 33.69,54.94 32.93,53.14 32.18,51.33 32.06,48.66 31.94,45.99 31.92,41.92 31.91,37.85 31.92,32.82 31.92,27.79 31.98,21.50 32.04,15.21 32.24,10.11 32.44,5.00 32.61,1.34 32.78,-2.31 32.94,-4.70 33.10,-7.09 33.27,-8.59 33.45,-10.10 33.80,-11.52 34.15,-12.94 34.65,-14.06 35.15,-15.19 36.18,-16.05 37.20,-16.92 38.41,-17.17 39.62,-17.43 40.85,-17.29 42.08,-17.15 43.85,-16.96 45.62,-16.77 47.69,-16.37 49.77,-15.97 51.92,-15.13 54.08,-14.28 56.10,-13.10 58.12,-11.91 59.90,-10.42 61.67,-8.93 62.82,-7.44 63.96,-5.95 65.06,-4.82 66.15,-3.69 67.65,-3.92 69.15,-4.15 70.61,-4.41 72.07,-4.67 73.13,-5.30 74.18,-5.93 74.97,-6.79 75.76,-7.65 76.68,-8.92 77.59,-10.19 78.46,-11.76 79.33,-13.32 79.86,-14.84 80.39,-16.36 80.22,-18.78 80.05,-21.20 78.91,-22.11 77.76,-23.01 74.82,-24.10 71.87,-25.20 67.82,-26.21 63.77,-27.22 59.69,-28.00 55.61,-28.79 50.57,-29.49 45.52,-30.19 39.34,-29.95 33.15,-29.72 30.62,-29.36 28.09,-29.00 26.64,-28.23 25.19,-27.45 24.99,-27.24 24.79,-27.03 24.54,-26.87 24.29,-26.72 24.02,-26.63 23.74,-26.53 23.45,-26.51 23.16,-26.48 22.87,-26.53 22.58,-26.58 22.31,-26.69 22.04,-26.81 21.81,-26.98 21.57,-27.16 21.39,-27.38 21.20,-27.61 21.08,-27.87 20.95,-28.13 20.89,-28.42 20.84,-28.71 20.85,-29.00 20.86,-29.29 20.94,-29.57 21.02,-29.85 21.17,-30.10 21.31,-30.36 22.02,-31.07 22.73,-31.78 23.51,-32.61 24.29,-33.45 25.18,-34.63 26.08,-35.82 26.97,-37.06 27.86,-38.30 28.66,-37.04 29.45,-35.79 28.49,-34.83 27.53,-33.88 26.03,-32.47 24.53,-31.05 22.58,-29.26 20.64,-27.47 18.33,-25.55 16.03,-23.62 13.38,-21.54 10.74,-19.45 8.47,-17.86 6.20,-16.27 4.43,-14.84 2.65,-13.42 1.67,-12.14 0.69,-10.86 0.39,-9.31 0.09,-7.76 0.27,-5.56 0.46,-3.35 0.87,-0.99 1.28,1.35 2.19,3.78 3.10,6.22 4.24,7.68 5.38,9.14 6.42,9.74 7.47,10.34 9.38,10.85 11.30,11.35 13.69,11.18 16.07,11.00 18.57,10.60 21.08,10.20 24.10,9.52 27.12,8.83 30.43,8.17 33.75,7.51 36.02,8.02 38.30,8.53 41.03,9.80 43.75,11.08 46.54,13.90 49.32,16.72 51.70,20.47 54.07,24.22 56.07,28.83 58.06,33.43 59.11,36.97 60.16,40.51 60.27,43.74 60.39,46.97 60.30,48.26 60.20,49.54 59.90,50.98 59.60,52.42 59.55,52.71 59.50,53.00 59.38,53.28 59.26,53.55 59.08,53.79 58.90,54.03 58.67,54.21 58.44,54.40 58.17,54.53 57.90,54.65 57.60,54.71 57.31,54.77 57.01,54.76 56.72,54.74 56.43,54.66 56.14,54.57 55.89,54.42 55.63,54.27 55.42,54.07 55.20,53.86 55.04,53.61 54.89,53.35 54.79,53.07 54.70,52.79 54.68,52.49 54.65,52.19 54.73,51.73 54.81,51.26 55.08,49.71 55.34,48.15 55.48,46.36 55.63,44.57 55.64,43.49 55.64,42.40 55.78,42.24 55.92,42.08 56.09,41.96 56.26,41.84 56.46,41.76 56.66,41.68 56.87,41.65 57.08,41.62 57.29,41.64 57.50,41.67 57.70,41.74 57.90,41.81 58.07,41.93 58.25,42.04 58.39,42.20 58.53,42.36 58.64,42.54 58.74,42.73 58.79,42.93 58.84,43.14 58.85,43.35 58.85,43.56 58.80,43.77 58.76,43.97 58.66,44.16 58.57,44.35 57.62,45.34 56.68,46.33 55.69,48.20 54.70,50.06 53.16,52.65 51.62,55.24 49.74,58.09 47.86,60.94 46.10,63.26 44.34,65.58 41.73,68.12 39.13,70.65 36.78,71.74 34.43,72.82 31.93,73.30 29.42,73.78 26.52,73.99 23.63,74.19 20.53,74.31 17.43,74.44 14.36,74.63 11.28,74.83 9.17,75.12 7.07,75.40 6.18,76.65 5.30,77.89 3.96,79.13 2.61,80.36 2.59,80.56 2.56,80.76 2.49,80.95 2.41,81.14 2.30,81.30 2.18,81.46 2.03,81.60 1.88,81.73 1.70,81.82 1.52,81.91 1.32,81.96 1.13,82.00 0.93,82.00 0.73,82.00 0.53,81.95 0.34,81.90 0.16,81.80 -0.01,81.71 -0.16,81.57 -0.30,81.44 -0.42,81.27 -0.53,81.11 -0.60,80.92 -0.67,80.73 -0.69,80.53 -0.71,80.33 -1.04,79.35 -1.37,78.37 -1.37,76.19 -1.38,74.00 -1.35,69.64 -1.33,65.28 -1.25,59.18 -1.17,53.07 -0.93,46.58 -0.70,40.09 -0.09,32.08 0.51,24.07 1.05,20.04 1.59,16.01 2.16,14.15 2.72,12.30 3.58,10.80 4.44,9.30 3.23,9.36 2.01,9.43 -0.10,9.65 -2.21,9.87 -5.09,10.10 -7.97,10.32 -10.97,10.56 -13.97,10.80 -18.31,11.34 -22.64,11.87 -26.98,12.61 -31.31,13.34 -32.27,14.28 -33.22,15.23 -33.05,16.63 -32.87,18.02 -32.43,19.90 -32.00,21.78 -30.82,23.41 -29.64,25.03 -27.39,27.39 -25.14,29.75 -20.90,32.22 -16.66,34.69 -11.48,36.21 -6.31,37.74 -1.64,37.48 3.02,37.22 6.40,36.66 9.78,36.10 13.12,35.21 16.45,34.31 19.00,33.25 21.54,32.20 23.06,31.58 24.57,30.96 26.16,30.29 27.74,29.62 28.65,28.56 29.56,27.50 30.38,26.29 31.21,25.07 32.22,23.28 33.23,21.48 34.34,19.21 35.45,16.93 35.84,15.36 36.22,13.80 36.12,12.02 36.02,10.24 35.94,8.89 35.85,7.55 35.43,6.11 35.02,4.67 34.11,3.99 33.21,3.31 31.22,2.91 29.23,2.51 26.14,2.24 23.04,1.98 18.83,1.89 14.62,1.80 9.25,1.55 3.89,1.30 -1.61,0.65 -7.11,0.01 -12.65,-0.84 -18.19,-1.69 -22.75,-2.65 -27.32,-3.62 -28.55,-3.99 -29.77,-4.36 -31.15,-4.07 -32.53,-3.77 -32.82,-2.70 -33.11,-1.63 -33.09,0.48 -33.08,2.59 -32.83,5.88 -32.58,9.17 -32.00,13.27 -31.43,17.36 -30.12,22.47 -28.80,27.59 -26.97,31.37 -25.15,35.15 -23.17,37.18 -21.18,39.21 -19.17,39.57 -17.16,39.93 -15.21,39.70 -13.27,39.47 -11.67,39.12 -10.07,38.76 -8.46,38.15 -6.85,37.53 -5.25,36.55 -3.66,35.57 -2.10,34.30 -0.55,33.03 0.81,31.87 2.17,30.71 3.20,29.88 4.22,29.05 5.23,27.74 6.24,26.43 7.23,25.18 8.23,23.93 9.91,23.57 11.59,23.20 13.35,23.11 15.12,23.01 16.40,23.10 17.67,23.19 19.28,23.27 20.89,23.34 23.65,23.33 26.41,23.31 29.61,23.34 32.80,23.38 34.92,23.25 37.04,23.12 40.09,22.96 43.15,22.79 45.33,22.58 47.50,22.37 49.01,22.29 50.52,22.22 51.76,22.25 53.00,22.28 54.46,22.31 55.92,22.34 57.40,22.73 58.88,23.12 59.53,21.90 60.18,20.67 60.66,19.61 61.13,18.54 61.72,17.20 62.31,15.86 62.89,14.55 63.47,13.24 64.33,11.90 65.19,10.56 63.98,10.50 62.77,10.44 61.07,10.45 59.37,10.46 57.13,10.60 54.88,10.74 52.80,10.89 50.72,11.03 48.09,10.71 45.46,10.39 44.28,9.10 43.11,7.81 43.14,7.47 43.17,7.13 43.28,6.81 43.39,6.49 43.57,6.21 43.75,5.92 44.00,5.69 44.24,5.46 44.54,5.29 44.83,5.12 45.16,5.03 45.48,4.94 45.82,4.93 46.16,4.92 46.49,4.99 46.82,5.06 47.13,5.21 47.43,5.35 47.69,5.57 47.95,5.78 48.15,6.06 48.35,6.33 48.48,6.64 48.61,6.95 48.67,7.29 48.72,7.62 48.68,8.39 48.63,9.16 48.79,10.56 48.95,11.96 49.16,13.43 49.36,14.90 49.73,16.82 50.10,18.74 50.48,20.44 50.86,22.14 51.33,23.72 51.81,25.30 52.22,27.59 52.64,29.88 52.63,31.85 52.62,33.83 52.39,35.85 52.16,37.87 51.71,38.97 51.26,40.07 50.53,40.92 49.81,41.77 47.94,42.32 46.08,42.87 44.85,42.79 43.61,42.71 42.40,42.64 41.19,42.57 40.10,42.43 39.02,42.30 37.55,42.14 36.09,41.99 34.86,41.70 33.63,41.42 32.42,41.15 31.21,40.88 29.54,40.48 27.86,40.07 26.26,39.88 24.65,39.68 23.43,39.67 22.21,39.66 21.00,39.64 19.79,39.63 20.79,38.92 21.78,38.21 22.10,39.24 22.41,40.27 22.78,39.21 23.16,38.15 23.38,36.49 23.59,34.83 23.66,33.74 23.74,32.64 23.85,31.47 23.96,30.29 24.03,28.96 24.10,27.63 24.39,25.59 24.68,23.55 24.84,22.31 24.99,21.07 25.29,20.05 25.58,19.03 25.95,17.97 26.31,16.92 27.18,14.93 28.04,12.94 28.57,11.66 29.09,10.38 29.58,9.26 30.07,8.14 30.79,6.45 31.50,4.76 31.63,3.24 31.75,1.72 32.75,2.26 33.74,2.79 32.63,2.78 31.51,2.76 30.41,2.77 29.31,2.77 27.86,2.83 26.41,2.89 24.75,3.00 23.09,3.12 21.63,3.20 20.18,3.29 18.67,2.74 17.16,2.20 17.74,0.74 18.31,-0.71 18.75,0.35 19.19,1.42 19.63,2.88 20.06,4.35 20.19,5.99 20.31,7.63 20.30,8.75 20.29,9.87 20.29,11.28 20.29,12.70 20.22,14.00 20.16,15.30 19.60,17.15 19.04,19.00 18.12,20.08 17.20,21.15 15.72,21.74 14.24,22.34 12.94,22.63 11.64,22.91 10.47,22.91 9.31,22.90 8.16,22.92 7.01,22.94 5.94,23.04 4.88,23.13 3.39,23.70 1.91,24.27 0.61,24.04 -0.68,23.82 -1.73,22.63 -2.78,21.45 -2.88,19.83 -2.97,18.21 -2.88,16.67 -2.79,15.14 -2.72,13.74 -2.64,12.34 -2.61,11.26 -2.58,10.19 -2.48,8.38 -2.38,6.56 -2.36,5.24 -2.33,3.92 -2.45,1.96 -2.56,0 -2.53,-0.30 -2.49,-0.61 -2.38,-0.90 -2.27,-1.19 -2.09,-1.44 -1.92,-1.70 -1.69,-1.90 -1.45,-2.11 -1.18,-2.25 -0.91,-2.40 -0.60,-2.47 -0.30,-2.54 0.00,-2.54 0.30,-2.54 0.61,-2.47 0.91,-2.40 1.18,-2.25 1.45,-2.11 1.69,-1.90 1.92,-1.70 2.09,-1.44 2.27,-1.19 2.38,-0.90 2.49,-0.61 2.53,-0.30 2.56,0.00 2.56,0.00 L 2.56,0 Z"></path></g><g transform="translate(623.9445082805568 91.70038148883577) rotate(0 -18.70798024995969 39.48485336808406)" stroke="none"><path fill="#ffffff" d="M -1.68,0 Q -1.68,0 -1.63,-4.13 -1.58,-8.27 -1.54,-15.66 -1.50,-23.04 -0.61,-30.58 0.26,-38.12 1.63,-44.16 2.99,-50.20 4.55,-54.63 6.10,-59.06 7.61,-61.49 9.12,-63.93 11.10,-65.33 13.08,-66.73 14.39,-67.42 15.69,-68.12 18.67,-67.97 21.65,-67.82 25.87,-66.06 30.09,-64.30 34.08,-62.01 38.06,-59.72 43.19,-55.43 48.31,-51.14 51.67,-46.34 55.03,-41.54 57.03,-34.98 59.03,-28.41 59.86,-18.18 60.69,-7.95 60.36,2.00 60.03,11.96 58.09,20.07 56.15,28.19 53.78,34.83 51.40,41.47 49.24,46.30 47.08,51.14 45.49,53.69 43.90,56.23 43.13,57.42 42.35,58.60 42.07,58.93 41.78,59.25 41.63,59.39 41.49,59.54 41.31,59.65 41.13,59.75 40.93,59.81 40.74,59.87 40.53,59.89 40.32,59.90 40.12,59.86 39.92,59.82 39.73,59.74 39.54,59.65 39.38,59.52 39.22,59.40 39.09,59.23 38.96,59.07 38.88,58.88 38.79,58.69 38.76,58.49 38.72,58.29 38.73,58.08 38.75,57.87 38.81,57.68 38.87,57.48 38.98,57.30 39.08,57.12 40.06,56.07 41.04,55.01 42.39,54.87 43.74,54.73 46.05,55.82 48.36,56.91 50.22,58.76 52.08,60.60 53.54,62.48 55.00,64.37 55.93,66.32 56.87,68.28 57.28,70.40 57.70,72.52 56.04,75.51 54.38,78.51 49.63,82.55 44.87,86.59 37.40,90.70 29.92,94.81 22.81,97.38 15.69,99.94 10.02,101.20 4.34,102.45 -0.01,103.13 -4.37,103.80 -6.99,104.08 -9.60,104.36 -11.09,104.59 -12.58,104.82 -13.95,104.61 -15.31,104.39 -16.99,102.60 -18.68,100.81 -20.22,97.98 -21.76,95.14 -23.71,88.34 -25.65,81.53 -27.41,68.02 -29.16,54.50 -29.89,43.81 -30.62,33.12 -30.92,17.43 -31.23,1.74 -30.01,-10.34 -28.79,-22.44 -26.52,-31.14 -24.25,-39.84 -19.96,-48.79 -15.67,-57.74 -12.00,-63.40 -8.33,-69.07 -5.08,-72.76 -1.83,-76.46 0.63,-78.32 3.09,-80.19 5.39,-80.05 7.70,-79.92 8.65,-76.24 9.61,-72.55 9.98,-66.53 10.35,-60.51 8.52,-52.60 6.69,-44.70 4.49,-38.74 2.28,-32.78 -1.17,-26.71 -4.63,-20.63 -11.33,-11.44 -18.03,-2.24 -23.69,5.24 -29.35,12.74 -35.04,19.79 -40.72,26.84 -44.54,31.36 -48.35,35.88 -51.17,38.53 -53.98,41.19 -56.29,42.51 -58.59,43.83 -60.39,43.37 -62.19,42.91 -62.99,39.20 -63.78,35.48 -64.02,30.57 -64.26,25.65 -63.70,20.17 -63.15,14.70 -60.96,7.69 -58.78,0.67 -56.50,-4.44 -54.21,-9.56 -51.47,-13.81 -48.74,-18.06 -47.26,-19.98 -45.78,-21.89 -44.83,-23.01 -43.89,-24.13 -43.46,-24.61 -43.03,-25.10 -42.87,-25.23 -42.70,-25.36 -42.50,-25.45 -42.31,-25.54 -42.10,-25.58 -41.89,-25.61 -41.68,-25.60 -41.47,-25.59 -41.26,-25.53 -41.06,-25.46 -40.88,-25.35 -40.70,-25.25 -40.54,-25.09 -40.39,-24.94 -40.28,-24.76 -40.17,-24.58 -40.11,-24.38 -40.04,-24.18 -40.03,-23.96 -40.02,-23.75 -40.06,-23.54 -40.09,-23.33 -40.18,-23.14 -40.27,-22.94 -40.40,-22.77 -40.53,-22.61 -40.75,-19.77 -40.97,-16.92 -42.85,-10.62 -44.73,-4.32 -46.49,3.08 -48.25,10.48 -49.87,17.23 -51.49,23.98 -52.60,28.22 -53.71,32.46 -54.62,36.58 -55.53,40.69 -56.63,44.44 -57.73,48.18 -59.29,51.81 -60.86,55.45 -63.27,59.37 -65.68,63.30 -67.89,66.15 -70.11,69.01 -72.55,71.09 -75.00,73.17 -77.80,74.38 -80.61,75.60 -83.01,75.08 -85.42,74.55 -87.27,71.77 -89.12,68.99 -89.99,66.02 -90.85,63.05 -91.21,60.57 -91.56,58.09 -91.79,56.42 -92.03,54.75 -92.21,53.66 -92.38,52.58 -92.35,51.10 -92.31,49.63 -91.61,48.81 -90.90,48.00 -89.58,47.68 -88.25,47.37 -85.52,48.92 -82.78,50.47 -80.15,52.64 -77.52,54.81 -71.99,60.39 -66.45,65.97 -60.65,72.18 -54.84,78.39 -50.48,83.38 -46.13,88.37 -42.55,92.86 -38.98,97.34 -36.61,100.36 -34.24,103.37 -32.91,105.30 -31.58,107.22 -30.66,108.32 -29.74,109.42 -29.09,110.27 -28.43,111.12 -27.67,112.35 -26.91,113.59 -26.93,114.79 -26.95,115.99 -28.26,116.70 -29.58,117.42 -31.77,116.07 -33.97,114.71 -39.19,111.85 -44.42,108.98 -54.42,103.64 -64.43,98.30 -74.88,91.90 -85.34,85.50 -95.20,77.58 -105.07,69.66 -111.96,61.91 -118.85,54.16 -122.49,47.49 -126.12,40.81 -127.68,35.07 -129.24,29.33 -128.90,24.72 -128.57,20.12 -126.73,16.23 -124.89,12.35 -122.52,9.15 -120.15,5.95 -117.34,2.63 -114.52,-0.68 -111.48,-4.24 -108.44,-7.79 -105.97,-10.48 -103.51,-13.17 -101.47,-15.32 -99.43,-17.46 -97.63,-18.70 -95.83,-19.93 -94.08,-20.57 -92.32,-21.20 -90.74,-21.42 -89.16,-21.65 -87.88,-21.58 -86.59,-21.52 -85.12,-21.18 -83.64,-20.84 -80.52,-19.30 -77.40,-17.75 -73.44,-15.74 -69.48,-13.72 -65.52,-11.85 -61.56,-9.98 -57.94,-8.34 -54.33,-6.70 -51.57,-5.38 -48.81,-4.05 -47.12,-3.22 -45.42,-2.40 -44.39,-1.74 -43.37,-1.08 -42.70,-0.03 -42.03,1.01 -41.95,2.82 -41.87,4.63 -43.34,6.42 -44.81,8.20 -48.37,10.28 -51.93,12.36 -56.36,14.18 -60.78,15.99 -64.59,17.26 -68.39,18.52 -75.19,20.04 -82.00,21.56 -86.54,22.35 -91.07,23.15 -94.92,23.48 -98.77,23.81 -101.60,23.27 -104.44,22.72 -105.87,20.99 -107.30,19.26 -107.91,17.35 -108.52,15.45 -107.21,12.65 -105.90,9.85 -104.10,7.93 -102.31,6.02 -100.32,4.81 -98.32,3.61 -95.90,3.08 -93.48,2.55 -90.16,3.37 -86.84,4.18 -83.44,6.99 -80.04,9.81 -77.24,13.29 -74.44,16.77 -72.07,20.47 -69.71,24.17 -68.15,27.53 -66.60,30.88 -65.80,33.40 -65.01,35.91 -64.63,37.93 -64.25,39.94 -64.37,42.29 -64.50,44.64 -65.78,47.82 -67.05,51.00 -68.20,53.50 -69.34,55.99 -70.15,58.04 -70.95,60.10 -71.17,61.42 -71.38,62.74 -68.32,63.58 -65.26,64.43 -57.68,65.04 -50.10,65.66 -37.52,66.19 -24.95,66.71 -13.61,66.95 -2.26,67.19 6.21,67.30 14.70,67.41 21.66,67.46 28.63,67.51 35.07,67.87 41.51,68.22 45.26,68.62 49.01,69.02 52.73,70.36 56.46,71.69 59.18,73.15 61.90,74.61 63.87,76.39 65.83,78.16 66.99,79.87 68.14,81.57 68.74,83.11 69.34,84.65 69.50,86.17 69.66,87.70 66.92,91.70 64.18,95.70 59.29,100.96 54.41,106.23 50.10,110.68 45.78,115.13 41.25,119.23 36.71,123.33 33.12,126.06 29.53,128.79 26.37,130.13 23.21,131.48 20.68,130.23 18.15,128.99 16.50,126.36 14.86,123.72 13.08,118.72 11.30,113.72 9.18,106.31 7.07,98.89 5.32,92.28 3.58,85.68 1.88,79.85 0.18,74.01 -0.89,70.24 -1.98,66.46 -2.65,64.44 -3.33,62.41 -3.91,61.13 -4.49,59.85 -6.25,58.70 -8.02,57.54 -12.12,55.98 -16.22,54.41 -23.02,52.40 -29.82,50.38 -35.75,48.72 -41.68,47.05 -46.09,46.06 -50.50,45.07 -53.10,44.65 -55.69,44.23 -57.28,44.14 -58.87,44.05 -60.33,44.23 -61.79,44.41 -63.47,44.58 -65.16,44.75 -66.96,43.60 -68.76,42.45 -70.62,40.53 -72.48,38.61 -75.25,34.52 -78.03,30.42 -80.67,24.18 -83.31,17.94 -85.27,8.54 -87.23,-0.84 -88.04,-8.75 -88.85,-16.66 -89.18,-22.62 -89.51,-28.57 -88.84,-32.84 -88.18,-37.10 -86.02,-39.87 -83.87,-42.63 -78.86,-43.65 -73.86,-44.68 -66.36,-42.39 -58.86,-40.11 -51.63,-36.89 -44.41,-33.67 -38.78,-30.89 -33.16,-28.10 -28.41,-25.33 -23.67,-22.57 -20.45,-20.20 -17.23,-17.83 -15.23,-15.86 -13.23,-13.88 -12.07,-12.08 -10.91,-10.28 -10.24,-8.46 -9.56,-6.65 -9.20,-5.25 -8.84,-3.85 -8.69,-2.06 -8.54,-0.27 -9.00,1.76 -9.45,3.81 -10.41,5.61 -11.37,7.41 -12.82,8.78 -14.27,10.16 -16.70,10.86 -19.12,11.56 -21.86,11.73 -24.61,11.91 -27.99,9.29 -31.37,6.67 -33.74,2.31 -36.11,-2.04 -37.28,-8.10 -38.45,-14.16 -38.92,-19.23 -39.39,-24.30 -38.63,-28.25 -37.87,-32.21 -35.82,-34.86 -33.77,-37.52 -30.20,-38.70 -26.63,-39.88 -20.52,-37.78 -14.41,-35.67 -8.93,-32.18 -3.45,-28.68 1.14,-24.92 5.73,-21.16 9.19,-17.62 12.65,-14.07 14.49,-11.96 16.33,-9.84 17.20,-7.15 18.07,-4.46 15.86,-2.31 13.65,-0.16 8.87,1.24 4.09,2.64 -2.91,3.40 -9.92,4.15 -17.01,4.47 -24.09,4.78 -29.54,3.38 -34.99,1.98 -37.98,0.27 -40.97,-1.42 -42.59,-3.47 -44.20,-5.52 -44.99,-7.11 -45.78,-8.71 -45.62,-10.87 -45.46,-13.04 -39.87,-15.54 -34.28,-18.05 -28.31,-19.02 -22.35,-19.99 -4.57,-19.33 13.20,-18.67 27.68,-15.48 42.15,-12.29 52.11,-8.75 62.06,-5.21 69.34,-1.68 76.62,1.85 80.97,4.71 85.31,7.58 87.80,10.64 90.29,13.70 91.38,16.30 92.48,18.90 91.81,24.40 91.15,29.91 88.24,37.23 85.33,44.55 81.04,52.56 76.76,60.56 71.53,68.57 66.30,76.59 62.23,82.01 58.15,87.43 54.69,91.33 51.23,95.22 48.29,97.82 45.36,100.42 43.21,101.98 41.05,103.54 39.21,104.58 37.37,105.62 35.71,106.44 34.05,107.26 33.10,107.79 32.15,108.31 30.95,108.87 29.75,109.43 28.08,110.13 26.41,110.83 25.39,111.50 24.36,112.18 21.92,113.39 19.48,114.60 15.55,116.05 11.63,117.50 6.55,118.43 1.47,119.37 -3.73,119.74 -8.94,120.11 -14.20,119.10 -19.46,118.09 -24.22,115.33 -28.99,112.57 -33.24,108.97 -37.49,105.36 -41.17,101.64 -44.84,97.91 -47.63,94.40 -50.42,90.89 -52.11,88.15 -53.80,85.40 -54.78,83.14 -55.76,80.88 -56.28,79.27 -56.81,77.67 -56.95,76.30 -57.09,74.92 -56.28,73.89 -55.48,72.85 -49.86,72.54 -44.23,72.23 -34.63,72.20 -25.03,72.17 -13.69,73.55 -2.35,74.93 6.60,76.54 15.56,78.15 22.27,79.73 28.98,81.32 33.42,83.09 37.86,84.86 40.17,86.45 42.48,88.03 43.63,89.90 44.77,91.76 45.18,93.44 45.59,95.13 44.32,97.22 43.05,99.32 40.76,101.13 38.46,102.93 36.07,104.19 33.67,105.46 31.02,106.11 28.37,106.76 25.79,105.39 23.21,104.02 21.42,99.90 19.62,95.79 18.57,90.89 17.51,85.99 16.76,81.31 16.02,76.63 15.71,73.05 15.39,69.48 15.26,67.08 15.12,64.67 14.95,63.28 14.78,61.89 14.77,59.58 14.76,57.26 14.90,55.91 15.03,54.56 15.10,53.03 15.16,51.50 15.17,49.61 15.19,47.72 13.06,44.59 10.92,41.47 7.70,37.50 4.47,33.53 -0.12,28.95 -4.72,24.37 -9.47,20.85 -14.21,17.34 -18.93,15.26 -23.65,13.18 -27.35,12.29 -31.05,11.41 -34.13,11.03 -37.21,10.64 -38.98,11.00 -40.75,11.36 -41.59,12.10 -42.43,12.84 -42.91,14.21 -43.39,15.59 -44.27,17.07 -45.15,18.56 -46.23,19.07 -47.31,19.58 -48.70,19.39 -50.10,19.21 -51.38,18.27 -52.67,17.34 -53.74,16.70 -54.82,16.06 -56.39,15.36 -57.96,14.65 -60.22,14.15 -62.48,13.64 -65.44,13.10 -68.41,12.56 -71.49,11.74 -74.57,10.92 -77.21,10.18 -79.85,9.45 -81.73,8.94 -83.62,8.43 -84.51,12.37 -85.40,16.31 -84.97,20.58 -84.53,24.85 -82.83,33.06 -81.12,41.28 -79.28,49.25 -77.44,57.22 -76.01,63.70 -74.57,70.18 -73.23,75.52 -71.90,80.86 -70.85,84.52 -69.80,88.18 -68.53,90.75 -67.26,93.32 -65.51,95.37 -63.77,97.42 -59.68,100.95 -55.59,104.48 -49.92,108.98 -44.26,113.47 -37.73,117.78 -31.21,122.09 -25.83,125.33 -20.45,128.57 -12.15,132.51 -3.86,136.46 5.00,139.97 13.87,143.48 20.73,146.11 27.59,148.74 32.87,150.74 38.14,152.73 41.43,154.04 44.72,155.36 46.46,156.15 48.20,156.95 49.19,157.54 50.18,158.14 49.73,156.48 49.28,154.82 51.03,151.13 52.79,147.43 55.28,142.67 57.77,137.92 62.67,128.03 67.57,118.14 71.06,110.49 74.55,102.84 77.15,97.14 79.74,91.44 81.20,87.96 82.67,84.49 83.33,82.76 84.00,81.03 82.87,81.10 81.74,81.17 78.39,80.99 75.04,80.80 70.54,80.69 66.03,80.58 61.57,80.67 57.11,80.75 54.47,81.12 51.83,81.48 49.70,82.46 47.56,83.43 45.87,84.74 44.17,86.05 43.12,87.24 42.06,88.44 41.30,89.97 40.54,91.51 39.56,93.13 38.59,94.75 36.57,97.54 34.56,100.33 30.21,106.34 25.87,112.36 23.34,115.45 20.81,118.54 17.87,121.64 14.92,124.74 12.20,126.63 9.47,128.52 6.72,129.49 3.96,130.47 1.39,129.82 -1.18,129.18 -3.73,126.48 -6.28,123.77 -8.37,121.16 -10.45,118.55 -13.25,114.83 -16.05,111.11 -18.27,108.70 -20.49,106.29 -22.81,104.39 -25.13,102.50 -26.90,101.12 -28.68,99.75 -29.99,98.84 -31.30,97.94 -31.30,99.77 -31.29,101.59 -31.55,103.31 -31.81,105.02 -32.23,106.51 -32.64,107.99 -33.80,109.57 -34.97,111.16 -37.31,112.87 -39.65,114.58 -43.39,117.22 -47.13,119.87 -51.05,122.51 -54.97,125.15 -58.99,127.83 -63.01,130.51 -66.55,132.62 -70.09,134.73 -73.62,136.22 -77.15,137.72 -79.76,138.36 -82.38,139.00 -84.56,139.16 -86.74,139.33 -88.96,138.63 -91.17,137.94 -93.23,136.24 -95.30,134.53 -96.91,132.01 -98.52,129.48 -99.23,126.54 -99.93,123.61 -100.21,120.22 -100.49,116.83 -99.30,112.18 -98.11,107.53 -96.43,103.25 -94.74,98.96 -92.53,94.10 -90.31,89.25 -87.77,83.30 -85.24,77.35 -83.20,73.16 -81.17,68.97 -79.55,66.28 -77.94,63.58 -76.81,62.18 -75.68,60.78 -74.43,60.96 -73.19,61.13 -72.50,62.34 -71.81,63.55 -71.22,65.73 -70.63,67.91 -69.92,70.18 -69.21,72.45 -68.08,75.56 -66.96,78.68 -65.93,81.99 -64.90,85.30 -63.90,88.83 -62.91,92.37 -62.24,95.26 -61.57,98.15 -61.06,100.59 -60.54,103.02 -59.98,104.40 -59.41,105.79 -57.75,105.45 -56.09,105.11 -54.59,105.12 -53.09,105.13 -51.15,106.18 -49.21,107.24 -47.43,108.79 -45.65,110.34 -43.25,112.85 -40.84,115.36 -39.49,117.14 -38.14,118.93 -36.48,121.36 -34.83,123.78 -33.18,126.14 -31.54,128.49 -29.56,130.79 -27.59,133.08 -25.50,135.08 -23.41,137.08 -21.01,138.56 -18.61,140.05 -16.09,140.79 -13.57,141.54 -10.42,141.87 -7.26,142.19 -3.78,142.34 -0.30,142.49 2.33,142.56 4.97,142.62 9.11,142.65 13.25,142.68 17.97,142.07 22.69,141.45 26.45,140.67 30.22,139.88 33.03,138.99 35.85,138.09 37.77,137.30 39.69,136.51 40.83,135.45 41.97,134.40 41.86,132.88 41.75,131.36 40.43,130.35 39.11,129.34 37.92,128.87 36.73,128.39 33.36,127.31 29.99,126.24 24.95,124.69 19.92,123.15 15.73,121.92 11.55,120.70 8.25,119.91 4.96,119.11 2.67,118.63 0.38,118.16 -0.85,118.08 -2.10,118.00 -3.88,117.56 -5.66,117.13 -6.33,115.49 -7.01,113.86 -7.20,111.65 -7.39,109.44 -7.70,106.21 -8.01,102.98 -8.12,99.94 -8.23,96.89 -8.25,94.03 -8.27,91.18 -8.32,89.27 -8.37,87.35 -8.48,86.15 -8.59,84.95 -9.03,84.36 -9.46,83.76 -9.78,83.66 -10.09,83.56 -10.36,83.37 -10.63,83.17 -10.82,82.90 -11.02,82.63 -11.11,82.31 -11.21,82.00 -11.20,81.66 -11.19,81.33 -11.07,81.02 -10.96,80.71 -10.75,80.45 -10.54,80.19 -10.26,80.02 -9.98,79.84 -9.66,79.76 -9.34,79.68 -9.00,79.71 -8.67,79.74 -8.37,79.87 -8.07,80.00 -7.82,80.23 -7.57,80.45 -7.41,80.74 -7.25,81.03 -7.19,81.35 -7.13,81.68 -7.17,82.01 -7.22,82.34 -7.37,82.63 -7.52,82.93 -7.75,83.16 -7.99,83.40 -8.28,83.54 -8.58,83.69 -8.91,83.73 -9.24,83.78 -9.57,83.71 -9.89,83.65 -10.18,83.48 -10.47,83.32 -10.69,83.07 -10.91,82.82 -11.04,82.52 -11.17,82.21 -11.19,81.88 -11.22,81.55 -11.14,81.23 -11.06,80.91 -10.88,80.63 -10.70,80.35 -10.44,80.14 -10.18,79.94 -9.87,79.82 -9.55,79.71 -9.22,79.70 -8.89,79.70 -8.89,79.70 -8.89,79.70 -6.92,82.30 -4.95,84.91 -5.04,86.11 -5.13,87.30 -5.11,89.20 -5.09,91.09 -4.97,93.89 -4.85,96.69 -4.61,99.61 -4.37,102.52 -3.87,105.72 -3.37,108.92 -2.48,111.71 -1.58,114.50 -0.31,114.79 0.96,115.08 3.32,115.48 5.68,115.87 9.08,116.56 12.48,117.25 16.73,118.31 20.98,119.37 26.07,120.69 31.15,122.01 34.87,122.88 38.59,123.75 40.23,124.42 41.87,125.08 43.74,126.96 45.62,128.84 45.94,129.94 46.26,131.03 45.93,133.12 45.59,135.22 44.20,136.64 42.81,138.06 41.75,138.50 40.69,138.94 38.67,139.78 36.65,140.61 33.70,141.54 30.76,142.47 26.90,143.28 23.03,144.08 18.13,144.71 13.24,145.34 9.07,145.32 4.91,145.30 2.24,145.24 -0.41,145.18 -3.98,145.04 -7.55,144.89 -10.95,144.53 -14.35,144.17 -17.20,143.30 -20.05,142.43 -22.71,140.80 -25.36,139.16 -27.58,137.09 -29.80,135.02 -31.91,132.65 -34.02,130.28 -35.74,127.96 -37.46,125.64 -39.13,123.37 -40.81,121.09 -42.15,119.55 -43.48,118.01 -45.84,115.81 -48.20,113.60 -49.90,112.43 -51.61,111.26 -53.40,110.48 -55.20,109.70 -56.48,110.00 -57.76,110.30 -59.57,109.54 -61.37,108.77 -61.87,107.79 -62.36,106.81 -62.80,105.21 -63.24,103.61 -63.77,101.20 -64.30,98.80 -64.98,95.98 -65.67,93.16 -66.69,89.68 -67.71,86.20 -68.78,82.98 -69.84,79.77 -71.07,76.63 -72.29,73.50 -73.13,71.22 -73.96,68.94 -74.82,66.94 -75.68,64.94 -77.23,67.53 -78.79,70.13 -80.80,74.26 -82.80,78.38 -85.35,84.37 -87.90,90.35 -90.08,95.14 -92.27,99.94 -93.90,104.07 -95.52,108.21 -96.67,112.44 -97.81,116.66 -97.55,119.83 -97.29,123.00 -96.73,125.53 -96.18,128.06 -94.82,130.24 -93.46,132.43 -91.83,133.85 -90.19,135.27 -88.52,135.88 -86.85,136.50 -84.95,136.38 -83.05,136.26 -80.67,135.65 -78.29,135.05 -74.97,133.61 -71.65,132.16 -68.21,130.04 -64.78,127.91 -60.83,125.16 -56.87,122.41 -53.07,119.69 -49.26,116.97 -45.67,114.22 -42.08,111.46 -40.25,109.93 -38.42,108.39 -37.61,107.49 -36.81,106.58 -36.41,105.46 -36.01,104.34 -35.76,102.86 -35.51,101.38 -35.42,99.58 -35.33,97.78 -34.65,96.03 -33.98,94.28 -31.70,94.91 -29.43,95.55 -28.25,96.60 -27.06,97.66 -25.25,99.05 -23.45,100.45 -20.99,102.46 -18.53,104.48 -16.22,106.99 -13.91,109.49 -11.13,113.18 -8.34,116.87 -6.30,119.41 -4.26,121.95 -2.25,124.30 -0.23,126.65 1.55,127.23 3.33,127.82 5.59,126.98 7.85,126.15 10.31,124.42 12.77,122.70 15.58,119.65 18.40,116.60 20.80,113.53 23.20,110.46 27.43,104.40 31.66,98.33 33.47,95.56 35.28,92.79 36.74,90.41 38.19,88.04 39.03,87.16 39.86,86.28 41.17,85.07 42.48,83.85 44.43,82.36 46.38,80.86 48.88,79.74 51.38,78.61 54.20,78.17 57.02,77.73 61.55,77.58 66.07,77.42 70.62,77.43 75.17,77.43 78.81,77.52 82.44,77.60 84.23,78.18 86.01,78.77 86.42,80.39 86.83,82.00 86.08,83.80 85.33,85.59 83.90,89.12 82.47,92.66 79.93,98.39 77.40,104.12 73.97,111.85 70.54,119.59 65.74,129.55 60.95,139.52 58.64,144.27 56.34,149.03 54.94,152.37 53.53,155.71 53.20,157.25 52.88,158.78 52.21,160.05 51.55,161.31 50.06,161.38 48.56,161.45 47.74,160.48 46.92,159.50 45.33,158.65 43.75,157.80 40.48,156.50 37.21,155.20 31.93,153.20 26.65,151.20 19.78,148.57 12.90,145.94 3.95,142.39 -4.99,138.85 -13.41,134.84 -21.82,130.84 -27.25,127.58 -32.68,124.32 -39.30,119.94 -45.92,115.57 -51.64,111.05 -57.35,106.52 -61.60,102.85 -65.84,99.18 -67.78,96.87 -69.72,94.56 -71.11,91.76 -72.49,88.97 -73.59,85.27 -74.69,81.57 -76.08,76.21 -77.47,70.84 -78.96,64.38 -80.46,57.93 -82.39,49.95 -84.33,41.97 -86.18,33.62 -88.03,25.27 -88.64,20.74 -89.24,16.21 -88.37,10.55 -87.49,4.90 -85.13,5.10 -82.77,5.31 -80.91,5.82 -79.05,6.33 -76.40,6.95 -73.76,7.58 -70.81,8.22 -67.86,8.86 -64.81,9.21 -61.77,9.57 -59.03,9.93 -56.29,10.29 -54.25,10.98 -52.22,11.68 -50.76,12.55 -49.31,13.42 -48.21,13.71 -47.10,14.01 -46.56,13.03 -46.02,12.06 -45.15,11.12 -44.27,10.18 -42.80,9.40 -41.34,8.62 -39.12,8.26 -36.91,7.90 -33.65,8.29 -30.40,8.68 -26.45,9.61 -22.50,10.54 -17.48,12.74 -12.47,14.94 -7.51,18.55 -2.55,22.15 2.21,26.79 6.98,31.43 10.41,35.47 13.84,39.51 16.39,43.39 18.93,47.26 19.13,49.49 19.33,51.71 19.23,53.42 19.13,55.14 18.88,56.53 18.62,57.93 18.26,59.85 17.90,61.76 17.84,63.14 17.78,64.52 17.92,66.88 18.05,69.24 18.37,72.72 18.68,76.20 19.42,80.81 20.17,85.41 21.17,90.08 22.18,94.75 23.52,98.31 24.86,101.87 26.56,102.97 28.26,104.07 30.27,103.46 32.28,102.84 34.42,101.67 36.55,100.51 38.47,98.97 40.40,97.43 41.30,95.28 42.20,93.14 41.51,91.67 40.83,90.21 38.82,88.84 36.81,87.47 32.57,85.80 28.33,84.13 21.68,82.61 15.04,81.09 6.16,79.56 -2.72,78.03 -13.86,76.75 -25.00,75.47 -34.54,75.63 -44.09,75.78 -48.96,76.34 -53.84,76.90 -53.57,78.36 -53.29,79.82 -52.39,81.90 -51.49,83.99 -49.89,86.59 -48.29,89.19 -45.58,92.58 -42.87,95.96 -39.27,99.58 -35.67,103.20 -31.59,106.64 -27.52,110.07 -23.18,112.61 -18.84,115.15 -14.00,116.06 -9.17,116.97 -4.16,116.53 0.83,116.09 5.58,115.11 10.32,114.13 13.94,112.63 17.56,111.12 19.82,109.74 22.08,108.35 23.69,107.46 25.29,106.57 26.84,106.24 28.39,105.91 30.61,105.24 32.83,104.56 34.45,103.90 36.07,103.23 37.79,102.32 39.51,101.40 41.57,99.92 43.62,98.45 46.44,95.96 49.26,93.47 52.65,89.66 56.04,85.85 60.07,80.49 64.09,75.14 69.26,67.23 74.43,59.31 78.65,51.44 82.87,43.57 85.69,36.55 88.52,29.53 89.25,24.63 89.99,19.73 89.09,17.55 88.18,15.36 85.98,12.59 83.79,9.82 79.61,7.06 75.42,4.31 68.28,0.86 61.13,-2.59 51.34,-6.05 41.54,-9.52 27.31,-12.63 13.08,-15.75 -4.38,-16.37 -21.86,-16.99 -27.46,-16.05 -33.06,-15.10 -38.02,-12.44 -42.97,-9.79 -42.54,-8.44 -42.10,-7.09 -40.85,-5.37 -39.59,-3.64 -36.95,-2.10 -34.30,-0.55 -29.24,0.80 -24.17,2.16 -17.19,1.85 -10.20,1.54 -3.40,0.82 3.39,0.11 7.69,-1.03 12.00,-2.18 14.06,-3.84 16.11,-5.50 15.21,-6.82 14.32,-8.14 12.54,-10.18 10.76,-12.23 7.41,-15.67 4.05,-19.11 -0.41,-22.78 -4.88,-26.44 -10.11,-29.80 -15.34,-33.17 -20.76,-35.24 -26.18,-37.32 -29.03,-36.50 -31.87,-35.67 -33.55,-33.61 -35.23,-31.55 -35.92,-28.04 -36.61,-24.53 -36.13,-19.61 -35.64,-14.69 -34.58,-9.05 -33.51,-3.40 -31.43,0.48 -29.36,4.37 -26.80,6.64 -24.23,8.91 -22.15,8.57 -20.06,8.24 -18.34,7.75 -16.62,7.26 -15.57,6.42 -14.51,5.58 -13.72,4.25 -12.94,2.93 -12.53,1.40 -12.11,-0.11 -12.16,-1.68 -12.21,-3.25 -12.32,-4.49 -12.43,-5.72 -12.86,-7.28 -13.28,-8.85 -14.20,-10.43 -15.11,-12.02 -16.95,-13.86 -18.80,-15.70 -21.90,-17.99 -25.01,-20.27 -29.68,-22.99 -34.34,-25.71 -39.92,-28.46 -45.50,-31.22 -52.58,-34.37 -59.67,-37.52 -66.59,-39.76 -73.52,-41.99 -77.81,-41.32 -82.10,-40.65 -83.77,-38.57 -85.44,-36.50 -86.01,-32.62 -86.58,-28.73 -86.20,-22.86 -85.82,-16.99 -84.96,-9.25 -84.10,-1.50 -82.14,7.54 -80.17,16.59 -77.58,22.45 -74.99,28.31 -72.32,31.98 -69.66,35.64 -67.12,37.98 -64.58,40.31 -63.36,40.40 -62.13,40.49 -60.33,40.70 -58.53,40.91 -56.89,41.18 -55.25,41.44 -52.57,41.84 -49.88,42.24 -45.39,43.20 -40.89,44.16 -34.92,45.77 -28.95,47.37 -22.02,49.33 -15.08,51.29 -10.71,52.83 -6.34,54.37 -4.44,55.52 -2.55,56.68 -2.06,57.74 -1.57,58.80 -1.20,60.19 -0.82,61.58 -0.13,63.65 0.55,65.73 1.64,69.50 2.73,73.27 4.44,79.14 6.15,85.00 7.89,91.58 9.64,98.16 11.73,105.49 13.83,112.83 15.51,117.59 17.20,122.36 18.41,124.55 19.62,126.74 21.34,127.87 23.07,128.99 25.45,127.76 27.82,126.53 31.28,123.85 34.75,121.17 39.17,117.10 43.60,113.04 47.83,108.56 52.07,104.08 56.75,98.91 61.43,93.74 63.82,89.66 66.21,85.58 65.96,84.32 65.71,83.07 64.86,81.59 64.02,80.10 62.32,78.53 60.62,76.95 58.08,75.59 55.54,74.22 52.12,72.97 48.70,71.72 45.03,71.34 41.37,70.96 34.99,70.63 28.62,70.30 21.64,70.28 14.67,70.26 6.17,70.19 -2.32,70.12 -13.69,69.94 -25.07,69.76 -37.70,69.31 -50.34,68.86 -58.11,68.33 -65.88,67.80 -68.36,67.40 -70.84,67.00 -72.46,66.15 -74.08,65.30 -74.24,63.64 -74.41,61.97 -73.93,60.55 -73.44,59.12 -72.61,57.00 -71.79,54.88 -70.68,52.42 -69.57,49.97 -68.40,47.20 -67.23,44.44 -67.12,42.42 -67.01,40.39 -67.28,38.55 -67.54,36.70 -68.28,34.35 -69.01,32.00 -70.49,28.80 -71.97,25.61 -74.26,22.03 -76.54,18.46 -79.17,15.17 -81.80,11.88 -84.72,9.34 -87.64,6.80 -90.34,6.04 -93.03,5.29 -94.96,5.69 -96.89,6.09 -98.53,7.08 -100.17,8.06 -101.67,9.68 -103.17,11.29 -104.31,13.24 -105.45,15.19 -105.15,16.40 -104.84,17.61 -104.13,18.96 -103.42,20.31 -101.21,20.64 -99.01,20.97 -95.30,20.61 -91.60,20.25 -87.14,19.41 -82.68,18.57 -76.07,17.02 -69.45,15.47 -65.79,14.14 -62.14,12.81 -58.01,10.98 -53.88,9.15 -50.83,7.20 -47.77,5.25 -46.74,3.89 -45.71,2.53 -46.29,1.49 -46.87,0.45 -48.49,-0.39 -50.12,-1.24 -52.88,-2.47 -55.64,-3.70 -59.32,-5.24 -63.00,-6.78 -67.06,-8.52 -71.13,-10.26 -75.20,-12.09 -79.28,-13.92 -81.30,-14.75 -83.32,-15.59 -84.68,-16.39 -86.04,-17.18 -87.49,-17.71 -88.93,-18.23 -90.20,-18.25 -91.47,-18.27 -92.91,-17.95 -94.36,-17.64 -95.94,-16.63 -97.52,-15.63 -99.54,-13.51 -101.56,-11.38 -103.98,-8.72 -106.41,-6.07 -109.45,-2.51 -112.48,1.04 -115.24,4.29 -117.99,7.55 -120.22,10.55 -122.45,13.54 -124.16,16.97 -125.86,20.39 -126.20,24.52 -126.54,28.65 -125.08,34.06 -123.61,39.47 -120.13,45.85 -116.66,52.22 -109.91,59.75 -103.17,67.28 -93.42,75.02 -83.67,82.76 -73.26,89.02 -62.84,95.28 -52.76,100.49 -42.69,105.70 -37.18,108.51 -31.67,111.31 -30.13,112.49 -28.60,113.66 -29.85,113.95 -31.11,114.25 -31.73,112.77 -32.35,111.29 -33.11,110.05 -33.86,108.82 -35.16,106.98 -36.46,105.14 -38.86,102.16 -41.26,99.18 -44.83,94.78 -48.41,90.38 -52.78,85.48 -57.16,80.59 -63.01,74.49 -68.85,68.39 -74.33,63.06 -79.80,57.72 -82.34,55.85 -84.88,53.97 -86.83,52.57 -88.79,51.16 -88.90,52.82 -89.02,54.48 -88.96,56.10 -88.91,57.71 -88.58,60.01 -88.26,62.31 -87.53,64.95 -86.79,67.60 -85.53,69.91 -84.27,72.23 -82.79,72.69 -81.31,73.14 -79.00,72.13 -76.69,71.12 -74.45,69.24 -72.21,67.37 -70.08,64.63 -67.96,61.89 -65.65,58.13 -63.34,54.38 -61.84,50.90 -60.35,47.42 -59.29,43.76 -58.23,40.10 -57.34,35.93 -56.44,31.76 -55.37,27.54 -54.31,23.31 -52.74,16.56 -51.16,9.80 -49.45,2.30 -47.74,-5.19 -45.96,-11.48 -44.18,-17.76 -43.64,-19.73 -43.10,-21.71 -43.07,-23.40 -43.03,-25.10 -42.87,-25.23 -42.70,-25.36 -42.50,-25.45 -42.31,-25.54 -42.10,-25.58 -41.89,-25.61 -41.68,-25.60 -41.47,-25.59 -41.26,-25.53 -41.06,-25.46 -40.88,-25.35 -40.70,-25.25 -40.54,-25.10 -40.39,-24.94 -40.28,-24.76 -40.17,-24.58 -40.11,-24.38 -40.04,-24.18 -40.03,-23.96 -40.02,-23.75 -40.06,-23.54 -40.09,-23.33 -40.18,-23.14 -40.27,-22.94 -40.40,-22.77 -40.53,-22.61 -41.09,-22.26 -41.66,-21.91 -42.66,-21.08 -43.65,-20.25 -45.06,-18.42 -46.46,-16.59 -49.09,-12.52 -51.72,-8.44 -53.92,-3.47 -56.13,1.50 -58.23,8.25 -60.33,14.99 -60.84,20.25 -61.35,25.50 -61.08,30.24 -60.81,34.97 -60.10,38.22 -59.38,41.47 -57.58,40.36 -55.78,39.25 -53.08,36.71 -50.38,34.16 -46.59,29.66 -42.80,25.16 -37.15,18.14 -31.49,11.12 -25.85,3.64 -20.21,-3.83 -13.61,-12.91 -7.00,-21.99 -3.65,-27.86 -0.30,-33.74 1.82,-39.54 3.95,-45.35 5.70,-52.85 7.46,-60.36 7.08,-66.10 6.70,-71.85 5.61,-74.92 4.51,-78.00 2.33,-76.35 0.15,-74.69 -2.97,-71.15 -6.09,-67.61 -9.67,-62.09 -13.25,-56.57 -17.44,-47.86 -21.63,-39.15 -23.85,-30.65 -26.06,-22.16 -27.25,-10.23 -28.44,1.69 -28.11,17.30 -27.78,32.92 -27.02,43.52 -26.26,54.12 -24.49,67.41 -22.73,80.69 -20.85,87.15 -18.96,93.61 -17.54,96.09 -16.11,98.58 -14.45,100.14 -12.79,101.71 -11.34,101.69 -9.90,101.68 -7.35,101.39 -4.79,101.10 -0.52,100.42 3.74,99.75 9.24,98.52 14.73,97.29 21.63,94.78 28.53,92.27 35.74,88.28 42.94,84.30 47.33,80.58 51.72,76.86 53.13,74.71 54.53,72.56 54.24,71.09 53.94,69.63 53.20,68.01 52.46,66.39 51.06,64.75 49.66,63.10 48.17,61.70 46.67,60.30 44.23,59.77 41.78,59.25 41.63,59.39 41.49,59.54 41.31,59.65 41.13,59.75 40.93,59.81 40.74,59.87 40.53,59.89 40.32,59.90 40.12,59.86 39.92,59.82 39.73,59.74 39.54,59.65 39.38,59.52 39.22,59.40 39.09,59.23 38.96,59.07 38.88,58.88 38.79,58.69 38.76,58.49 38.72,58.29 38.73,58.08 38.75,57.87 38.81,57.68 38.87,57.48 38.98,57.30 39.08,57.12 39.50,56.89 39.92,56.66 40.79,55.75 41.67,54.83 43.17,52.44 44.67,50.06 46.79,45.31 48.91,40.57 51.24,34.07 53.57,27.56 55.47,19.71 57.37,11.86 57.69,2.06 58.02,-7.74 57.22,-17.69 56.43,-27.64 54.60,-33.83 52.76,-40.02 49.64,-44.52 46.51,-49.03 41.58,-53.15 36.65,-57.26 32.81,-59.44 28.96,-61.61 25.18,-63.21 21.40,-64.81 19.10,-64.99 16.79,-65.17 15.69,-64.83 14.59,-64.49 12.98,-63.45 11.37,-62.42 10.05,-60.28 8.72,-58.13 7.24,-53.85 5.76,-49.58 4.46,-43.68 3.15,-37.79 2.33,-30.41 1.50,-23.04 1.54,-15.65 1.58,-8.27 1.63,-4.13 1.68,0 1.65,0.20 1.63,0.40 1.56,0.59 1.48,0.78 1.37,0.94 1.25,1.11 1.10,1.24 0.95,1.38 0.77,1.47 0.59,1.57 0.39,1.62 0.20,1.66 -0.00,1.66 -0.20,1.66 -0.39,1.62 -0.59,1.57 -0.77,1.47 -0.95,1.38 -1.10,1.24 -1.25,1.11 -1.37,0.94 -1.48,0.78 -1.56,0.59 -1.63,0.40 -1.65,0.20 -1.68,-0.00 -1.68,-0.00 L -1.68,0 Z"></path></g><g transform="translate(615.0753118616665 130.62019185254337) rotate(0 -7.365346555102235 12.525486365497727)" stroke="none"><path fill="#ffffff" d="M 0,1.57 Q 0,1.57 -1.95,1.58 -3.90,1.58 -7.05,1.55 -10.21,1.51 -13.81,1.48 -17.40,1.45 -21.81,1.43 -26.21,1.41 -32.19,1.40 -38.17,1.38 -42.36,0.27 -46.54,-0.83 -49.45,-4.12 -52.36,-7.41 -53.59,-11.75 -54.82,-16.09 -55.14,-21.23 -55.47,-26.38 -54.26,-30.92 -53.04,-35.46 -50.52,-39.13 -48.00,-42.79 -44.23,-45.33 -40.47,-47.87 -35.72,-49.12 -30.97,-50.37 -25.36,-50.88 -19.75,-51.39 -12.80,-49.41 -5.86,-47.42 -0.76,-43.67 4.32,-39.92 8.54,-34.23 12.75,-28.53 15.05,-22.78 17.34,-17.02 18.31,-12.78 19.28,-8.53 19.69,-5.34 20.10,-2.14 20.11,-0.27 20.11,1.59 19.06,2.98 18.01,4.38 15.84,4.78 13.67,5.19 11.04,2.60 8.42,0.01 6.05,-4.37 3.68,-8.75 2.15,-12.84 0.62,-16.93 -0.58,-24.62 -1.79,-32.32 -2.28,-38.65 -2.77,-44.99 -2.86,-49.10 -2.96,-53.22 -2.84,-55.29 -2.73,-57.36 -2.57,-58.42 -2.42,-59.47 -2.37,-59.53 -2.33,-59.59 -2.26,-59.78 -2.18,-59.97 -2.06,-60.14 -1.94,-60.31 -1.79,-60.45 -1.63,-60.58 -1.44,-60.68 -1.26,-60.77 -1.06,-60.82 -0.86,-60.86 -0.65,-60.86 -0.44,-60.86 -0.24,-60.81 -0.04,-60.76 0.13,-60.66 0.31,-60.56 0.47,-60.42 0.62,-60.28 0.74,-60.11 0.85,-59.94 0.92,-59.74 0.99,-59.55 1.02,-59.34 1.04,-59.13 1.01,-58.93 0.98,-58.72 1.23,-57.09 1.48,-55.45 0.99,-53.54 0.51,-51.63 -0.56,-49.47 -1.63,-47.30 -2.90,-44.95 -4.17,-42.60 -5.74,-39.91 -7.31,-37.22 -9.04,-34.37 -10.78,-31.51 -11.96,-29.30 -13.15,-27.10 -14.63,-24.36 -16.12,-21.63 -17.40,-18.79 -18.67,-15.94 -19.46,-13.78 -20.24,-11.62 -21.28,-8.74 -22.32,-5.86 -23.39,-2.86 -24.46,0.13 -25.42,2.77 -26.38,5.41 -27.12,7.42 -27.86,9.43 -28.38,10.78 -28.90,12.12 -29.78,13.16 -30.66,14.19 -32.37,14.76 -34.07,15.32 -36.76,15.39 -39.44,15.46 -42.66,15.46 -45.88,15.45 -48.78,15.29 -51.67,15.13 -53.75,15.06 -55.83,14.98 -57.10,15.07 -58.36,15.16 -58.57,15.13 -58.77,15.10 -58.96,15.02 -59.16,14.94 -59.32,14.82 -59.49,14.70 -59.62,14.54 -59.76,14.38 -59.85,14.20 -59.94,14.01 -59.99,13.81 -60.03,13.61 -60.03,13.40 -60.02,13.19 -59.97,13.00 -59.91,12.80 -59.81,12.61 -59.71,12.43 -59.57,12.28 -59.43,12.13 -59.26,12.02 -59.09,11.90 -58.89,11.83 -58.69,11.76 -58.49,11.74 -58.28,11.72 -56.81,14.30 -55.34,16.87 -53.35,19.84 -51.37,22.80 -46.60,29.05 -41.83,35.30 -36.09,42.48 -30.35,49.65 -25.22,55.73 -20.09,61.81 -15.46,66.85 -10.82,71.90 -7.69,75.08 -4.56,78.26 -2.66,79.89 -0.77,81.51 0.36,82.14 1.50,82.78 4.63,81.70 7.77,80.62 11.49,78.62 15.21,76.62 19.03,74.87 22.86,73.12 26.60,71.39 30.34,69.67 33.52,68.41 36.71,67.15 38.31,66.46 39.90,65.77 40.98,65.13 42.05,64.50 42.58,63.58 43.12,62.65 43.04,62.56 42.95,62.47 42.69,62.22 42.42,61.97 42.24,61.64 42.07,61.32 42.01,60.96 41.95,60.59 42.01,60.23 42.07,59.86 42.24,59.54 42.41,59.21 42.68,58.96 42.94,58.70 43.28,58.55 43.61,58.39 43.98,58.35 44.34,58.31 44.70,58.39 45.06,58.47 45.38,58.65 45.70,58.84 45.94,59.12 46.18,59.40 46.31,59.75 46.45,60.09 46.47,60.46 46.49,60.82 46.39,61.18 46.30,61.53 46.09,61.84 45.89,62.15 45.59,62.37 45.30,62.59 44.95,62.71 44.60,62.83 44.23,62.83 43.87,62.83 43.52,62.72 43.17,62.60 42.87,62.38 42.58,62.16 42.37,61.85 42.16,61.55 42.06,61.19 41.96,60.84 41.98,60.47 42.00,60.10 42.14,59.76 42.27,59.42 42.51,59.13 42.75,58.85 43.06,58.66 43.38,58.47 43.74,58.39 44.10,58.31 44.46,58.35 44.83,58.39 45.16,58.54 45.50,58.69 45.50,58.69 45.50,58.69 46.06,62.09 46.63,65.49 45.09,66.57 43.56,67.64 42.29,68.14 41.02,68.63 39.38,69.19 37.75,69.75 34.65,71.01 31.55,72.26 27.83,74.03 24.11,75.79 20.40,77.56 16.69,79.32 12.90,81.45 9.10,83.58 6.31,84.80 3.52,86.01 1.75,85.72 -0.02,85.43 -1.25,84.48 -2.49,83.53 -4.48,81.83 -6.46,80.14 -9.63,76.93 -12.79,73.72 -17.47,68.63 -22.16,63.55 -27.32,57.46 -32.48,51.36 -38.25,44.17 -44.03,36.98 -48.87,30.68 -53.72,24.38 -55.87,21.18 -58.02,17.99 -58.19,16.57 -58.36,15.16 -58.57,15.13 -58.77,15.10 -58.96,15.02 -59.16,14.94 -59.32,14.82 -59.49,14.70 -59.62,14.54 -59.76,14.38 -59.85,14.20 -59.94,14.01 -59.99,13.81 -60.03,13.61 -60.03,13.40 -60.02,13.20 -59.97,13.00 -59.91,12.80 -59.81,12.61 -59.71,12.43 -59.57,12.28 -59.43,12.13 -59.26,12.02 -59.09,11.90 -58.89,11.83 -58.69,11.76 -58.49,11.74 -58.28,11.72 -57.02,11.85 -55.76,11.98 -53.65,12.01 -51.55,12.03 -48.74,12.10 -45.94,12.17 -42.78,12.05 -39.62,11.94 -37.26,11.75 -34.90,11.56 -33.29,11.13 -31.68,10.70 -31.02,9.61 -30.35,8.51 -29.62,6.51 -28.89,4.51 -27.94,1.87 -27.00,-0.76 -25.94,-3.77 -24.88,-6.77 -23.85,-9.66 -22.82,-12.54 -22.02,-14.81 -21.22,-17.07 -19.93,-20.02 -18.63,-22.97 -17.19,-25.72 -15.74,-28.46 -14.57,-30.76 -13.40,-33.06 -11.75,-35.92 -10.10,-38.79 -8.66,-41.46 -7.22,-44.14 -6.12,-46.49 -5.01,-48.84 -4.22,-50.78 -3.43,-52.73 -2.94,-54.91 -2.46,-57.09 -2.40,-58.34 -2.33,-59.59 -2.26,-59.78 -2.18,-59.97 -2.06,-60.14 -1.94,-60.31 -1.79,-60.45 -1.63,-60.58 -1.44,-60.68 -1.26,-60.77 -1.06,-60.82 -0.86,-60.86 -0.65,-60.86 -0.44,-60.86 -0.24,-60.81 -0.04,-60.76 0.13,-60.66 0.31,-60.56 0.47,-60.42 0.62,-60.28 0.74,-60.11 0.85,-59.94 0.92,-59.74 0.99,-59.55 1.02,-59.34 1.04,-59.13 1.01,-58.93 0.98,-58.72 0.55,-57.94 0.11,-57.16 -0.02,-55.23 -0.17,-53.29 -0.05,-49.26 0.06,-45.22 0.58,-39.00 1.10,-32.77 2.28,-25.39 3.47,-18.01 4.98,-14.15 6.50,-10.29 8.72,-6.29 10.94,-2.29 12.75,-0.11 14.56,2.05 15.96,1.51 17.35,0.97 17.42,-0.42 17.50,-1.81 17.11,-4.88 16.72,-7.95 15.81,-12.01 14.89,-16.06 12.76,-21.53 10.62,-26.99 6.67,-32.41 2.72,-37.84 -1.96,-41.38 -6.65,-44.91 -13.11,-46.85 -19.58,-48.78 -24.95,-48.30 -30.32,-47.82 -34.69,-46.73 -39.05,-45.65 -42.47,-43.44 -45.88,-41.23 -48.19,-37.97 -50.50,-34.71 -51.66,-30.61 -52.81,-26.50 -52.52,-21.64 -52.22,-16.78 -51.23,-12.92 -50.24,-9.06 -47.92,-6.19 -45.60,-3.32 -41.87,-2.35 -38.15,-1.38 -32.18,-1.40 -26.21,-1.41 -21.81,-1.43 -17.40,-1.45 -13.81,-1.48 -10.21,-1.51 -7.05,-1.55 -3.90,-1.58 -1.95,-1.58 0,-1.57 0.18,-1.55 0.37,-1.53 0.55,-1.46 0.73,-1.39 0.88,-1.28 1.04,-1.18 1.17,-1.03 1.29,-0.89 1.38,-0.72 1.47,-0.55 1.52,-0.37 1.56,-0.19 1.56,0.00 1.56,0.19 1.52,0.37 1.47,0.55 1.38,0.72 1.29,0.89 1.17,1.03 1.04,1.18 0.88,1.28 0.73,1.39 0.55,1.46 0.37,1.53 0.18,1.55 -0.00,1.57 -0.00,1.57 L 0,1.57 Z"></path></g></svg>
