<?xml version="1.0" encoding="UTF-8" standalone="no"?>
<!DOCTYPE svg PUBLIC "-//W3C//DTD SVG 1.1//EN" "http://www.w3.org/Graphics/SVG/1.1/DTD/svg11.dtd">
<svg width="100%" height="100%" viewBox="0 0 271 131" version="1.1" xmlns="http://www.w3.org/2000/svg" xmlns:xlink="http://www.w3.org/1999/xlink" xml:space="preserve" xmlns:serif="http://www.serif.com/" style="fill-rule:evenodd;clip-rule:evenodd;stroke-linejoin:round;stroke-miterlimit:2;">
    <g transform="matrix(10.003,0,0,9.9931,0,0)">
        <g transform="matrix(0.25,0,0,0.25,0,-0.140961)">
            <path d="M86.126,3.102L85.702,3.846C81.24,11.668 82.707,21.565 89.24,27.724L89.985,28.426L90.978,28.194C99.683,26.161 105.85,18.331 105.858,9.303L105.859,8.445C104.031,7.297 101.94,6.81 99.895,6.96C99.52,6.182 99.036,5.318 98.551,4.574C101.552,4.064 104.716,4.669 107.4,6.432L107.797,6.693C108.153,6.927 108.368,7.327 108.367,7.756L108.366,9.305C108.358,19.512 101.384,28.364 91.542,30.663L89.9,31.046C89.493,31.141 89.067,31.026 88.762,30.738L87.529,29.576C80.143,22.613 78.485,11.424 83.528,2.581L84.294,1.238C84.506,0.867 84.89,0.629 85.314,0.606L85.786,0.581C91.247,0.288 96.46,3.862 98.222,9.072L98.318,9.358C98.623,10.26 98.524,11.251 98.045,12.073C96.126,15.371 91.127,14.018 91.097,10.192C91.089,9.239 91.493,8.33 92.204,7.703L92.429,7.504C92.681,7.282 92.785,7.189 93.05,6.99C93.544,7.408 94.315,8.654 94.514,9.048C94.313,9.2 94.271,9.243 94.079,9.413L93.854,9.611C93.694,9.752 93.603,9.957 93.605,10.171C93.614,11.426 95.254,11.87 95.884,10.788C95.991,10.604 96.014,10.38 95.945,10.177L95.849,9.892C94.451,5.758 90.486,2.96 86.126,3.102Z" style="fill:white;fill-rule:nonzero;"/>
        </g>
        <g transform="matrix(0.25,0,0,0.25,0,-0.140961)">
            <path d="M9.797,22.73C8.929,22.73 8.675,22.982 8.675,23.403C8.675,23.949 9.056,24.159 10.389,24.159C11.51,24.159 11.955,24.39 11.955,25.21L11.955,26.471C11.955,28.531 10.833,29.581 8.633,29.581C5.163,29.581 3.385,26.324 3.385,23.15C3.385,19.998 5.205,16.383 8.802,16.383C10.96,16.383 12.251,17.266 13.055,19.115C13.182,19.409 13.351,19.746 13.732,19.746C14.176,19.746 14.367,19.515 14.367,19.052L14.367,17.308C14.367,15.711 10.579,14.954 8.654,14.954C4.147,14.954 0,18.19 0,23.15C0,28.068 3.872,31.011 8.4,31.011C12.103,31.011 15.15,29.182 15.15,28.468C15.15,28.089 14.875,27.144 14.875,26.009C14.875,25.799 15.107,23.508 15.107,23.382C15.107,22.814 14.578,22.73 13.796,22.73L9.797,22.73Z" style="fill:white;fill-rule:nonzero;"/>
        </g>
        <g transform="matrix(0.25,0,0,0.25,0,-0.140961)">
            <path d="M16.402,25.904C16.423,28.909 18.878,30.885 21.797,30.885C24.358,30.885 26.685,29.203 26.685,28.152C26.685,27.879 26.537,27.669 26.199,27.669C25.818,27.669 25.67,27.879 25.416,28.11C24.527,28.909 23.702,29.308 22.453,29.371C20.993,29.371 19.745,28.384 19.491,26.807C21.692,26.681 26.495,26.177 26.516,23.34C26.537,21.238 24.209,20.418 22.432,20.418C18.476,20.418 16.423,22.646 16.402,25.904ZM22.242,21.553C23.194,21.553 23.765,22.1 23.765,23.045C23.765,25.147 20.422,25.567 19.322,25.672C19.28,23.571 20.211,21.553 22.242,21.553Z" style="fill:white;fill-rule:nonzero;"/>
        </g>
        <g transform="matrix(0.25,0,0,0.25,0,-0.140961)">
            <path d="M35.451,28.573C35.451,29.96 34.456,29.308 34.456,30.107C34.456,30.464 34.689,30.674 35.239,30.674L38.413,30.674C38.963,30.674 39.196,30.464 39.196,30.107C39.196,29.308 38.201,29.96 38.201,28.573L38.201,24.538C38.201,21.721 36.995,20.418 34.372,20.418C32.954,20.418 31.811,21.028 30.88,22.1C30.838,20.839 30.753,20.418 30.119,20.418C29.695,20.418 27.368,20.839 27.368,21.637C27.368,22.604 28.489,21.805 28.489,23.445L28.489,28.573C28.489,29.96 27.495,29.308 27.495,30.107C27.495,30.464 27.728,30.674 28.278,30.674L31.452,30.674C32.002,30.674 32.234,30.464 32.234,30.107C32.234,29.308 31.24,29.96 31.24,28.573L31.24,24.243C31.24,23.15 32.044,21.973 33.441,21.973C35.324,21.973 35.451,23.192 35.451,24.706L35.451,28.573Z" style="fill:white;fill-rule:nonzero;"/>
        </g>
        <g transform="matrix(0.25,0,0,0.25,0,-0.140961)">
            <path d="M40.039,23.781C40.039,27.522 45.646,25.862 45.646,28.131C45.646,28.993 44.8,29.624 43.699,29.624C41.562,29.624 41.584,27.564 40.526,27.564C39.975,27.564 39.679,28.152 39.679,28.636C39.679,29.329 41.372,30.885 43.763,30.885C46.535,30.885 48.397,29.497 48.397,27.27C48.397,23.739 42.705,25.042 42.705,23.066C42.705,22.52 43.022,21.679 44.398,21.679C46.535,21.679 46.514,23.382 47.445,23.382C47.804,23.382 47.91,23.276 47.91,21.952C47.91,21.301 46.662,20.418 44.398,20.418C42.345,20.418 40.039,21.427 40.039,23.781Z" style="fill:white;fill-rule:nonzero;"/>
        </g>
        <g transform="matrix(0.25,0,0,0.25,0,-0.140961)">
            <path d="M63.873,30.674C64.72,30.674 64.889,30.485 64.889,30.023C64.889,29.539 63.873,29.687 63.873,28.636L63.873,15.416C63.873,14.786 63.704,14.66 63.112,14.66C62.519,14.66 60.784,15.164 60.445,15.29C60.213,15.374 59.937,15.584 59.937,15.879C59.937,16.593 61.123,16.362 61.123,17.392L61.123,21.259C60.276,20.691 59.578,20.418 58.562,20.418C55.452,20.418 53.378,22.898 53.378,25.883C53.378,28.531 54.69,30.885 57.907,30.885C59.472,30.885 60.467,30.443 61.313,29.434C61.376,30.212 61.334,30.674 62.307,30.674L63.873,30.674ZM61.123,27.48C61.123,28.531 60.043,29.455 58.901,29.455C57.441,29.455 56.298,28.278 56.298,25.609C56.298,22.94 57.441,21.763 58.901,21.763C60.128,21.763 61.123,22.478 61.123,23.781L61.123,27.48Z" style="fill:white;fill-rule:nonzero;"/>
        </g>
        <g transform="matrix(0.25,0,0,0.25,0,-0.140961)">
            <path d="M65.27,25.904C65.291,28.909 67.746,30.885 70.665,30.885C73.226,30.885 75.553,29.203 75.553,28.152C75.553,27.879 75.405,27.669 75.067,27.669C74.685,27.669 74.538,27.879 74.283,28.11C73.395,28.909 72.57,29.308 71.322,29.371C69.861,29.371 68.613,28.384 68.359,26.807C70.56,26.681 75.363,26.177 75.384,23.34C75.405,21.238 73.077,20.418 71.3,20.418C67.344,20.418 65.291,22.646 65.27,25.904ZM71.11,21.553C72.062,21.553 72.633,22.1 72.633,23.045C72.633,25.147 69.29,25.567 68.19,25.672C68.148,23.571 69.079,21.553 71.11,21.553Z" style="fill:white;fill-rule:nonzero;"/>
        </g>
        <g transform="matrix(0.25,0,0,0.25,0,-0.140961)">
            <path d="M0.035,44.462C0.012,44.677 0,44.919 0,45.192C0,49.53 3.611,53 7.886,53C11.539,53 14.175,50.71 14.175,49.505C14.175,49.284 13.905,49.003 13.532,49.003C12.743,49.003 11.664,51.433 8.551,51.433C4.919,51.433 3.321,48.541 3.321,45.287L3.321,45.253C3.334,42.343 5.09,38.93 8.585,38.93C10.69,38.93 11.949,39.747 12.733,41.458C12.857,41.73 13.022,42.041 13.394,42.041C13.827,42.041 14.013,41.827 14.013,41.4L14.013,39.785C14.013,38.308 10.319,37.607 8.441,37.607C4.282,37.607 0.438,40.287 0.035,44.462Z" style="fill:white;fill-rule:nonzero;"/>
        </g>
        <g transform="matrix(0.25,0,0,0.25,0,-0.140961)">
            <path d="M26.238,47.878C26.238,44.906 23.727,42.877 20.613,42.877C17.5,42.877 14.989,44.906 14.989,47.878C14.989,50.851 17.5,52.88 20.613,52.88C23.727,52.88 26.238,50.851 26.238,47.878ZM17.853,47.878C17.853,45.368 19.057,44.082 20.613,44.082C22.17,44.082 23.374,45.368 23.374,47.878C23.374,50.389 22.17,51.675 20.613,51.675C19.057,51.675 17.853,50.389 17.853,47.878Z" style="fill:white;fill-rule:nonzero;"/>
        </g>
        <g transform="matrix(0.25,0,0,0.25,0,-0.140961)">
            <path d="M34.485,50.67C34.485,51.996 33.51,51.373 33.51,52.136C33.51,52.478 33.738,52.679 34.278,52.679L37.391,52.679C37.93,52.679 38.159,52.478 38.159,52.136C38.159,51.373 37.183,51.996 37.183,50.67L37.183,46.814C37.183,44.122 36,42.877 33.427,42.877C32.036,42.877 30.916,43.459 30.003,44.484C29.961,43.279 29.878,42.877 29.255,42.877C28.84,42.877 26.557,43.279 26.557,44.042C26.557,44.966 27.657,44.203 27.657,45.769L27.657,50.67C27.657,51.996 26.682,51.373 26.682,52.136C26.682,52.478 26.91,52.679 27.45,52.679L30.563,52.679C31.103,52.679 31.331,52.478 31.331,52.136C31.331,51.373 30.355,51.996 30.355,50.67L30.355,46.533C30.355,45.488 31.144,44.363 32.514,44.363C34.361,44.363 34.485,45.528 34.485,46.974L34.485,50.67Z" style="fill:white;fill-rule:nonzero;"/>
        </g>
        <g transform="matrix(0.25,0,0,0.25,0,-0.140961)">
            <path d="M40.044,50.67C40.044,51.996 39.069,51.373 39.069,52.136C39.069,52.478 39.297,52.679 39.837,52.679L42.95,52.679C43.489,52.679 43.718,52.478 43.718,52.136C43.718,51.373 42.742,51.996 42.742,50.67L42.742,44.363L45.274,44.363C46.104,44.363 46.374,44.644 46.374,45.689L46.374,50.69C46.374,52.016 45.399,51.393 45.399,52.156C45.399,52.498 45.627,52.679 46.167,52.679L49.28,52.679C49.819,52.679 50.047,52.498 50.047,52.156C50.047,51.393 49.072,52.016 49.072,50.69L49.072,44.042C49.072,43.319 48.844,43.078 48.325,43.078L42.701,43.078L42.701,40.828C42.701,39.342 43.282,38.699 44.652,38.699C45.523,38.699 46.146,39.061 46.146,39.503C46.146,39.744 46.021,39.985 46.021,40.266C46.021,40.949 46.727,41.551 47.64,41.551C48.595,41.551 49.217,41.029 49.217,40.266C49.217,38.338 47.516,37.213 44.942,37.213C41.995,37.213 40.065,38.659 40.065,42.194L40.065,43.078L39.338,43.078C38.861,43.078 38.55,43.218 38.55,43.721C38.55,44.223 38.861,44.363 39.338,44.363L40.044,44.363L40.044,50.67Z" style="fill:white;fill-rule:nonzero;"/>
        </g>
        <g transform="matrix(0.25,0,0,0.25,0,-0.140961)">
            <path d="M60.214,52.679C61.044,52.679 61.21,52.498 61.21,52.056C61.21,51.474 60.172,51.735 60.172,50.73L60.172,46.412C60.172,43.841 57.972,42.877 55.253,42.877C53.406,42.877 51.372,43.48 51.372,44.444C51.372,44.986 51.788,45.247 52.286,45.247C53.614,45.247 53.759,44.082 55.399,44.082C56.769,44.082 57.474,44.966 57.474,46.131C54.486,46.131 50.667,47.175 50.667,49.907C50.667,51.474 51.954,52.88 54.319,52.88C55.71,52.88 57.017,52.438 57.599,51.594L57.681,51.594C57.64,52.237 57.723,52.679 58.595,52.679L60.214,52.679ZM57.474,49.545C57.433,50.51 56.748,51.755 55.399,51.755C54.319,51.755 53.531,50.811 53.531,49.887C53.531,48.621 55.067,47.216 57.474,47.216L57.474,49.545Z" style="fill:white;fill-rule:nonzero;"/>
        </g>
        <g transform="matrix(0.25,0,0,0.25,0,-0.140961)">
            <path d="M69.756,50.67C69.756,51.996 68.781,51.373 68.781,52.136C68.781,52.478 69.009,52.679 69.549,52.679L72.662,52.679C73.201,52.679 73.43,52.478 73.43,52.136C73.43,51.373 72.454,51.996 72.454,50.67L72.454,46.814C72.454,44.122 71.271,42.877 68.698,42.877C67.307,42.877 66.187,43.459 65.273,44.484C65.232,43.279 65.149,42.877 64.526,42.877C64.111,42.877 61.828,43.279 61.828,44.042C61.828,44.966 62.928,44.203 62.928,45.769L62.928,50.67C62.928,51.996 61.953,51.373 61.953,52.136C61.953,52.478 62.181,52.679 62.721,52.679L65.834,52.679C66.373,52.679 66.602,52.478 66.602,52.136C66.602,51.373 65.626,51.996 65.626,50.67L65.626,46.533C65.626,45.488 66.415,44.363 67.785,44.363C69.632,44.363 69.756,45.528 69.756,46.974L69.756,50.67Z" style="fill:white;fill-rule:nonzero;"/>
        </g>
        <g transform="matrix(0.25,0,0,0.25,0,-0.140961)">
            <path d="M73.904,48.019C73.904,50.911 76.104,52.88 79.051,52.88C81.541,52.88 83.409,51.233 83.409,50.369C83.409,50.088 83.181,49.887 82.89,49.887C82.205,49.887 81.625,51.433 79.653,51.433C78.096,51.433 76.768,50.148 76.768,48.039C76.768,45.568 77.806,43.962 79.217,43.962C80.857,43.962 80.628,45.93 81.832,45.93C82.662,45.93 83.14,45.528 83.14,44.966C83.14,43.841 81.251,42.877 79.3,42.877C76.228,42.877 73.904,45.026 73.904,48.019Z" style="fill:white;fill-rule:nonzero;"/>
        </g>
        <g transform="matrix(0.25,0,0,0.25,0,-0.140961)">
            <path d="M84.073,48.119C84.094,50.992 86.502,52.88 89.365,52.88C91.877,52.88 94.16,51.273 94.16,50.268C94.16,50.007 94.014,49.807 93.682,49.807C93.309,49.807 93.163,50.007 92.914,50.228C92.043,50.992 91.233,51.373 90.009,51.433C88.577,51.433 87.353,50.489 87.103,48.983C89.262,48.862 93.973,48.38 93.994,45.669C94.014,43.66 91.731,42.877 89.988,42.877C86.107,42.877 84.094,45.006 84.073,48.119ZM89.801,43.962C90.736,43.962 91.295,44.484 91.295,45.388C91.295,47.396 88.017,47.798 86.938,47.898C86.896,45.89 87.809,43.962 89.801,43.962Z" style="fill:white;fill-rule:nonzero;"/>
        </g>
    </g>
</svg>
