<svg version="1.1" xmlns="http://www.w3.org/2000/svg" viewBox="0 0 354.37793915799466 378.80450638999037" width="708.7558783159893" height="757.6090127799807">
  <!-- svg-source:excalidraw -->

  <rect x="0" y="0" width="354.37793915799466" height="378.80450638999037" fill="transparent"></rect><g transform="translate(18.13046315246811 57.46361236762641) rotate(0 26.68014341676593 18.474927493290807)" stroke="none"><path fill="#ffffff" d="M 2.21,0 Q 2.21,0 2.09,2.11 1.98,4.22 1.89,6.32 1.81,8.43 1.74,10.68 1.67,12.94 1.76,14.30 1.84,15.65 1.91,17.01 1.98,18.36 2.12,19.64 2.25,20.93 2.29,21.23 2.33,21.53 2.30,21.81 2.26,22.09 2.16,22.35 2.07,22.61 1.90,22.85 1.74,23.08 1.53,23.27 1.32,23.45 1.07,23.58 0.82,23.71 0.55,23.78 0.28,23.85 -0.00,23.85 -0.28,23.85 -0.55,23.78 -0.82,23.71 -1.07,23.58 -1.32,23.45 -1.53,23.27 -1.75,23.08 -1.91,22.85 -2.07,22.61 -2.17,22.35 -2.26,22.09 -2.30,21.81 -2.33,21.53 -2.11,20.39 -1.89,19.24 -0.99,17.81 -0.08,16.37 0.86,15.71 1.81,15.04 2.87,14.56 3.93,14.07 5.58,13.62 7.22,13.16 8.41,12.98 9.60,12.79 8.91,11.67 8.21,10.55 7.42,9.24 6.62,7.92 6.27,6.39 5.92,4.86 6.15,2.85 6.39,0.85 7.14,-0.06 7.89,-0.97 9.05,-1.34 10.20,-1.72 11.72,-1.38 13.24,-1.04 14.94,-1.16 16.63,-1.28 17.97,-1.30 19.31,-1.31 21.06,-0.99 22.82,-0.67 23.96,1.15 25.11,2.97 25.26,4.75 25.42,6.53 25.49,8.01 25.57,9.49 25.71,10.83 25.85,12.17 26.00,13.93 26.14,15.68 26.18,16.81 26.22,17.93 26.21,19.01 26.21,20.09 26.23,21.43 26.25,22.77 26.28,23.97 26.31,25.17 26.35,26.35 26.38,27.54 25.61,29.55 24.85,31.55 23.40,32.18 21.96,32.80 20.73,32.90 19.50,32.99 18.37,33.00 17.25,33.00 15.66,32.72 14.06,32.43 12.96,31.98 11.85,31.52 13.61,31.25 15.36,30.99 15.99,30.10 16.63,29.21 16.65,30.31 16.67,31.40 16.51,33.01 16.35,34.61 15.69,35.81 15.03,37.00 14.77,35.88 14.50,34.76 13.46,34.05 12.42,33.33 13.72,32.51 15.01,31.69 16.82,30.91 18.62,30.12 20.45,29.67 22.27,29.21 23.68,29.13 25.09,29.05 26.41,29.02 27.72,29.00 28.98,28.99 30.24,28.99 31.30,29.31 32.37,29.64 33.88,30.17 35.39,30.70 36.94,31.23 38.50,31.76 39.61,32.14 40.72,32.52 40.75,31.24 40.78,29.96 40.79,28.90 40.80,27.83 40.80,26.77 40.80,25.70 40.29,24.49 39.78,23.27 39.17,22.15 38.57,21.02 37.88,19.21 37.20,17.39 36.93,16.23 36.67,15.06 36.20,13.48 35.74,11.90 36.29,9.66 36.84,7.43 37.73,6.70 38.62,5.97 39.78,5.95 40.93,5.94 42.34,6.11 43.75,6.28 45.42,6.32 47.10,6.36 48.62,6.38 50.14,6.39 51.34,6.36 52.55,6.34 53.90,7.05 55.26,7.77 53.25,8.16 51.24,8.56 51.66,8.61 52.09,8.66 52.49,8.81 52.89,8.96 53.24,9.21 53.60,9.45 53.88,9.77 54.16,10.09 54.36,10.47 54.56,10.85 54.67,11.27 54.77,11.69 54.77,12.11 54.77,12.54 54.67,12.96 54.56,13.38 54.36,13.76 54.16,14.14 53.88,14.46 53.60,14.78 53.24,15.02 52.89,15.26 52.49,15.42 52.09,15.57 51.66,15.62 51.24,15.67 51.88,15.55 52.52,15.43 51.96,15.55 51.39,15.67 50.82,15.60 50.25,15.53 49.73,15.29 49.21,15.04 48.80,14.64 48.38,14.24 48.12,13.73 47.85,13.22 47.77,12.65 47.68,12.08 47.78,11.51 47.88,10.94 48.15,10.44 48.42,9.93 48.85,9.54 49.27,9.15 49.79,8.91 50.32,8.68 50.89,8.62 51.46,8.56 52.03,8.69 52.59,8.82 53.08,9.12 53.57,9.43 53.93,9.87 54.30,10.31 54.51,10.85 54.72,11.38 54.74,11.96 54.77,12.53 54.61,13.09 54.45,13.64 54.12,14.11 53.79,14.59 53.33,14.93 52.87,15.27 52.32,15.45 51.78,15.63 51.20,15.62 50.62,15.62 50.08,15.43 49.54,15.24 49.08,14.89 48.63,14.53 48.31,14.05 47.99,13.57 47.84,13.02 47.69,12.46 47.73,11.89 47.77,11.31 47.99,10.78 48.21,10.25 48.58,9.81 48.96,9.38 50.10,8.97 51.24,8.56 51.66,8.61 52.09,8.66 52.49,8.81 52.89,8.96 53.24,9.21 53.60,9.45 53.88,9.77 54.16,10.09 54.36,10.47 54.56,10.85 54.67,11.27 54.77,11.68 54.77,12.11 54.77,12.54 54.67,12.96 54.56,13.38 54.36,13.76 54.16,14.14 53.88,14.46 53.60,14.78 53.24,15.02 52.89,15.26 52.49,15.42 52.09,15.57 51.66,15.62 51.24,15.67 51.89,14.53 52.55,13.40 51.34,13.37 50.13,13.34 48.60,13.35 47.07,13.36 45.27,13.38 43.47,13.40 41.98,13.07 40.49,12.75 41.69,12.04 42.89,11.34 43.44,13.11 43.99,14.88 44.57,16.25 45.15,17.62 45.72,18.82 46.30,20.02 46.93,21.29 47.56,22.56 47.81,24.14 48.06,25.71 48.05,27.24 48.04,28.77 48.04,30.11 48.03,31.46 47.87,32.95 47.71,34.45 47.16,35.92 46.61,37.40 45.41,38.40 44.21,39.40 42.53,39.63 40.85,39.86 39.53,39.51 38.21,39.17 37.07,38.78 35.94,38.40 34.47,37.96 32.99,37.51 31.46,36.85 29.93,36.18 28.85,36.18 27.76,36.17 26.55,36.17 25.33,36.17 23.97,36.25 22.61,36.33 21.29,36.87 19.98,37.40 18.85,38.03 17.73,38.65 16.84,39.30 15.94,39.95 14.51,40.37 13.09,40.80 11.43,39.88 9.78,38.97 9.09,37.16 8.41,35.35 8.71,34.32 9.01,33.28 9.16,32.05 9.31,30.83 9.35,29.59 9.39,28.35 10.12,27.02 10.85,25.69 12.09,25.31 13.33,24.93 15.29,25.36 17.25,25.79 18.31,26.37 19.37,26.96 19.40,25.74 19.43,24.53 19.46,23.17 19.48,21.81 19.43,20.03 19.37,18.26 19.17,16.38 18.97,14.50 18.81,13.05 18.64,11.61 18.46,9.97 18.29,8.34 18.80,7.08 19.31,5.83 17.96,5.81 16.62,5.80 15.21,5.80 13.80,5.81 12.44,5.48 11.07,5.15 11.85,4.28 12.63,3.42 12.76,4.54 12.88,5.67 13.88,7.27 14.88,8.88 15.27,10.16 15.65,11.44 15.58,12.90 15.51,14.36 15.12,15.52 14.73,16.67 13.66,17.53 12.59,18.39 10.98,18.60 9.37,18.81 8.24,18.96 7.11,19.11 5.85,19.44 4.60,19.76 3.47,20.65 2.33,21.53 2.30,21.81 2.26,22.09 2.17,22.35 2.07,22.61 1.91,22.85 1.75,23.08 1.53,23.27 1.32,23.45 1.07,23.58 0.82,23.71 0.55,23.78 0.28,23.85 0.00,23.85 -0.28,23.85 -0.55,23.78 -0.82,23.71 -1.07,23.58 -1.32,23.45 -1.53,23.27 -1.74,23.08 -1.90,22.85 -2.07,22.61 -2.16,22.35 -2.26,22.09 -2.30,21.81 -2.33,21.53 -2.29,21.23 -2.25,20.93 -2.12,19.64 -1.98,18.36 -1.91,17.01 -1.84,15.65 -1.76,14.30 -1.67,12.94 -1.74,10.68 -1.81,8.43 -1.89,6.32 -1.98,4.22 -2.09,2.11 -2.21,0 -2.17,-0.26 -2.14,-0.52 -2.05,-0.77 -1.95,-1.02 -1.80,-1.24 -1.65,-1.46 -1.45,-1.64 -1.25,-1.81 -1.02,-1.94 -0.78,-2.06 -0.52,-2.13 -0.26,-2.19 0.00,-2.19 0.26,-2.19 0.52,-2.13 0.78,-2.06 1.02,-1.94 1.25,-1.81 1.45,-1.64 1.65,-1.46 1.80,-1.24 1.95,-1.02 2.05,-0.77 2.14,-0.52 2.17,-0.26 2.21,0.00 2.21,0.00 L 2.21,0 Z"></path></g><g transform="translate(142.03537970749585 37.997111353036416) rotate(0 28.331300211656014 -7.101513245665728)" stroke="none"><path fill="#ffffff" d="M -2.17,0 Q -2.17,0 -2.06,-2.17 -1.94,-4.35 -1.27,-7.98 -0.60,-11.62 0.10,-14.12 0.80,-16.63 1.52,-18.51 2.23,-20.38 2.54,-21.47 2.84,-22.57 4.85,-23.63 6.85,-24.70 8.29,-23.40 9.72,-22.10 11.62,-19.52 13.52,-16.93 15.73,-14.08 17.95,-11.23 19.64,-9.11 21.33,-6.98 23.16,-4.35 25.00,-1.72 26.51,0.65 28.02,3.03 29.02,4.81 30.02,6.58 30.66,7.85 31.31,9.11 31.66,10.20 32.02,11.30 32.00,12.79 31.97,14.29 30.59,15.13 29.21,15.98 28.14,16.11 27.08,16.24 25.60,16.33 24.13,16.43 22.56,16.06 21.00,15.70 19.43,15.03 17.87,14.36 16.36,13.61 14.84,12.85 13.73,12.25 12.62,11.65 11.24,10.33 9.86,9.01 10.31,7.10 10.76,5.19 12.49,4.56 14.21,3.94 15.28,3.90 16.36,3.87 17.51,3.81 18.66,3.74 19.36,2.03 20.06,0.31 21.06,-2.71 22.05,-5.75 23.10,-8.83 24.15,-11.92 25.19,-15.14 26.23,-18.36 26.89,-20.29 27.56,-22.21 28.13,-23.82 28.69,-25.43 29.48,-27.07 30.26,-28.71 30.20,-28.63 30.13,-28.54 30.29,-28.76 30.46,-28.98 30.67,-29.15 30.88,-29.32 31.12,-29.43 31.37,-29.55 31.64,-29.60 31.90,-29.65 32.17,-29.64 32.44,-29.63 32.70,-29.55 32.96,-29.47 33.20,-29.33 33.43,-29.20 33.62,-29.01 33.82,-28.82 33.96,-28.59 34.11,-28.36 34.19,-28.10 34.27,-27.84 34.29,-27.57 34.31,-27.30 34.27,-27.04 34.22,-26.77 34.12,-26.52 34.01,-26.27 34.81,-25.21 35.61,-24.14 36.59,-23.36 37.57,-22.59 40.04,-20.58 42.51,-18.57 44.87,-16.60 47.23,-14.63 49.34,-12.76 51.46,-10.88 52.71,-9.85 53.96,-8.82 55.04,-7.68 56.12,-6.55 56.84,-5.67 57.56,-4.80 58.22,-2.98 58.88,-1.16 59.06,0.41 59.24,1.98 59.33,3.12 59.42,4.25 59.37,5.43 59.32,6.60 59.22,7.90 59.13,9.20 58.70,10.67 58.28,12.13 57.71,13.42 57.15,14.70 56.29,15.43 55.43,16.15 54.07,16.49 52.70,16.82 50.83,16.77 48.96,16.72 47.18,16.63 45.39,16.54 43.78,16.38 42.17,16.22 40.52,15.27 38.87,14.33 37.92,12.67 36.96,11.01 36.65,9.29 36.33,7.56 36.36,5.83 36.39,4.09 37.04,2.36 37.68,0.62 38.37,-0.49 39.06,-1.62 40.55,-2.95 42.03,-4.28 44.27,-3.92 46.51,-3.55 47.15,-2.34 47.79,-1.14 47.86,0.54 47.93,2.23 47.95,4.07 47.97,5.92 47.46,9.19 46.95,12.47 46.61,12.85 46.27,13.23 45.83,13.48 45.39,13.73 44.89,13.82 44.40,13.92 43.90,13.85 43.39,13.79 42.94,13.56 42.48,13.34 42.13,12.98 41.77,12.62 41.54,12.17 41.31,11.72 41.24,11.21 41.17,10.71 41.27,10.21 41.36,9.72 41.61,9.27 41.86,8.83 42.24,8.49 42.61,8.15 43.08,7.95 43.54,7.75 44.05,7.71 44.55,7.67 45.05,7.79 45.54,7.91 45.96,8.18 46.39,8.45 46.71,8.85 47.03,9.24 47.20,9.72 47.38,10.19 47.40,10.70 47.41,11.21 47.26,11.69 47.11,12.18 46.82,12.59 46.52,13.00 46.11,13.30 45.70,13.59 45.22,13.74 44.73,13.89 44.23,13.88 43.72,13.87 43.25,13.69 42.77,13.52 42.37,13.20 41.98,12.89 41.70,12.46 41.43,12.03 41.31,11.54 41.18,11.05 41.22,10.55 41.26,10.04 41.46,9.57 41.66,9.11 41.66,9.11 41.66,9.11 41.71,7.52 41.77,5.93 41.77,4.10 41.78,2.28 41.88,0.92 41.98,-0.44 42.75,0.44 43.53,1.33 42.59,2.81 41.65,4.29 41.79,6.53 41.94,8.76 42.42,9.83 42.91,10.89 44.12,10.94 45.34,10.98 47.07,10.86 48.81,10.73 50.61,10.47 52.41,10.21 52.93,8.66 53.45,7.11 53.67,5.70 53.88,4.29 53.95,3.20 54.02,2.11 54.07,0.35 54.13,-1.40 53.62,-2.66 53.12,-3.93 52.31,-4.96 51.49,-5.99 50.33,-7.06 49.17,-8.13 47.00,-9.83 44.83,-11.52 42.36,-13.28 39.90,-15.04 37.14,-16.88 34.38,-18.73 32.73,-20.13 31.07,-21.54 30.63,-22.53 30.20,-23.51 30.03,-24.87 29.85,-26.23 29.99,-27.39 30.13,-28.54 30.29,-28.76 30.46,-28.98 30.67,-29.15 30.88,-29.32 31.12,-29.43 31.37,-29.55 31.64,-29.60 31.90,-29.65 32.17,-29.64 32.44,-29.63 32.70,-29.55 32.96,-29.47 33.20,-29.33 33.43,-29.20 33.62,-29.01 33.82,-28.82 33.96,-28.59 34.11,-28.36 34.19,-28.10 34.27,-27.85 34.29,-27.57 34.31,-27.30 34.27,-27.04 34.22,-26.77 34.12,-26.52 34.01,-26.27 33.72,-26.12 33.44,-25.96 32.86,-25.03 32.29,-24.09 31.70,-22.59 31.12,-21.08 30.58,-19.18 30.04,-17.28 29.22,-13.99 28.41,-10.69 27.68,-7.58 26.95,-4.46 26.25,-1.03 25.54,2.38 24.90,4.25 24.26,6.12 23.44,7.24 22.61,8.36 20.66,9.08 18.70,9.79 17.58,9.75 16.47,9.71 14.99,9.39 13.52,9.07 13.99,7.72 14.46,6.37 15.72,7.31 16.98,8.26 18.42,8.88 19.87,9.50 22.02,10.27 24.17,11.04 25.57,11.12 26.98,11.21 27.63,12.19 28.28,13.17 28.19,11.80 28.11,10.44 27.73,9.25 27.35,8.07 26.42,6.38 25.48,4.69 23.95,2.41 22.42,0.13 20.57,-2.33 18.73,-4.81 16.92,-6.86 15.11,-8.91 12.73,-11.66 10.35,-14.41 8.31,-17.78 6.26,-21.15 5.80,-20.17 5.33,-19.19 4.67,-17.50 4.00,-15.80 3.45,-13.42 2.90,-11.04 2.42,-7.69 1.94,-4.34 2.06,-2.17 2.17,0 2.14,0.26 2.11,0.52 2.01,0.76 1.92,1.01 1.77,1.22 1.62,1.44 1.43,1.61 1.23,1.78 1.00,1.91 0.77,2.03 0.51,2.09 0.26,2.15 -0.00,2.15 -0.26,2.15 -0.51,2.09 -0.77,2.03 -1.00,1.91 -1.23,1.78 -1.43,1.61 -1.62,1.44 -1.77,1.22 -1.92,1.01 -2.01,0.76 -2.11,0.52 -2.14,0.25 -2.17,-0.00 -2.17,-0.00 L -2.17,0 Z"></path></g><g transform="translate(297.21333787439653 126.13502559212282) rotate(0 -5.353617570648964 30.37380974887691)" stroke="none"><path fill="#ffffff" d="M 0,2.08 Q 0,2.08 -1.57,2.10 -3.14,2.12 -5.00,2.08 -6.85,2.04 -8.68,2.01 -10.51,1.99 -11.92,2.04 -13.32,2.09 -14.44,2.36 -15.56,2.63 -15.84,2.60 -16.11,2.56 -16.38,2.46 -16.64,2.36 -16.87,2.20 -17.10,2.04 -17.29,1.83 -17.47,1.62 -17.60,1.38 -17.73,1.13 -17.80,0.85 -17.87,0.58 -17.87,0.30 -17.87,0.02 -17.80,-0.24 -17.73,-0.51 -17.60,-0.76 -17.47,-1.01 -17.29,-1.22 -17.10,-1.43 -16.87,-1.59 -16.64,-1.75 -16.38,-1.85 -16.11,-1.95 -15.84,-1.98 -15.56,-2.02 -13.96,-0.69 -12.36,0.62 -10.96,3.18 -9.56,5.74 -7.77,9.29 -5.99,12.84 -4.25,16.54 -2.51,20.24 -0.94,23.97 0.63,27.70 1.80,30.87 2.97,34.04 3.67,36.24 4.37,38.44 4.87,39.59 5.36,40.74 5.82,41.58 6.27,42.41 6.31,42.65 6.34,42.88 6.32,43.12 6.30,43.35 6.22,43.58 6.15,43.80 6.02,44.00 5.89,44.20 5.72,44.36 5.55,44.52 5.34,44.64 5.13,44.76 4.91,44.82 4.68,44.89 4.44,44.89 4.21,44.90 3.97,44.85 3.74,44.80 3.53,44.70 3.32,44.60 3.13,44.44 2.95,44.29 2.81,44.10 2.67,43.91 2.58,43.69 2.49,43.47 2.65,42.38 2.82,41.28 3.56,39.28 4.31,37.28 5.13,36.16 5.95,35.03 7.06,34.10 8.17,33.16 9.43,32.57 10.69,31.98 12.12,31.40 13.55,30.83 15.78,31.18 18.00,31.54 18.41,32.80 18.82,34.06 18.27,35.28 17.72,36.50 15.39,37.48 13.05,38.45 11.72,38.49 10.38,38.53 7.19,37.08 4.00,35.64 1.63,33.92 -0.73,32.20 -2.78,30.56 -4.83,28.93 -6.46,27.67 -8.08,26.41 -9.21,25.67 -10.33,24.93 -9.65,24.01 -8.97,23.09 -8.09,23.92 -7.21,24.74 -6.72,25.75 -6.23,26.75 -6.66,28.20 -7.09,29.64 -8.02,30.48 -8.95,31.32 -12.64,31.98 -16.34,32.64 -21.79,32.98 -27.25,33.32 -32.70,33.41 -38.15,33.49 -42.83,33.49 -47.50,33.49 -50.55,32.88 -53.60,32.28 -55.16,31.67 -56.72,31.07 -57.57,28.95 -58.42,26.82 -55.45,25.71 -52.48,24.60 -48.70,24.54 -44.93,24.48 -39.80,24.48 -34.68,24.49 -30.11,24.39 -25.55,24.29 -21.06,23.96 -16.58,23.63 -11.87,22.75 -7.15,21.87 -3.95,21.03 -0.75,20.19 1.73,19.15 4.22,18.11 6.03,17.12 7.85,16.14 8.92,15.34 10.00,14.55 10.65,13.58 11.29,12.61 11.16,10.90 11.03,9.18 10.99,6.95 10.95,4.72 11.11,2.40 11.26,0.07 11.27,-2.07 11.28,-4.22 11.20,-6.33 11.12,-8.44 11.01,-10.12 10.90,-11.80 10.58,-13.25 10.26,-14.70 10.29,-14.78 10.31,-14.86 10.31,-15.13 10.32,-15.40 10.39,-15.65 10.45,-15.91 10.58,-16.14 10.71,-16.38 10.89,-16.57 11.07,-16.77 11.29,-16.92 11.51,-17.07 11.76,-17.16 12.01,-17.25 12.28,-17.28 12.54,-17.30 12.81,-17.27 13.07,-17.23 13.32,-17.13 13.56,-17.03 13.78,-16.88 14.00,-16.73 14.17,-16.52 14.34,-16.32 14.46,-16.08 14.58,-15.85 14.64,-15.59 14.70,-15.33 16.31,-14.06 17.91,-12.79 18.73,-11.91 19.55,-11.02 20.74,-9.78 21.93,-8.55 23.16,-6.79 24.38,-5.04 25.24,-3.60 26.10,-2.17 27.00,-0.62 27.89,0.93 28.48,1.93 29.07,2.93 29.61,3.92 30.15,4.92 30.57,5.98 30.98,7.04 31.25,9.02 31.51,11.01 30.46,12.83 29.41,14.65 28.25,15.79 27.09,16.93 25.96,17.92 24.83,18.92 24.00,19.95 23.18,20.99 23.06,21.26 22.95,21.54 22.71,21.79 22.47,22.03 22.18,22.22 21.89,22.40 21.56,22.51 21.23,22.61 20.89,22.64 20.55,22.66 20.21,22.61 19.87,22.55 19.56,22.42 19.24,22.28 18.97,22.07 18.69,21.86 18.48,21.60 18.26,21.33 18.12,21.02 17.97,20.71 17.90,20.37 17.84,20.04 17.85,19.69 17.87,19.35 17.96,19.02 18.06,18.69 18.23,18.39 18.41,18.10 20.31,17.70 22.21,17.29 23.82,17.49 25.43,17.69 26.64,18.15 27.84,18.60 29.08,19.45 30.31,20.29 32.13,22.10 33.96,23.90 34.75,24.96 35.54,26.02 36.62,27.65 37.70,29.27 39.11,31.31 40.52,33.34 41.78,35.18 43.04,37.02 44.22,38.71 45.41,40.40 46.34,41.92 47.26,43.44 48.16,45.28 49.05,47.12 49.16,48.30 49.26,49.48 48.32,51.15 47.37,52.82 45.32,54.52 43.28,56.22 40.95,58.05 38.63,59.88 36.16,61.83 33.69,63.77 31.66,65.30 29.64,66.83 28.53,67.86 27.43,68.89 26.43,69.82 25.43,70.75 24.65,71.48 23.86,72.21 22.90,72.97 21.93,73.74 20.49,74.47 19.05,75.21 17.66,75.75 16.27,76.29 14.60,76.57 12.93,76.84 11.16,76.91 9.39,76.98 7.01,76.24 4.62,75.49 1.57,73.92 -1.48,72.35 -5.01,70.30 -8.54,68.24 -11.18,66.46 -13.82,64.67 -15.91,63.04 -18.00,61.42 -19.32,60.09 -20.65,58.76 -21.33,57.88 -22.02,57.00 -22.21,56.69 -22.39,56.38 -22.49,56.16 -22.59,55.95 -22.64,55.72 -22.68,55.49 -22.67,55.25 -22.66,55.02 -22.59,54.79 -22.52,54.57 -22.40,54.36 -22.28,54.16 -22.12,53.99 -21.96,53.82 -21.75,53.70 -21.55,53.57 -21.33,53.50 -21.11,53.43 -20.87,53.41 -20.64,53.39 -20.40,53.43 -20.17,53.47 -19.96,53.57 -19.74,53.66 -19.55,53.81 -19.37,53.95 -19.22,54.13 -19.07,54.32 -18.25,55.09 -17.42,55.87 -17.06,57.27 -16.69,58.67 -16.64,58.95 -16.59,59.23 -16.60,59.53 -16.61,59.82 -16.70,60.11 -16.78,60.39 -16.93,60.65 -17.08,60.91 -17.28,61.12 -17.49,61.34 -17.74,61.49 -17.99,61.65 -18.27,61.75 -18.55,61.84 -18.85,61.87 -19.14,61.89 -19.44,61.84 -19.73,61.79 -20.00,61.68 -20.28,61.56 -20.51,61.38 -20.75,61.21 -20.94,60.98 -21.13,60.75 -21.25,60.48 -21.38,60.21 -21.44,59.92 -21.50,59.63 -21.00,58.35 -20.49,57.07 -19.85,56.10 -19.20,55.13 -17.33,53.48 -15.47,51.83 -12.98,50.20 -10.49,48.57 -8.13,47.53 -5.78,46.48 -3.53,45.81 -1.28,45.14 0.46,44.78 2.21,44.42 3.46,44.20 4.71,43.98 5.91,44.13 7.12,44.29 8.19,45.19 9.26,46.10 10.05,47.86 10.83,49.61 10.91,51.14 10.99,52.67 10.80,54.25 10.61,55.84 9.06,58.31 7.52,60.78 5.81,62.60 4.10,64.42 2.59,65.83 1.08,67.24 0.13,68.20 -0.82,69.15 -1.82,70.14 -2.81,71.12 -3.61,71.93 -4.41,72.74 -5.50,73.89 -6.59,75.04 -7.91,76.23 -9.24,77.42 -10.22,78.11 -11.19,78.80 -11.52,78.93 -11.85,79.07 -12.20,79.12 -12.56,79.17 -12.91,79.13 -13.27,79.09 -13.60,78.97 -13.94,78.85 -14.23,78.66 -14.53,78.46 -14.77,78.20 -15.01,77.93 -15.18,77.62 -15.35,77.31 -15.45,76.97 -15.54,76.62 -15.54,76.27 -15.55,75.91 -15.47,75.56 -15.39,75.22 -15.23,74.90 -15.07,74.58 -14.84,74.31 -14.61,74.04 -14.32,73.83 -14.03,73.62 -14.87,74.75 -15.70,75.88 -15.82,74.21 -15.93,72.53 -15.60,70.52 -15.28,68.50 -15.07,68.05 -14.86,67.59 -14.51,67.23 -14.17,66.86 -13.73,66.63 -13.28,66.39 -12.79,66.31 -12.30,66.23 -11.80,66.31 -11.31,66.39 -10.86,66.62 -10.42,66.86 -10.07,67.22 -9.73,67.58 -9.52,68.04 -9.31,68.49 -9.25,68.99 -9.20,69.49 -9.30,69.98 -9.41,70.47 -9.67,70.90 -9.92,71.33 -10.31,71.65 -10.69,71.98 -11.15,72.16 -11.62,72.35 -12.12,72.38 -12.62,72.41 -13.10,72.27 -13.58,72.14 -14.00,71.86 -14.42,71.58 -14.72,71.18 -15.02,70.78 -15.18,70.31 -15.35,69.83 -15.35,69.33 -15.35,68.83 -15.19,68.36 -15.03,67.88 -14.73,67.48 -14.42,67.08 -14.01,66.80 -13.60,66.52 -13.11,66.38 -12.63,66.25 -12.13,66.27 -11.63,66.30 -11.16,66.48 -10.70,66.67 -10.31,66.99 -9.93,67.32 -9.67,67.75 -9.41,68.17 -9.31,68.66 -9.20,69.15 -9.25,69.65 -9.30,70.15 -9.30,70.15 -9.30,70.15 -9.56,71.27 -9.82,72.39 -9.83,73.59 -9.85,74.79 -10.52,76.80 -11.19,78.80 -11.52,78.93 -11.85,79.07 -12.20,79.12 -12.56,79.17 -12.91,79.13 -13.27,79.09 -13.60,78.97 -13.94,78.85 -14.23,78.66 -14.53,78.46 -14.77,78.20 -15.01,77.93 -15.18,77.62 -15.35,77.31 -15.44,76.97 -15.54,76.62 -15.54,76.27 -15.55,75.91 -15.47,75.56 -15.39,75.22 -15.23,74.90 -15.07,74.58 -14.84,74.31 -14.61,74.04 -14.32,73.83 -14.03,73.62 -13.76,73.59 -13.49,73.55 -12.50,72.92 -11.51,72.29 -10.35,71.28 -9.19,70.28 -8.35,69.55 -7.51,68.83 -6.63,68.22 -5.75,67.62 -4.62,66.89 -3.50,66.15 -2.51,65.37 -1.52,64.58 -0.20,63.21 1.12,61.84 2.42,60.17 3.73,58.51 4.70,56.76 5.67,55.01 5.83,53.94 6.00,52.86 5.97,51.64 5.93,50.42 5.50,49.14 5.07,47.86 3.95,47.89 2.83,47.91 1.29,48.13 -0.24,48.35 -2.22,49.06 -4.20,49.76 -6.19,50.81 -8.18,51.86 -10.23,53.45 -12.29,55.04 -14.44,57.13 -16.59,59.23 -16.60,59.52 -16.61,59.82 -16.70,60.11 -16.78,60.39 -16.93,60.65 -17.08,60.91 -17.28,61.12 -17.49,61.34 -17.74,61.49 -17.99,61.65 -18.27,61.75 -18.55,61.84 -18.85,61.87 -19.14,61.89 -19.44,61.84 -19.73,61.79 -20.00,61.68 -20.28,61.56 -20.51,61.38 -20.75,61.21 -20.94,60.98 -21.13,60.75 -21.25,60.48 -21.38,60.21 -21.44,59.92 -21.50,59.63 -21.46,58.97 -21.41,58.32 -21.90,57.35 -22.39,56.38 -22.49,56.16 -22.59,55.95 -22.64,55.72 -22.68,55.49 -22.67,55.25 -22.66,55.02 -22.59,54.79 -22.52,54.57 -22.40,54.36 -22.28,54.16 -22.12,53.99 -21.96,53.82 -21.76,53.70 -21.55,53.57 -21.33,53.50 -21.11,53.43 -20.87,53.41 -20.64,53.39 -20.40,53.43 -20.17,53.47 -19.96,53.57 -19.74,53.66 -19.55,53.81 -19.37,53.95 -19.22,54.13 -19.07,54.32 -18.66,55.44 -18.26,56.56 -17.21,57.78 -16.16,59.00 -14.12,60.50 -12.07,62.00 -9.48,63.64 -6.88,65.27 -3.37,67.15 0.12,69.03 2.93,70.30 5.73,71.57 7.48,71.99 9.23,72.40 10.76,72.30 12.28,72.20 13.49,72.07 14.70,71.94 15.90,71.54 17.10,71.13 18.24,70.63 19.38,70.13 21.17,68.97 22.96,67.80 24.05,66.99 25.14,66.19 26.37,65.23 27.61,64.27 29.54,62.68 31.46,61.08 33.81,59.03 36.16,56.98 38.29,55.03 40.42,53.08 41.98,51.49 43.54,49.90 44.13,49.01 44.71,48.11 44.34,46.73 43.97,45.36 43.22,43.99 42.46,42.63 41.17,41.04 39.87,39.45 38.44,37.79 37.01,36.12 35.34,34.27 33.67,32.42 31.74,30.13 29.81,27.84 28.83,26.89 27.85,25.94 26.74,25.01 25.62,24.07 24.19,23.56 22.76,23.04 21.70,22.91 20.63,22.78 21.79,22.16 22.95,21.54 22.71,21.79 22.47,22.03 22.18,22.22 21.89,22.40 21.56,22.51 21.23,22.61 20.89,22.64 20.55,22.66 20.21,22.61 19.87,22.55 19.56,22.42 19.24,22.28 18.97,22.07 18.70,21.86 18.48,21.60 18.26,21.33 18.12,21.02 17.97,20.71 17.90,20.37 17.84,20.04 17.85,19.69 17.87,19.35 17.96,19.02 18.06,18.69 18.23,18.39 18.41,18.10 18.99,17.36 19.58,16.61 20.40,15.77 21.23,14.94 22.23,14.00 23.23,13.07 24.61,11.48 25.99,9.89 25.73,8.59 25.48,7.29 24.59,5.45 23.70,3.60 22.68,2.15 21.67,0.71 20.75,-0.58 19.84,-1.88 18.79,-3.50 17.75,-5.12 16.74,-6.40 15.73,-7.68 15.05,-8.51 14.37,-9.34 12.96,-10.96 11.55,-12.59 10.93,-13.72 10.31,-14.86 10.31,-15.13 10.32,-15.40 10.39,-15.65 10.45,-15.91 10.58,-16.14 10.71,-16.38 10.89,-16.57 11.07,-16.77 11.29,-16.92 11.51,-17.07 11.76,-17.16 12.01,-17.25 12.28,-17.28 12.54,-17.30 12.81,-17.27 13.07,-17.23 13.32,-17.13 13.56,-17.03 13.78,-16.88 14.00,-16.73 14.17,-16.52 14.34,-16.32 14.46,-16.08 14.58,-15.85 14.64,-15.59 14.70,-15.33 14.62,-15.13 14.54,-14.94 14.58,-13.45 14.61,-11.96 14.64,-10.34 14.68,-8.72 14.93,-6.57 15.19,-4.42 15.41,-2.17 15.64,0.07 15.79,2.41 15.94,4.74 15.93,6.16 15.93,7.58 15.77,9.37 15.61,11.16 15.07,13.01 14.53,14.86 13.10,16.07 11.67,17.27 10.42,17.90 9.16,18.54 7.23,19.60 5.30,20.66 2.64,21.80 -0.01,22.93 -3.31,23.83 -6.60,24.73 -11.47,25.69 -16.33,26.64 -20.89,27.05 -25.44,27.46 -30.04,27.66 -34.64,27.87 -39.71,28.00 -44.79,28.13 -48.30,28.35 -51.80,28.57 -53.46,28.20 -55.12,27.83 -54.05,28.42 -52.97,29.01 -50.26,29.46 -47.55,29.90 -42.92,29.73 -38.30,29.56 -32.97,29.25 -27.64,28.93 -22.53,28.33 -17.42,27.73 -14.59,27.65 -11.76,27.58 -12.33,26.57 -12.90,25.57 -13.02,23.64 -13.15,21.71 -12.02,20.99 -10.90,20.28 -9.43,20.99 -7.97,21.69 -6.94,22.53 -5.90,23.38 -4.19,24.52 -2.47,25.66 -0.36,27.03 1.75,28.40 3.90,29.63 6.05,30.87 9.17,31.65 12.28,32.43 13.16,33.44 14.04,34.45 15.18,35.04 16.32,35.63 15.18,35.96 14.04,36.30 12.57,36.70 11.10,37.10 9.72,38.29 8.33,39.48 7.30,40.95 6.27,42.41 6.31,42.65 6.34,42.88 6.32,43.12 6.30,43.35 6.22,43.58 6.15,43.80 6.02,44.00 5.89,44.20 5.72,44.36 5.55,44.52 5.34,44.64 5.14,44.76 4.91,44.82 4.68,44.89 4.44,44.89 4.21,44.90 3.97,44.85 3.74,44.80 3.53,44.70 3.32,44.60 3.13,44.44 2.95,44.29 2.81,44.10 2.67,43.91 2.58,43.69 2.49,43.47 2.32,42.64 2.14,41.80 1.86,40.58 1.58,39.37 0.85,37.25 0.12,35.13 -1.09,32.06 -2.31,28.99 -3.96,25.38 -5.60,21.77 -7.45,18.19 -9.29,14.61 -11.20,11.25 -13.11,7.89 -14.33,5.26 -15.56,2.63 -15.84,2.60 -16.11,2.56 -16.38,2.46 -16.64,2.36 -16.87,2.20 -17.10,2.04 -17.29,1.83 -17.47,1.62 -17.60,1.38 -17.73,1.13 -17.80,0.85 -17.87,0.58 -17.87,0.30 -17.87,0.02 -17.80,-0.24 -17.73,-0.51 -17.60,-0.76 -17.47,-1.01 -17.29,-1.22 -17.10,-1.43 -16.87,-1.59 -16.64,-1.75 -16.38,-1.85 -16.11,-1.95 -15.84,-1.98 -15.56,-2.02 -14.44,-2.05 -13.32,-2.09 -11.92,-2.04 -10.51,-1.99 -8.68,-2.01 -6.85,-2.04 -5.00,-2.08 -3.14,-2.12 -1.57,-2.10 0,-2.08 0.24,-2.05 0.49,-2.02 0.73,-1.93 0.96,-1.84 1.17,-1.70 1.38,-1.56 1.55,-1.37 1.71,-1.18 1.83,-0.96 1.95,-0.73 2.01,-0.49 2.07,-0.25 2.07,0.00 2.07,0.25 2.01,0.49 1.95,0.73 1.83,0.96 1.71,1.18 1.55,1.37 1.38,1.56 1.17,1.70 0.96,1.84 0.73,1.93 0.49,2.02 0.24,2.05 -0.00,2.08 -0.00,2.08 L 0,2.08 Z"></path></g><g transform="translate(65.43137831260833 218.02816726885533) rotate(0 -8.89997697165785 12.272646110621167)" stroke="none"><path fill="#ffffff" d="M 1.46,1.88 Q 1.46,1.88 0.70,2.53 -0.05,3.18 -1.37,4.14 -2.69,5.09 -4.87,6.18 -7.05,7.26 -8.88,7.83 -10.72,8.39 -12.17,8.67 -13.61,8.95 -13.75,10.09 -13.89,11.24 -13.98,12.93 -14.06,14.62 -14.17,16.56 -14.28,18.50 -14.31,20.20 -14.34,21.91 -14.22,23.10 -14.11,24.29 -12.49,24.86 -10.87,25.43 -9.06,25.15 -7.25,24.87 -6.23,24.43 -5.21,24.00 -4.15,23.63 -3.09,23.26 -0.89,23.29 1.30,23.32 2.36,24.27 3.41,25.22 3.91,26.45 4.41,27.69 4.59,29.03 4.78,30.38 4.53,32.74 4.27,35.10 3.69,35.99 3.10,36.88 1.97,37.55 0.85,38.22 -1.12,37.45 -3.10,36.69 -3.68,35.75 -4.26,34.80 -4.23,33.16 -4.20,31.52 -3.23,29.52 -2.26,27.52 -1.08,26.06 0.08,24.60 1.14,23.59 2.20,22.58 3.16,21.70 4.12,20.82 4.35,20.57 4.59,20.32 4.89,20.11 5.18,19.91 5.52,19.78 5.86,19.66 6.21,19.61 6.57,19.57 6.92,19.62 7.28,19.66 7.61,19.79 7.95,19.91 8.24,20.12 8.54,20.32 8.78,20.59 9.01,20.86 9.18,21.18 9.34,21.50 9.43,21.84 9.51,22.19 9.51,22.55 9.51,22.91 9.43,23.26 9.34,23.61 9.17,23.92 9.01,24.24 8.77,24.51 8.53,24.78 6.32,25.02 4.11,25.26 1.76,25.03 -0.58,24.79 -3.38,24.62 -6.18,24.44 -9.11,24.31 -12.03,24.19 -14.16,24.09 -16.29,24.00 -17.81,23.77 -19.33,23.55 -20.37,22.61 -21.40,21.68 -21.90,19.63 -22.41,17.59 -21.91,16.44 -21.41,15.29 -20.56,14.46 -19.71,13.63 -18.04,12.48 -16.38,11.33 -15.33,10.72 -14.29,10.12 -13.01,9.50 -11.74,8.89 -10.39,8.26 -9.04,7.63 -7.23,7.10 -5.42,6.57 -3.68,6.08 -1.94,5.60 -0.19,5.24 1.55,4.88 3.12,4.70 4.68,4.51 5.83,4.40 6.98,4.28 8.09,4.38 9.19,4.48 10.48,5.41 11.76,6.33 12.50,7.98 13.23,9.62 13.57,11.41 13.90,13.19 13.92,15.39 13.94,17.60 13.98,19.26 14.03,20.93 14.01,22.78 13.98,24.62 13.73,26.56 13.48,28.50 13.11,29.95 12.75,31.39 12.09,32.48 11.42,33.57 9.84,34.51 8.26,35.45 6.86,35.40 5.46,35.36 3.94,35.16 2.42,34.97 1.07,34.67 -0.26,34.38 -1.91,34.05 -3.57,33.73 -6.46,33.02 -9.36,32.31 -12.61,31.82 -15.85,31.33 -19.14,31.08 -22.42,30.83 -25.04,30.69 -27.66,30.56 -29.98,30.47 -32.31,30.39 -33.69,30.47 -35.07,30.55 -36.15,30.64 -37.22,30.72 -37.18,31.92 -37.13,33.11 -37.97,34.75 -38.82,36.39 -40.90,35.57 -42.98,34.75 -43.26,33.39 -43.53,32.03 -43.39,29.51 -43.26,26.99 -42.98,23.33 -42.70,19.67 -41.10,15.26 -39.50,10.85 -37.35,7.62 -35.20,4.40 -32.77,2.07 -30.35,-0.24 -27.97,-1.41 -25.59,-2.57 -22.91,-3.05 -20.22,-3.54 -16.54,-2.83 -12.85,-2.12 -8.75,-0.19 -4.65,1.72 -1.15,3.65 2.34,5.58 4.47,7.15 6.59,8.71 8.53,10.52 10.46,12.33 11.69,14.19 12.92,16.05 13.55,17.81 14.17,19.58 14.50,20.66 14.82,21.75 14.52,23.27 14.22,24.79 13.12,26.00 12.01,27.20 10.62,27.86 9.23,28.51 8.20,28.80 7.17,29.09 5.47,28.69 3.76,28.30 3.85,28.38 3.95,28.47 3.70,28.29 3.45,28.11 3.25,27.88 3.05,27.65 2.92,27.38 2.78,27.11 2.71,26.81 2.64,26.52 2.64,26.21 2.65,25.91 2.72,25.61 2.80,25.32 2.95,25.05 3.09,24.78 3.30,24.56 3.50,24.33 3.75,24.16 4.01,23.99 4.29,23.89 4.58,23.79 4.88,23.75 5.19,23.72 5.49,23.76 5.79,23.80 6.07,23.91 6.36,24.03 7.10,24.97 7.85,25.91 8.07,27.38 8.29,28.85 8.35,29.97 8.41,31.09 8.03,32.60 7.64,34.12 5.78,36.11 3.92,38.10 1.45,40.05 -1.02,41.99 -3.94,44.03 -6.86,46.08 -10.21,48.11 -13.55,50.14 -16.40,51.50 -19.25,52.87 -20.93,53.76 -22.60,54.65 -23.92,55.42 -25.25,56.18 -26.17,56.74 -27.09,57.30 -27.48,57.74 -27.86,58.18 -28.10,58.26 -28.34,58.35 -28.60,58.37 -28.85,58.40 -29.10,58.36 -29.35,58.33 -29.59,58.23 -29.82,58.14 -30.03,57.99 -30.23,57.84 -30.40,57.65 -30.56,57.45 -30.68,57.22 -30.79,57.00 -30.84,56.75 -30.90,56.50 -30.89,56.25 -30.89,55.99 -30.82,55.75 -30.76,55.50 -30.63,55.28 -30.51,55.06 -30.34,54.87 -30.17,54.69 -29.95,54.55 -29.74,54.41 -26.66,54.05 -23.58,53.70 -20.04,53.64 -16.50,53.59 -12.42,53.60 -8.33,53.61 -4.42,53.92 -0.50,54.23 2.75,54.77 6.01,55.32 8.10,55.76 10.18,56.20 11.37,56.36 12.56,56.52 13.28,55.47 13.99,54.42 14.00,52.70 14.02,50.97 14.02,49.39 14.01,47.80 12.51,46.36 11.01,44.91 9.05,43.30 7.08,41.69 5.25,40.19 3.43,38.68 1.45,37.27 -0.52,35.85 -2.70,34.49 -4.88,33.13 -7.98,31.37 -11.09,29.60 -14.92,27.42 -18.76,25.24 -21.99,23.48 -25.23,21.73 -27.81,20.37 -30.39,19.01 -32.34,18.11 -34.29,17.21 -35.70,16.61 -37.10,16.02 -38.37,15.63 -39.64,15.25 -41.11,15.01 -42.59,14.77 -44.32,14.41 -46.05,14.05 -47.82,13.66 -49.59,13.27 -50.70,13.08 -51.81,12.89 -53.49,12.49 -55.18,12.09 -55.46,11.96 -55.75,11.83 -56.01,11.71 -56.28,11.59 -56.50,11.41 -56.73,11.23 -56.90,11.00 -57.08,10.77 -57.20,10.50 -57.31,10.24 -57.36,9.95 -57.41,9.67 -57.39,9.38 -57.37,9.09 -57.28,8.82 -57.19,8.54 -57.04,8.29 -56.89,8.05 -56.68,7.84 -56.48,7.64 -56.23,7.49 -55.98,7.35 -55.70,7.26 -55.42,7.18 -55.13,7.17 -54.84,7.15 -54.56,7.21 -54.28,7.26 -55.46,7.46 -56.64,7.66 -54.63,5.90 -52.62,4.14 -50.68,2.81 -48.74,1.47 -46.74,0.30 -44.74,-0.86 -42.67,-1.72 -40.60,-2.59 -38.72,-3.03 -36.84,-3.47 -35.76,-3.73 -34.69,-3.98 -33.11,-4.22 -31.54,-4.46 -30.26,-4.09 -28.98,-3.72 -27.49,-3.57 -25.99,-3.43 -24.57,-3.23 -23.15,-3.04 -21.88,-2.97 -20.62,-2.90 -19.26,-2.87 -17.91,-2.83 -18.32,-5.06 -18.73,-7.30 -19.06,-9.63 -19.39,-11.96 -20.16,-15.00 -20.93,-18.03 -21.85,-20.87 -22.77,-23.71 -23.37,-25.99 -23.97,-28.26 -24.42,-29.70 -24.87,-31.13 -25.15,-32.04 -25.43,-32.95 -25.46,-33.21 -25.49,-33.46 -25.45,-33.71 -25.42,-33.97 -25.33,-34.20 -25.23,-34.44 -25.09,-34.65 -24.94,-34.86 -24.75,-35.02 -24.55,-35.19 -24.33,-35.31 -24.10,-35.42 -23.85,-35.48 -23.60,-35.54 -23.35,-35.54 -23.09,-35.54 -22.85,-35.47 -22.60,-35.41 -22.38,-35.29 -22.15,-35.17 -21.96,-35.00 -21.77,-34.82 -21.63,-34.61 -21.49,-34.40 -21.40,-34.16 -21.31,-33.92 -19.01,-32.99 -16.70,-32.06 -11.77,-30.44 -6.84,-28.81 -1.10,-27.03 4.63,-25.25 10.01,-23.67 15.40,-22.09 20.03,-20.83 24.66,-19.56 27.84,-18.65 31.03,-17.73 32.90,-17.18 34.77,-16.63 35.85,-16.29 36.93,-15.95 38.07,-14.83 39.22,-13.70 39.51,-12.65 39.80,-11.59 39.93,-10.34 40.06,-9.09 39.74,-7.91 39.43,-6.73 38.84,-5.61 38.26,-4.50 37.59,-3.56 36.91,-2.62 35.44,-1.16 33.96,0.30 32.44,1.02 30.92,1.74 30.02,2.56 29.12,3.37 27.17,5.16 25.22,6.94 24.02,8.04 22.82,9.14 21.79,10.07 20.75,10.99 19.76,11.84 18.77,12.69 17.81,13.87 16.86,15.04 16.51,13.95 16.17,12.87 15.16,12.17 14.16,11.46 15.46,11.18 16.77,10.90 18.23,11.04 19.69,11.18 21.38,12.47 23.07,13.76 24.15,15.30 25.24,16.85 26.02,18.13 26.80,19.41 28.04,22.51 29.27,25.62 29.25,26.07 29.23,26.53 29.06,26.96 28.90,27.38 28.60,27.73 28.31,28.08 27.92,28.32 27.53,28.56 27.08,28.66 26.64,28.76 26.18,28.72 25.73,28.67 25.31,28.48 24.90,28.29 24.56,27.98 24.23,27.67 24.01,27.27 23.80,26.86 23.72,26.41 23.64,25.96 23.71,25.51 23.78,25.06 23.99,24.65 24.21,24.25 24.54,23.93 24.87,23.62 25.28,23.42 25.69,23.23 26.15,23.17 26.60,23.12 27.05,23.22 27.49,23.31 27.89,23.54 28.28,23.78 28.58,24.12 28.88,24.47 29.05,24.89 29.22,25.32 29.25,25.77 29.28,26.23 29.16,26.67 29.04,27.11 28.78,27.49 28.53,27.87 28.17,28.15 27.81,28.43 27.37,28.58 26.94,28.73 26.48,28.73 26.03,28.73 25.59,28.59 25.16,28.45 24.79,28.17 24.43,27.90 24.17,27.52 23.91,27.15 23.79,26.71 23.66,26.27 23.66,26.27 23.66,26.27 22.89,24.29 22.13,22.32 21.46,21.26 20.78,20.21 19.88,19.11 18.97,18.02 17.92,17.38 16.86,16.74 15.64,17.00 14.42,17.27 13.33,16.65 12.24,16.02 11.95,14.58 11.66,13.13 12.68,11.68 13.70,10.24 14.51,9.45 15.32,8.66 16.28,7.84 17.23,7.03 18.17,6.21 19.10,5.38 20.22,4.18 21.34,2.98 22.48,1.76 23.62,0.54 24.42,-0.20 25.23,-0.95 27.35,-2.44 29.46,-3.94 30.49,-4.34 31.51,-4.74 32.62,-5.93 33.72,-7.11 34.45,-8.14 35.18,-9.18 35.47,-10.75 35.76,-12.32 34.82,-13.05 33.88,-13.77 32.07,-14.36 30.25,-14.95 27.07,-15.81 23.89,-16.68 19.22,-17.88 14.55,-19.09 9.11,-20.59 3.68,-22.08 -2.11,-23.75 -7.91,-25.42 -13.21,-27.02 -18.52,-28.62 -21.00,-29.81 -23.47,-31.00 -24.45,-31.98 -25.43,-32.95 -25.46,-33.21 -25.49,-33.46 -25.45,-33.71 -25.42,-33.97 -25.33,-34.20 -25.23,-34.44 -25.09,-34.65 -24.94,-34.86 -24.75,-35.02 -24.55,-35.19 -24.33,-35.31 -24.10,-35.42 -23.85,-35.48 -23.60,-35.54 -23.35,-35.54 -23.10,-35.54 -22.85,-35.47 -22.60,-35.41 -22.38,-35.29 -22.15,-35.17 -21.96,-35.00 -21.77,-34.82 -21.63,-34.61 -21.49,-34.40 -21.40,-34.16 -21.31,-33.92 -21.28,-33.02 -21.25,-32.11 -20.93,-30.69 -20.62,-29.27 -19.90,-27.14 -19.18,-25.01 -18.02,-22.13 -16.86,-19.26 -15.77,-16.09 -14.67,-12.93 -13.93,-10.07 -13.19,-7.20 -13.17,-5.50 -13.14,-3.80 -13.31,-2.63 -13.47,-1.47 -14.08,-0.28 -14.69,0.91 -15.93,1.60 -17.17,2.30 -19.05,2.24 -20.92,2.19 -22.36,2.09 -23.80,2.00 -25.25,1.82 -26.70,1.65 -28.16,1.42 -29.62,1.20 -31.03,0.60 -32.44,0.00 -34.26,0.03 -36.08,0.07 -37.62,0.35 -39.17,0.64 -40.91,1.49 -42.66,2.34 -44.39,3.59 -46.11,4.83 -47.90,6.41 -49.69,7.99 -51.17,9.17 -52.65,10.34 -54.20,11.09 -55.75,11.83 -56.01,11.71 -56.27,11.59 -56.50,11.41 -56.73,11.23 -56.90,11.00 -57.08,10.77 -57.20,10.50 -57.31,10.24 -57.36,9.95 -57.41,9.67 -57.39,9.38 -57.37,9.09 -57.28,8.82 -57.19,8.54 -57.04,8.29 -56.89,8.05 -56.68,7.84 -56.48,7.64 -56.23,7.49 -55.98,7.35 -55.70,7.26 -55.42,7.18 -55.13,7.17 -54.84,7.15 -54.56,7.21 -54.28,7.26 -53.36,7.74 -52.45,8.23 -50.62,8.92 -48.79,9.61 -47.03,10.00 -45.27,10.38 -43.56,10.76 -41.85,11.14 -40.12,11.54 -38.40,11.95 -37.04,12.56 -35.68,13.18 -34.41,13.93 -33.14,14.68 -31.12,15.59 -29.09,16.50 -26.47,17.83 -23.86,19.16 -20.57,20.88 -17.29,22.61 -13.43,24.72 -9.57,26.83 -6.37,28.54 -3.17,30.24 -0.85,31.53 1.47,32.82 3.63,34.15 5.80,35.47 7.76,36.77 9.73,38.07 12.18,39.68 14.63,41.29 16.11,42.68 17.59,44.07 18.43,46.56 19.26,49.05 19.21,50.12 19.16,51.20 19.07,52.30 18.98,53.40 18.78,54.57 18.59,55.74 18.17,56.84 17.76,57.93 16.12,59.18 14.48,60.42 13.13,60.12 11.79,59.83 10.69,59.46 9.60,59.08 7.57,58.69 5.54,58.31 2.41,57.85 -0.71,57.39 -4.50,57.19 -8.28,56.99 -12.32,57.11 -16.35,57.24 -19.65,57.46 -22.94,57.68 -25.40,57.93 -27.86,58.18 -28.10,58.26 -28.34,58.35 -28.60,58.37 -28.85,58.40 -29.10,58.36 -29.35,58.33 -29.59,58.23 -29.82,58.14 -30.03,57.99 -30.23,57.84 -30.40,57.65 -30.56,57.45 -30.68,57.22 -30.79,57.00 -30.84,56.75 -30.90,56.50 -30.89,56.25 -30.89,55.99 -30.82,55.75 -30.76,55.50 -30.63,55.28 -30.51,55.06 -30.34,54.87 -30.17,54.69 -29.95,54.55 -29.74,54.41 -29.31,54.11 -28.88,53.81 -27.88,53.41 -26.88,53.01 -25.50,52.39 -24.13,51.76 -22.42,50.86 -20.70,49.96 -18.06,48.58 -15.41,47.21 -12.27,45.12 -9.12,43.04 -6.44,40.91 -3.75,38.79 -1.68,36.86 0.37,34.93 1.69,33.05 3.01,31.16 3.48,29.81 3.95,28.47 3.70,28.29 3.45,28.11 3.25,27.88 3.05,27.65 2.92,27.38 2.78,27.11 2.71,26.81 2.64,26.52 2.64,26.21 2.65,25.91 2.72,25.61 2.80,25.32 2.95,25.05 3.09,24.78 3.30,24.56 3.50,24.33 3.75,24.16 4.01,23.99 4.29,23.89 4.58,23.79 4.88,23.75 5.19,23.72 5.49,23.76 5.79,23.80 6.07,23.91 6.36,24.03 7.01,24.20 7.67,24.37 9.19,23.87 10.70,23.37 10.97,21.90 11.24,20.43 10.92,18.97 10.60,17.50 9.61,15.89 8.61,14.28 6.80,12.59 4.99,10.90 3.00,9.45 1.02,8.00 -2.41,6.13 -5.84,4.26 -9.64,2.47 -13.44,0.68 -16.60,0.02 -19.77,-0.63 -22.01,-0.21 -24.26,0.20 -26.18,1.15 -28.11,2.11 -30.19,4.21 -32.28,6.31 -34.09,9.22 -35.90,12.13 -37.19,16.01 -38.47,19.89 -38.46,23.39 -38.45,26.90 -38.29,30.27 -38.14,33.64 -40.23,33.33 -42.33,33.01 -42.19,31.63 -42.05,30.24 -41.13,28.65 -40.21,27.05 -38.71,26.92 -37.21,26.80 -36.12,26.90 -35.04,26.99 -33.66,27.09 -32.27,27.20 -29.92,27.17 -27.57,27.15 -24.91,27.14 -22.25,27.14 -18.82,27.21 -15.40,27.27 -11.96,27.53 -8.52,27.78 -5.68,28.14 -2.84,28.49 -0.98,28.66 0.88,28.82 2.11,29.06 3.35,29.29 4.62,29.56 5.89,29.83 7.23,29.94 8.58,30.05 8.95,29.03 9.32,28.01 9.49,26.34 9.65,24.67 9.58,22.88 9.51,21.09 9.45,19.49 9.38,17.89 9.13,16.04 8.89,14.18 8.60,12.84 8.31,11.50 8.15,10.34 8.00,9.18 6.59,9.19 5.17,9.19 3.86,9.31 2.55,9.43 1.04,9.79 -0.46,10.14 -2.17,10.78 -3.87,11.41 -5.28,11.91 -6.68,12.41 -8.02,13.11 -9.35,13.81 -10.45,14.35 -11.55,14.90 -13.29,15.84 -15.02,16.79 -16.47,17.62 -17.92,18.46 -17.10,19.43 -16.28,20.40 -14.15,20.31 -12.02,20.23 -9.09,20.12 -6.15,20.01 -3.32,19.87 -0.50,19.73 2.04,20.02 4.59,20.32 4.89,20.11 5.18,19.91 5.52,19.78 5.85,19.66 6.21,19.61 6.57,19.57 6.92,19.62 7.28,19.66 7.61,19.79 7.95,19.91 8.24,20.12 8.54,20.32 8.77,20.59 9.01,20.86 9.18,21.18 9.34,21.50 9.43,21.84 9.51,22.19 9.51,22.55 9.51,22.91 9.43,23.26 9.34,23.60 9.17,23.92 9.01,24.24 8.77,24.51 8.53,24.77 7.78,25.37 7.03,25.97 5.78,27.00 4.54,28.02 3.76,29.11 2.99,30.21 2.18,32.03 1.37,33.84 0.14,32.43 -1.07,31.02 -0.73,29.66 -0.39,28.30 -1.80,28.58 -3.22,28.86 -4.48,29.36 -5.74,29.85 -7.45,30.27 -9.16,30.70 -10.56,30.55 -11.97,30.41 -13.46,29.96 -14.95,29.51 -16.10,28.56 -17.25,27.61 -17.91,26.23 -18.57,24.86 -18.65,23.38 -18.73,21.90 -18.75,20.19 -18.77,18.47 -18.86,16.51 -18.95,14.56 -18.98,12.78 -19.02,11.01 -18.91,9.50 -18.81,7.99 -18.30,6.92 -17.80,5.86 -16.04,5.22 -14.29,4.57 -13.10,4.45 -11.92,4.32 -10.53,3.93 -9.14,3.54 -7.37,2.38 -5.60,1.22 -4.35,0.23 -3.09,-0.74 -2.27,-1.31 -1.46,-1.88 -1.21,-2.03 -0.96,-2.18 -0.69,-2.26 -0.41,-2.35 -0.12,-2.36 0.15,-2.38 0.44,-2.32 0.72,-2.27 0.98,-2.15 1.24,-2.03 1.47,-1.85 1.69,-1.67 1.87,-1.45 2.05,-1.22 2.16,-0.95 2.28,-0.69 2.33,-0.41 2.38,-0.12 2.36,0.15 2.34,0.44 2.25,0.71 2.17,0.99 2.02,1.23 1.87,1.48 1.66,1.68 1.46,1.88 1.46,1.88 L 1.46,1.88 Z"></path></g><g transform="translate(212.9054038439633 264.30892696584124) rotate(0 21.410073060771936 28.05427523674763)" stroke="none"><path fill="#ffffff" d="M 0.15,2.60 Q 0.15,2.60 -1.15,2.68 -2.46,2.77 -3.89,2.89 -5.32,3.01 -5.65,2.98 -5.98,2.95 -6.30,2.85 -6.61,2.74 -6.89,2.56 -7.17,2.38 -7.40,2.14 -7.63,1.90 -7.80,1.61 -7.96,1.32 -8.05,1.00 -8.15,0.68 -8.16,0.35 -8.17,0.02 -8.10,-0.30 -8.03,-0.62 -7.89,-0.92 -7.75,-1.22 -7.54,-1.48 -7.32,-1.74 -7.06,-1.94 -6.79,-2.14 -6.48,-2.26 -6.18,-2.39 -5.85,-2.45 -5.52,-2.50 -4.40,-2.11 -3.28,-1.72 -1.94,-0.11 -0.61,1.50 0.00,3.28 0.62,5.06 0.72,6.60 0.83,8.15 0.87,9.26 0.91,10.38 0.57,11.72 0.23,13.07 -0.51,14.11 -1.27,15.15 -2.63,16.13 -3.98,17.10 -3.70,15.27 -3.42,13.43 -4.24,12.52 -5.06,11.61 -3.89,11.55 -2.72,11.50 -1.38,10.56 -0.04,9.63 1.18,8.43 2.41,7.24 3.31,6.56 4.21,5.87 5.47,5.17 6.72,4.47 7.67,3.50 8.62,2.53 8.69,1.41 8.76,0.29 8.81,-0.98 8.87,-2.27 8.91,-3.36 8.96,-4.46 8.99,-5.54 9.03,-6.62 9.05,-7.69 9.08,-8.76 8.94,-10.22 8.80,-11.68 7.80,-12.14 6.81,-12.59 7.66,-11.77 8.51,-10.96 8.42,-9.17 8.32,-7.37 8.37,-5.34 8.42,-3.30 9.71,-1.91 11.00,-0.53 13.57,1.63 16.14,3.79 18.88,5.89 21.61,7.99 23.93,9.62 26.25,11.26 27.78,12.33 29.31,13.40 30.32,14.10 31.34,14.79 32.48,16.54 33.62,18.29 33.33,19.79 33.05,21.28 31.74,22.46 30.43,23.64 28.91,24.11 27.39,24.59 26.31,24.73 25.24,24.88 23.82,24.30 22.39,23.72 21.63,22.57 20.88,21.42 20.96,19.82 21.05,18.23 22.15,17.27 23.24,16.31 24.86,16.46 26.49,16.61 27.72,17.64 28.95,18.67 30.57,21.16 32.19,23.64 33.70,26.12 35.20,28.61 36.68,30.97 38.17,33.34 39.22,35.10 40.27,36.86 41.01,38.10 41.76,39.34 42.08,40.99 42.40,42.65 41.49,44.12 40.58,45.59 36.01,47.49 31.44,49.39 25.91,50.62 20.37,51.84 16.47,52.46 12.57,53.09 7.27,53.33 1.97,53.58 -2.55,52.15 -7.09,50.73 -10.36,47.52 -13.63,44.32 -15.54,39.52 -17.44,34.71 -18.22,28.22 -19.00,21.74 -18.98,15.18 -18.95,8.62 -18.09,4.11 -17.24,-0.38 -15.84,-3.40 -14.43,-6.42 -13.05,-8.13 -11.67,-9.85 -9.75,-10.74 -7.83,-11.64 -5.63,-11.09 -3.42,-10.53 -0.66,-8.75 2.09,-6.97 4.67,-5.06 7.24,-3.15 9.52,-1.14 11.81,0.85 13.52,2.70 15.23,4.55 16.17,5.56 17.11,6.58 17.84,7.88 18.57,9.18 18.87,10.66 19.17,12.14 18.33,13.60 17.49,15.06 15.20,15.90 12.90,16.73 9.17,17.09 5.44,17.45 1.01,17.41 -3.42,17.37 -7.42,15.95 -11.41,14.52 -13.99,12.48 -16.56,10.44 -17.75,9.01 -18.94,7.59 -19.32,5.54 -19.69,3.49 -18.87,2.61 -18.05,1.74 -16.33,1.31 -14.61,0.88 -12.11,1.65 -9.61,2.43 -7.67,3.85 -5.73,5.28 -4.46,6.86 -3.19,8.44 -2.48,10.31 -1.77,12.19 -1.67,14.52 -1.57,16.85 -2.53,19.46 -3.50,22.07 -5.36,24.70 -7.23,27.33 -8.85,29.36 -10.48,31.38 -11.56,32.66 -12.64,33.93 -13.83,34.84 -15.03,35.75 -16.02,36.22 -17.00,36.69 -18.50,37.11 -19.99,37.53 -21.74,37.74 -23.48,37.96 -26.43,39.70 -29.37,41.44 -34.91,45.83 -40.45,50.22 -45.28,53.92 -50.11,57.63 -54.27,60.53 -58.42,63.42 -61.06,64.89 -63.70,66.37 -66.24,66.79 -68.78,67.21 -69.69,66.01 -70.61,64.81 -70.75,61.28 -70.90,57.75 -67.59,52.41 -64.28,47.08 -56.80,42.07 -49.33,37.06 -38.35,34.03 -27.36,31.01 -17.97,29.75 -8.58,28.50 -1.70,28.14 5.17,27.79 10.13,28.35 15.08,28.91 18.03,29.73 20.97,30.55 22.59,31.37 24.20,32.19 25.18,33.15 26.15,34.10 26.69,35.32 27.22,36.54 27.45,37.88 27.68,39.23 27.44,40.65 27.20,42.07 26.08,43.62 24.96,45.17 23.85,46.31 22.73,47.46 22.51,47.66 22.29,47.87 22.02,48.01 21.76,48.15 21.47,48.23 21.17,48.30 20.87,48.31 20.57,48.31 20.28,48.24 19.99,48.17 19.72,48.04 19.45,47.90 19.22,47.70 18.99,47.50 18.82,47.26 18.65,47.01 18.54,46.73 18.43,46.45 18.39,46.15 18.35,45.85 18.38,45.56 18.41,45.26 18.52,44.97 18.62,44.69 18.79,44.44 18.96,44.19 18.27,42.57 17.58,40.95 18.65,35.61 19.73,30.27 22.92,24.92 26.11,19.58 31.14,15.13 36.17,10.68 40.35,8.63 44.54,6.58 47.94,5.73 51.35,4.87 53.64,4.55 55.93,4.22 57.55,4.87 59.17,5.52 60.03,6.98 60.89,8.44 61.05,10.36 61.22,12.28 59.40,15.30 57.58,18.31 54.50,21.74 51.43,25.17 47.92,28.39 44.42,31.62 40.26,34.20 36.10,36.77 32.69,37.83 29.29,38.89 26.66,36.95 24.02,35.01 22.72,30.64 21.41,26.27 20.92,21.55 20.43,16.83 20.23,12.26 20.04,7.69 19.70,4.26 19.36,0.83 18.69,-1.63 18.02,-4.09 17.21,-5.40 16.41,-6.71 15.50,-7.52 14.60,-8.34 13.16,-9.25 11.73,-10.15 9.65,-11.08 7.58,-12.02 5.16,-12.83 2.73,-13.65 -0.01,-14.40 -2.76,-15.15 -5.45,-15.73 -8.13,-16.31 -10.51,-16.94 -12.89,-17.56 -14.36,-17.83 -15.83,-18.10 -17.19,-18.60 -18.56,-19.09 -18.51,-18.00 -18.47,-16.90 -18.48,-15.52 -18.50,-14.13 -18.58,-12.83 -18.66,-11.52 -18.84,-9.96 -19.01,-8.40 -19.21,-5.71 -19.42,-3.01 -19.55,-0.22 -19.69,2.56 -18.32,6.34 -16.95,10.11 -13.73,15.33 -10.50,20.55 -6.64,25.35 -2.79,30.14 0.10,33.07 3.00,35.99 5.50,38.13 8.01,40.27 9.58,41.57 11.15,42.87 12.23,43.76 13.30,44.66 14.03,45.68 14.75,46.69 15.14,47.77 15.52,48.85 15.60,50.11 15.68,51.38 15.26,52.62 14.84,53.85 14.18,54.76 13.51,55.67 12.52,56.41 11.52,57.15 6.88,58.56 2.24,59.96 -1.52,61.15 -5.29,62.33 -10.63,63.61 -15.97,64.89 -22.60,65.77 -29.24,66.65 -34.30,66.98 -39.37,67.32 -43.02,65.32 -46.68,63.32 -48.43,57.79 -50.18,52.26 -50.53,45.99 -50.87,39.71 -48.98,32.87 -47.09,26.03 -45.07,21.75 -43.05,17.48 -37.39,13.59 -31.73,9.70 -25.35,7.87 -18.97,6.05 -12.78,5.29 -6.59,4.53 0.00,5.17 6.61,5.81 11.98,7.56 17.35,9.31 20.00,10.56 22.66,11.80 24.99,13.60 27.32,15.40 28.88,17.64 30.44,19.88 31.37,22.56 32.29,25.24 32.76,26.82 33.24,28.39 33.03,30.16 32.82,31.93 31.67,33.29 30.51,34.64 29.23,35.51 27.95,36.38 26.97,36.96 25.99,37.54 25.80,38.70 25.61,39.86 25.38,42.15 25.16,44.45 25.89,47.81 26.62,51.17 27.90,53.98 29.17,56.79 30.70,59.28 32.23,61.78 33.61,63.36 34.99,64.95 38.48,65.83 41.98,66.71 48.15,67.32 54.32,67.94 63.91,68.21 73.50,68.49 79.95,68.61 86.39,68.73 91.85,68.79 97.32,68.84 101.20,68.87 105.08,68.90 107.22,68.91 109.35,68.92 110.76,68.56 112.17,68.21 112.38,68.23 112.59,68.26 112.78,68.33 112.98,68.41 113.15,68.53 113.32,68.65 113.46,68.81 113.60,68.97 113.70,69.15 113.80,69.34 113.85,69.54 113.89,69.75 113.89,69.96 113.89,70.17 113.84,70.37 113.79,70.57 113.69,70.76 113.59,70.95 113.45,71.10 113.31,71.26 113.14,71.38 112.97,71.50 112.77,71.57 112.57,71.65 112.37,71.67 112.16,71.69 110.65,69.57 109.14,67.44 105.96,63.21 102.79,58.97 98.12,53.05 93.45,47.12 87.58,40.69 81.70,34.27 75.49,28.55 69.29,22.83 63.85,19.01 58.42,15.19 53.31,12.80 48.20,10.41 43.93,9.28 39.65,8.15 35.74,7.66 31.83,7.18 28.62,6.97 25.41,6.76 23.00,7.25 20.60,7.74 18.85,8.49 17.11,9.25 15.81,10.13 14.51,11.02 13.68,11.88 12.85,12.73 11.68,14.60 10.52,16.47 9.13,17.98 7.74,19.49 5.64,21.06 3.55,22.63 1.54,23.66 -0.46,24.69 -1.97,25.33 -3.48,25.97 -5.60,25.72 -7.71,25.47 -9.03,23.17 -10.35,20.86 -11.23,17.86 -12.10,14.86 -13.09,6.81 -14.08,-1.22 -14.80,-7.89 -15.53,-14.56 -16.01,-21.24 -16.49,-27.91 -16.84,-32.68 -17.18,-37.44 -17.44,-40.36 -17.70,-43.28 -18.00,-44.66 -18.30,-46.05 -18.56,-46.64 -18.81,-47.24 -18.82,-47.45 -18.82,-47.67 -18.77,-47.88 -18.73,-48.09 -18.63,-48.28 -18.53,-48.47 -18.39,-48.63 -18.25,-48.80 -18.08,-48.92 -17.90,-49.05 -17.71,-49.13 -17.51,-49.21 -17.29,-49.24 -17.08,-49.27 -16.87,-49.24 -16.65,-49.22 -16.45,-49.15 -16.25,-49.08 -16.07,-48.96 -15.89,-48.84 -15.74,-48.68 -15.60,-48.52 -15.50,-48.33 -15.39,-48.15 -15.34,-47.94 -15.28,-47.73 -15.71,-45.26 -16.14,-42.80 -16.67,-40.93 -17.19,-39.07 -17.56,-37.71 -17.93,-36.35 -18.74,-34.64 -19.56,-32.93 -21.45,-30.50 -23.34,-28.08 -25.38,-25.61 -27.42,-23.14 -29.35,-20.63 -31.27,-18.11 -33.17,-15.58 -35.07,-13.05 -36.76,-10.75 -38.45,-8.45 -39.89,-6.51 -41.34,-4.57 -42.53,-2.72 -43.71,-0.87 -44.32,0.35 -44.92,1.59 -45.59,2.99 -46.26,4.38 -46.67,5.61 -47.07,6.85 -47.32,8.29 -47.56,9.73 -45.80,11.67 -44.04,13.61 -38.09,19.11 -32.13,24.61 -23.04,33.54 -13.96,42.48 -5.47,51.04 3.01,59.60 9.71,66.71 16.41,73.81 21.55,79.49 26.69,85.18 30.15,89.39 33.62,93.60 35.24,95.55 36.87,97.50 37.84,98.54 38.81,99.58 39.71,100.75 40.62,101.93 40.94,102.92 41.26,103.91 41.27,104.17 41.27,104.44 41.22,104.69 41.16,104.95 41.04,105.19 40.93,105.43 40.76,105.63 40.59,105.83 40.37,105.99 40.16,106.14 39.92,106.24 39.67,106.34 39.41,106.38 39.15,106.42 38.89,106.40 38.62,106.37 38.37,106.29 38.12,106.20 37.90,106.05 37.68,105.91 37.50,105.72 37.32,105.52 37.19,105.29 37.06,105.06 36.99,104.81 36.92,104.55 36.89,103.17 36.86,101.79 36.82,99.73 36.79,97.66 36.81,92.85 36.83,88.03 36.87,75.97 36.91,63.92 37.13,53.78 37.35,43.64 37.82,34.85 38.29,26.07 38.68,18.79 39.06,11.51 39.24,7.47 39.41,3.42 39.49,0.74 39.56,-1.93 39.34,-3.54 39.12,-5.16 38.52,-6.12 37.91,-7.08 36.94,-8.08 35.97,-9.08 34.36,-10.59 32.75,-12.11 31.24,-13.29 29.73,-14.48 27.39,-16.18 25.05,-17.89 22.84,-19.71 20.64,-21.53 18.54,-23.48 16.43,-25.43 15.12,-27.24 13.82,-29.05 13.23,-30.23 12.64,-31.42 12.27,-31.61 11.90,-31.81 11.84,-32.01 11.79,-32.21 11.78,-32.42 11.77,-32.63 11.81,-32.84 11.85,-33.04 11.94,-33.23 12.03,-33.42 12.16,-33.59 12.30,-33.75 12.46,-33.87 12.63,-34.00 12.83,-34.08 13.02,-34.17 13.23,-34.20 13.43,-34.23 13.64,-34.22 13.85,-34.20 14.05,-34.14 14.25,-34.07 14.43,-33.96 14.61,-33.84 14.75,-33.69 14.90,-33.54 15.01,-33.36 15.11,-33.18 15.41,-31.16 15.72,-29.15 15.85,-27.93 15.98,-26.71 16.15,-25.43 16.31,-24.14 16.46,-22.38 16.60,-20.62 17.41,-18.25 18.21,-15.89 20.61,-12.32 23.01,-8.75 28.12,-4.66 33.23,-0.57 37.74,2.38 42.25,5.33 46.69,7.72 51.12,10.11 54.64,11.97 58.16,13.83 60.05,14.82 61.94,15.81 63.33,16.56 64.73,17.31 65.68,18.07 66.64,18.83 67.23,19.88 67.83,20.93 68.09,22.09 68.36,23.26 68.24,24.73 68.13,26.20 67.01,28.15 65.89,30.10 64.46,32.33 63.02,34.56 61.09,37.37 59.15,40.19 56.78,43.32 54.42,46.44 51.44,49.59 48.46,52.73 46.07,54.89 43.69,57.04 39.67,59.32 35.66,61.59 30.06,63.43 24.46,65.27 17.92,66.23 11.38,67.19 3.87,67.59 -3.64,67.99 -11.64,66.65 -19.63,65.30 -26.56,62.79 -33.48,60.28 -39.03,57.27 -44.58,54.26 -48.40,50.47 -52.22,46.68 -54.96,40.77 -57.70,34.85 -58.86,28.60 -60.02,22.36 -60.02,16.11 -60.02,9.86 -58.10,5.02 -56.19,0.18 -51.27,-3.10 -46.35,-6.40 -38.16,-7.77 -29.97,-9.15 -16.60,-7.65 -3.23,-6.15 6.57,-4.05 16.38,-1.94 24.03,0.34 31.68,2.63 36.10,4.13 40.52,5.62 44.32,7.57 48.12,9.52 50.41,11.46 52.69,13.40 54.02,15.62 55.34,17.84 55.92,20.54 56.50,23.24 56.07,25.79 55.64,28.34 54.23,30.44 52.82,32.53 50.26,34.29 47.71,36.05 44.80,37.06 41.90,38.07 38.78,38.48 35.66,38.89 32.46,37.06 29.26,35.23 27.10,31.72 24.94,28.20 24.04,25.11 23.14,22.01 22.77,19.48 22.40,16.94 22.59,15.43 22.79,13.92 24.29,13.41 25.79,12.91 26.81,13.69 27.84,14.47 28.65,16.23 29.46,17.99 29.98,19.96 30.50,21.92 30.93,23.78 31.36,25.63 31.57,27.57 31.78,29.50 31.93,30.91 32.08,32.31 32.09,34.19 32.10,36.07 31.99,37.98 31.87,39.90 30.87,42.05 29.86,44.21 27.83,45.73 25.80,47.25 22.92,48.26 20.03,49.26 16.67,49.94 13.30,50.61 9.53,51.18 5.75,51.74 2.85,52.09 -0.04,52.45 -2.46,52.83 -4.87,53.21 -6.07,53.64 -7.27,54.08 -7.44,55.53 -7.61,56.98 -7.39,58.20 -7.17,59.43 -7.40,62.21 -7.63,65.00 -7.78,65.40 -7.94,65.79 -8.22,66.12 -8.49,66.44 -8.86,66.66 -9.22,66.88 -9.64,66.97 -10.06,67.06 -10.48,67.01 -10.90,66.97 -11.29,66.79 -11.68,66.61 -11.98,66.32 -12.29,66.02 -12.49,65.65 -12.69,65.27 -12.76,64.85 -12.83,64.43 -12.76,64.01 -12.69,63.59 -12.49,63.21 -12.29,62.84 -11.98,62.54 -11.67,62.25 -11.29,62.07 -10.90,61.89 -10.48,61.85 -10.05,61.80 -9.64,61.89 -9.22,61.99 -8.86,62.21 -8.49,62.43 -8.21,62.75 -7.94,63.08 -7.78,63.47 -7.62,63.87 -7.60,64.29 -7.58,64.72 -7.69,65.13 -7.81,65.54 -8.05,65.89 -8.29,66.24 -8.63,66.50 -8.97,66.76 -9.37,66.89 -9.77,67.03 -10.20,67.03 -10.62,67.03 -11.03,66.89 -11.43,66.76 -11.77,66.50 -12.11,66.24 -12.35,65.89 -12.59,65.54 -12.70,65.12 -12.81,64.71 -12.79,64.29 -12.77,63.86 -12.77,63.86 -12.77,63.86 -12.45,61.76 -12.14,59.65 -12.12,58.17 -12.10,56.69 -11.61,54.84 -11.13,52.98 -9.63,51.97 -8.14,50.97 -6.73,50.72 -5.32,50.46 -2.86,50.05 -0.41,49.63 2.44,49.24 5.30,48.85 8.99,48.25 12.68,47.65 15.82,46.96 18.97,46.27 21.40,45.38 23.84,44.49 25.26,43.49 26.68,42.48 27.36,41.04 28.04,39.59 28.12,37.87 28.19,36.14 28.14,34.35 28.08,32.55 28.07,31.22 28.06,29.89 27.89,28.21 27.72,26.52 27.26,24.73 26.80,22.95 26.30,21.24 25.80,19.53 25.40,18.06 25.00,16.59 25.34,18.94 25.67,21.30 26.44,24.09 27.21,26.89 28.97,29.99 30.73,33.10 33.21,34.73 35.69,36.37 38.38,35.98 41.06,35.59 43.66,34.72 46.26,33.86 48.49,32.42 50.72,30.97 51.91,29.37 53.10,27.77 53.51,25.73 53.92,23.69 53.49,21.40 53.06,19.12 52.00,17.24 50.95,15.35 48.93,13.60 46.90,11.84 43.29,9.98 39.67,8.11 35.30,6.63 30.92,5.15 23.37,2.88 15.83,0.62 6.14,-1.45 -3.53,-3.53 -16.55,-5.04 -29.57,-6.55 -37.29,-5.35 -45.01,-4.15 -49.47,-1.38 -53.94,1.38 -55.66,5.66 -57.39,9.93 -57.41,15.91 -57.42,21.89 -56.36,27.83 -55.29,33.77 -52.80,39.31 -50.30,44.85 -46.79,48.39 -43.28,51.93 -37.93,54.85 -32.57,57.77 -25.87,60.21 -19.18,62.65 -11.47,63.96 -3.77,65.27 3.60,64.86 10.98,64.46 17.28,63.53 23.59,62.60 28.92,60.84 34.24,59.08 37.96,56.96 41.68,54.84 43.93,52.73 46.18,50.61 48.98,47.56 51.77,44.50 53.98,41.38 56.19,38.26 57.94,35.43 59.69,32.61 60.93,30.26 62.17,27.92 62.92,26.68 63.68,25.43 63.90,23.90 64.11,22.37 63.57,21.19 63.03,20.01 61.84,19.16 60.65,18.30 58.75,17.34 56.84,16.37 53.29,14.55 49.73,12.72 45.16,10.32 40.58,7.93 35.89,4.95 31.20,1.97 25.69,-2.38 20.17,-6.74 17.42,-10.63 14.66,-14.53 13.53,-17.34 12.40,-20.16 12.19,-21.95 11.97,-23.75 11.89,-25.14 11.82,-26.52 11.84,-27.66 11.87,-28.79 11.88,-30.30 11.90,-31.81 11.84,-32.01 11.79,-32.21 11.78,-32.42 11.77,-32.63 11.81,-32.84 11.85,-33.04 11.94,-33.23 12.03,-33.42 12.16,-33.59 12.30,-33.75 12.46,-33.87 12.63,-34.00 12.83,-34.08 13.02,-34.17 13.23,-34.20 13.43,-34.23 13.64,-34.22 13.85,-34.20 14.05,-34.14 14.25,-34.07 14.43,-33.96 14.61,-33.85 14.75,-33.69 14.90,-33.54 15.01,-33.36 15.11,-33.18 15.18,-33.17 15.25,-33.17 15.70,-31.94 16.14,-30.71 17.27,-29.13 18.39,-27.56 20.45,-25.71 22.52,-23.85 24.68,-22.15 26.85,-20.44 29.30,-18.77 31.75,-17.10 33.37,-15.86 34.99,-14.63 36.85,-13.05 38.72,-11.47 39.87,-10.02 41.01,-8.57 41.58,-7.04 42.15,-5.50 42.24,-3.68 42.34,-1.86 42.29,0.83 42.24,3.53 42.10,7.59 41.97,11.66 41.64,18.94 41.31,26.22 40.91,34.95 40.51,43.69 40.39,53.80 40.27,63.91 40.37,75.94 40.47,87.98 40.62,92.67 40.78,97.36 41.02,100.63 41.26,103.91 41.27,104.17 41.27,104.44 41.22,104.69 41.16,104.95 41.04,105.19 40.93,105.43 40.76,105.63 40.59,105.83 40.37,105.99 40.16,106.14 39.92,106.24 39.67,106.34 39.41,106.38 39.15,106.42 38.89,106.40 38.62,106.37 38.37,106.29 38.12,106.20 37.90,106.05 37.68,105.91 37.50,105.72 37.32,105.52 37.19,105.29 37.06,105.06 36.99,104.81 36.92,104.55 36.95,104.22 36.98,103.88 36.63,102.73 36.28,101.59 35.51,100.44 34.73,99.30 33.08,97.36 31.42,95.42 27.97,91.29 24.52,87.16 19.36,81.54 14.19,75.92 7.47,68.89 0.74,61.87 -7.80,53.41 -16.35,44.94 -25.49,36.16 -34.63,27.38 -40.84,21.90 -47.05,16.43 -49.47,12.64 -51.89,8.85 -51.24,7.14 -50.58,5.43 -49.96,4.09 -49.33,2.74 -48.51,1.35 -47.69,-0.03 -46.87,-1.20 -46.06,-2.36 -44.84,-4.30 -43.62,-6.24 -42.21,-8.19 -40.80,-10.14 -39.15,-12.49 -37.50,-14.83 -35.65,-17.41 -33.80,-19.99 -31.92,-22.60 -30.05,-25.21 -28.14,-27.73 -26.24,-30.24 -24.69,-32.44 -23.13,-34.65 -22.43,-36.11 -21.73,-37.58 -21.26,-38.81 -20.79,-40.04 -20.33,-41.81 -19.87,-43.58 -19.34,-45.41 -18.81,-47.24 -18.82,-47.45 -18.82,-47.67 -18.77,-47.88 -18.73,-48.09 -18.63,-48.28 -18.53,-48.47 -18.39,-48.63 -18.25,-48.80 -18.08,-48.92 -17.90,-49.05 -17.71,-49.13 -17.51,-49.21 -17.29,-49.24 -17.08,-49.27 -16.87,-49.24 -16.65,-49.22 -16.45,-49.15 -16.25,-49.08 -16.07,-48.96 -15.89,-48.84 -15.74,-48.68 -15.60,-48.52 -15.50,-48.33 -15.39,-48.15 -15.34,-47.94 -15.28,-47.73 -15.21,-47.11 -15.14,-46.49 -15.04,-45.01 -14.95,-43.54 -14.66,-40.60 -14.37,-37.66 -13.99,-32.89 -13.61,-28.13 -13.08,-21.51 -12.56,-14.90 -11.77,-8.26 -10.98,-1.62 -9.96,6.13 -8.94,13.89 -8.04,16.58 -7.15,19.28 -5.88,20.92 -4.61,22.55 -3.33,22.15 -2.04,21.74 -0.35,20.78 1.33,19.82 3.07,18.35 4.81,16.88 5.96,15.54 7.10,14.20 7.95,13.04 8.81,11.88 9.70,10.99 10.59,10.10 11.76,9.25 12.93,8.40 14.49,7.56 16.06,6.72 18.07,5.93 20.08,5.13 22.82,4.62 25.56,4.10 28.86,4.31 32.16,4.52 36.25,5.03 40.34,5.54 44.85,6.74 49.35,7.94 54.68,10.43 60.00,12.92 65.60,16.84 71.19,20.75 77.51,26.53 83.83,32.30 89.81,38.78 95.80,45.25 100.54,51.17 105.29,57.08 108.71,61.54 112.14,66.01 112.15,67.11 112.17,68.21 112.38,68.23 112.59,68.26 112.78,68.33 112.98,68.41 113.15,68.53 113.32,68.65 113.46,68.81 113.60,68.97 113.70,69.15 113.80,69.34 113.85,69.54 113.89,69.75 113.89,69.96 113.89,70.17 113.84,70.37 113.79,70.57 113.69,70.76 113.59,70.95 113.45,71.10 113.31,71.26 113.14,71.38 112.97,71.50 112.77,71.57 112.57,71.65 112.37,71.67 112.16,71.69 110.75,71.64 109.34,71.60 107.20,71.59 105.07,71.59 101.18,71.57 97.29,71.56 91.82,71.52 86.34,71.48 79.88,71.38 73.43,71.28 63.73,71.03 54.04,70.78 47.62,70.17 41.21,69.55 37.08,68.35 32.95,67.15 31.23,65.33 29.51,63.51 27.78,60.89 26.06,58.27 24.52,55.16 22.98,52.05 21.99,48.18 21.01,44.31 21.00,41.65 20.99,38.98 21.54,37.17 22.09,35.36 23.98,34.16 25.88,32.95 26.93,32.41 27.99,31.87 29.13,30.42 30.28,28.98 30.03,27.53 29.79,26.08 29.02,23.71 28.26,21.34 26.96,19.40 25.67,17.45 23.60,15.82 21.53,14.18 19.02,13.00 16.52,11.83 11.42,10.14 6.33,8.45 0.02,7.81 -6.28,7.18 -12.26,7.91 -18.25,8.63 -24.26,10.30 -30.26,11.96 -35.49,15.38 -40.71,18.80 -42.57,22.79 -44.42,26.78 -46.24,33.19 -48.05,39.60 -47.72,45.53 -47.39,51.46 -46.10,56.34 -44.81,61.21 -42.07,62.72 -39.33,64.24 -34.52,63.79 -29.71,63.33 -23.28,62.36 -16.86,61.39 -11.73,59.99 -6.60,58.58 -2.87,57.16 0.84,55.74 5.76,53.77 10.68,51.80 11.12,50.79 11.55,49.78 11.26,48.39 10.96,47.00 10.14,46.04 9.32,45.09 7.74,43.77 6.16,42.46 3.54,40.27 0.92,38.09 -2.12,35.09 -5.17,32.09 -9.21,27.18 -13.25,22.28 -16.73,16.80 -20.21,11.33 -21.84,6.97 -23.47,2.61 -23.55,-0.25 -23.63,-3.12 -23.70,-6.00 -23.76,-8.89 -23.62,-10.44 -23.48,-11.98 -23.33,-13.10 -23.18,-14.22 -23.14,-15.69 -23.09,-17.15 -22.97,-18.55 -22.84,-19.95 -22.33,-21.15 -21.82,-22.34 -19.45,-22.34 -17.09,-22.35 -16.06,-21.77 -15.03,-21.18 -13.62,-20.72 -12.20,-20.26 -9.87,-19.68 -7.55,-19.10 -4.78,-18.54 -2.02,-17.98 0.82,-17.26 3.66,-16.54 6.25,-15.74 8.84,-14.95 11.20,-13.97 13.57,-13.00 15.33,-11.82 17.08,-10.64 18.06,-9.39 19.05,-8.13 19.82,-6.47 20.58,-4.80 21.31,-2.12 22.03,0.56 22.38,4.06 22.73,7.57 22.94,12.06 23.15,16.55 23.61,21.04 24.08,25.54 25.03,29.31 25.97,33.09 27.81,34.74 29.65,36.39 32.09,35.31 34.52,34.23 38.41,31.78 42.29,29.32 45.61,26.15 48.93,22.98 51.74,19.69 54.55,16.41 55.98,14.24 57.40,12.07 57.40,10.93 57.41,9.80 56.72,8.42 56.03,7.05 54.07,7.43 52.11,7.82 49.03,8.64 45.94,9.46 42.18,11.35 38.42,13.24 33.85,17.37 29.27,21.50 26.50,26.29 23.73,31.09 22.96,35.86 22.18,40.64 22.28,42.06 22.38,43.49 22.56,45.47 22.73,47.46 22.51,47.66 22.29,47.87 22.02,48.01 21.76,48.15 21.47,48.23 21.17,48.30 20.87,48.31 20.57,48.31 20.28,48.24 19.99,48.17 19.72,48.04 19.45,47.90 19.22,47.70 18.99,47.50 18.82,47.26 18.65,47.01 18.54,46.73 18.43,46.45 18.39,46.15 18.35,45.85 18.38,45.56 18.41,45.26 18.52,44.97 18.62,44.69 18.79,44.44 18.96,44.19 20.20,43.25 21.45,42.31 22.20,41.55 22.95,40.80 23.22,39.23 23.49,37.65 23.04,36.23 22.59,34.80 21.41,33.97 20.23,33.15 17.50,32.39 14.77,31.63 10.04,31.11 5.31,30.58 -1.43,30.95 -8.19,31.32 -17.39,32.58 -26.59,33.84 -37.14,36.73 -47.69,39.62 -54.67,44.25 -61.65,48.88 -64.61,53.42 -67.57,57.96 -66.42,60.79 -65.28,63.63 -62.83,62.16 -60.37,60.69 -56.37,57.74 -52.36,54.79 -47.67,50.96 -42.98,47.13 -37.47,42.46 -31.95,37.78 -29.41,35.84 -26.87,33.90 -25.45,33.44 -24.04,32.99 -22.75,32.89 -21.46,32.79 -20.34,32.88 -19.22,32.98 -18.10,32.82 -16.98,32.67 -15.99,32.18 -15.01,31.69 -13.90,30.62 -12.80,29.56 -11.27,27.57 -9.75,25.57 -8.14,23.24 -6.53,20.91 -5.77,18.92 -5.02,16.93 -5.15,15.14 -5.28,13.35 -5.69,11.96 -6.10,10.57 -6.96,9.34 -7.81,8.11 -9.30,7.09 -10.79,6.06 -12.44,5.57 -14.09,5.07 -15.20,5.35 -16.31,5.63 -15.49,6.86 -14.66,8.09 -12.48,9.83 -10.31,11.56 -6.84,12.79 -3.37,14.01 0.82,13.92 5.02,13.82 8.34,13.37 11.66,12.91 13.47,11.80 15.28,10.69 14.91,9.62 14.54,8.55 13.87,7.50 13.20,6.44 11.57,4.72 9.94,2.99 7.73,1.09 5.52,-0.79 2.99,-2.60 0.46,-4.42 -1.98,-5.97 -4.44,-7.53 -5.81,-8.15 -7.17,-8.78 -8.41,-8.37 -9.66,-7.97 -10.83,-6.61 -12.01,-5.26 -13.30,-2.56 -14.59,0.14 -15.40,4.39 -16.21,8.63 -16.23,15.02 -16.24,21.41 -15.52,27.56 -14.79,33.71 -13.15,38.02 -11.52,42.34 -8.78,45.13 -6.04,47.92 -2.08,49.17 1.87,50.42 6.93,50.09 11.98,49.76 15.76,49.02 19.53,48.28 24.70,46.98 29.88,45.67 34.05,43.45 38.22,41.22 37.66,40.05 37.10,38.87 35.99,37.24 34.88,35.61 33.18,33.38 31.49,31.14 29.79,28.93 28.08,26.72 26.27,24.03 24.46,21.34 25.33,20.49 26.21,19.64 27.53,18.77 28.85,17.91 28.03,17.16 27.21,16.40 25.72,15.36 24.24,14.33 21.75,12.81 19.27,11.29 16.31,9.35 13.36,7.40 10.27,5.21 7.18,3.01 4.94,0.57 2.70,-1.85 2.30,-3.80 1.89,-5.74 1.94,-7.48 1.99,-9.23 2.04,-10.47 2.09,-11.70 2.29,-13.36 2.49,-15.01 3.49,-16.47 4.49,-17.93 6.25,-18.50 8.02,-19.08 9.13,-18.79 10.23,-18.50 11.42,-17.82 12.60,-17.13 13.91,-15.16 15.21,-13.18 15.48,-10.96 15.74,-8.75 15.76,-7.67 15.79,-6.60 15.81,-5.50 15.84,-4.41 15.87,-3.26 15.90,-2.11 15.82,-0.18 15.74,1.73 15.48,3.03 15.22,4.33 14.76,5.63 14.30,6.93 13.37,7.64 12.45,8.35 11.40,9.28 10.36,10.22 9.25,10.68 8.13,11.13 6.94,12.18 5.74,13.22 4.34,14.53 2.94,15.84 1.95,16.52 0.96,17.20 -0.88,17.62 -2.72,18.03 -4.50,17.95 -6.28,17.86 -7.36,16.82 -8.44,15.78 -6.87,13.41 -5.31,11.03 -5.16,9.79 -5.00,8.55 -5.20,6.84 -5.40,5.14 -5.36,4.08 -5.32,3.01 -5.65,2.98 -5.98,2.95 -6.30,2.85 -6.61,2.74 -6.89,2.56 -7.17,2.38 -7.40,2.14 -7.63,1.90 -7.80,1.61 -7.96,1.32 -8.05,1.00 -8.15,0.68 -8.16,0.35 -8.17,0.02 -8.10,-0.30 -8.03,-0.62 -7.89,-0.92 -7.75,-1.22 -7.54,-1.48 -7.32,-1.74 -7.06,-1.94 -6.79,-2.14 -6.48,-2.26 -6.18,-2.39 -5.85,-2.45 -5.52,-2.50 -4.15,-2.47 -2.77,-2.45 -1.46,-2.52 -0.15,-2.60 0.15,-2.58 0.46,-2.56 0.76,-2.47 1.06,-2.37 1.33,-2.21 1.60,-2.05 1.83,-1.83 2.05,-1.60 2.21,-1.34 2.37,-1.07 2.47,-0.77 2.56,-0.47 2.58,-0.15 2.60,0.15 2.54,0.46 2.49,0.77 2.36,1.06 2.23,1.34 2.03,1.59 1.84,1.84 1.59,2.03 1.34,2.23 1.06,2.36 0.77,2.48 0.46,2.54 0.15,2.60 0.15,2.60 L 0.15,2.60 Z"></path></g><g stroke-linecap="round" transform="translate(154.35639525818033 133.43001659804202) rotate(0 12.540876641881539 12.540876641881539)"><path d="M9.81 0.93 C12.25 0.41, 15.04 0.7, 17.37 1.81 C19.7 2.92, 22.71 5.3, 23.77 7.6 C24.83 9.9, 24.53 12.94, 23.72 15.62 C22.92 18.3, 21.12 22.19, 18.95 23.68 C16.79 25.16, 13.36 24.82, 10.73 24.52 C8.1 24.22, 4.99 23.73, 3.17 21.88 C1.34 20.04, -0.07 16.35, -0.21 13.47 C-0.34 10.59, 0.06 6.71, 2.35 4.61 C4.64 2.5, 11.2 1.37, 13.54 0.82 C15.87 0.27, 16.31 1.3, 16.35 1.28 M9.97 -0.66 C12.5 -1.64, 15.52 -1.14, 17.97 0.27 C20.41 1.69, 23.57 5.15, 24.65 7.82 C25.73 10.48, 25.47 13.8, 24.46 16.25 C23.45 18.71, 20.49 20.95, 18.58 22.56 C16.67 24.17, 15.54 26.19, 13 25.92 C10.45 25.66, 5.34 22.97, 3.3 20.98 C1.25 18.98, 1.06 16.68, 0.72 13.97 C0.39 11.25, -0.23 6.94, 1.28 4.69 C2.79 2.43, 8.56 1.28, 9.77 0.43 C10.98 -0.43, 8.69 -0.75, 8.54 -0.46" stroke="#ffffff" stroke-width="4" fill="none"></path></g><g stroke-linecap="round"><g transform="translate(64.34966174391877 87.87919572383055) rotate(0 46.368861624176816 25.515986234781906)"><path d="M-0.31 -1.08 C15.35 7.62, 77.69 43.36, 93.05 52.12 M1.73 0.96 C17.35 9.37, 76.91 42.48, 92.35 50.53" stroke="#ffffff" stroke-width="4" fill="none"></path></g></g><mask></mask><g stroke-linecap="round"><g transform="translate(170.87236042890515 52.310068389966546) rotate(0 -1.841953738680445 40.342749575440735)"><path d="M0.09 -0.48 C-0.67 13.11, -3.26 67.48, -3.77 80.97 M-1.33 -1.77 C-1.78 12.06, -1.15 68.6, -1.57 82.46" stroke="#ffffff" stroke-width="4" fill="none"></path></g></g><mask></mask><g stroke-linecap="round"><g transform="translate(179.78552906603488 147.69020697308474) rotate(0 33.675345168374804 3.980452896591771)"><path d="M1.02 1.1 C11.92 2.45, 53.95 6.53, 64.87 7.32 M0.09 0.64 C11.44 1.72, 56.22 4.6, 67.26 5.64" stroke="#ffffff" stroke-width="4" fill="none"></path></g></g><mask></mask><g stroke-linecap="round"><g transform="translate(170.16880493707447 157.53118941506614) rotate(0 11.913626245329226 32.31394746916965)"><path d="M0.87 -0.55 C5.02 10.24, 20.05 54.48, 23.96 65.18 M-0.14 1.78 C3.95 12.18, 19.05 52.95, 23.04 63.4" stroke="#ffffff" stroke-width="4" fill="none"></path></g></g><mask></mask><g stroke-linecap="round"><g transform="translate(156.98153668707346 154.26405359987757) rotate(0 -27.26958897273434 27.65381977446259)"><path d="M-1.1 -1 C-10 8.26, -45.46 46.79, -54.29 56.3 M0.53 1.09 C-8.43 9.97, -45.89 45.86, -55.07 54.71" stroke="#ffffff" stroke-width="4" fill="none"></path></g></g><mask></mask></svg>
